M48
;Layer_Color=9474304
;FILE_FORMAT=2:4
INCH,TZ
;TYPE=PLATED
T1F00S00C0.0118
T2F00S00C0.0236
T3F00S00C0.0256
T4F00S00C0.0276
T5F00S00C0.0280
T6F00S00C0.0299
T7F00S00C0.0315
T9F00S00C0.0339
T10F00S00C0.0354
T11F00S00C0.0380
T12F00S00C0.0394
T13F00S00C0.0420
T14F00S00C0.0630
%
T01
X2600Y840
X3870Y1440
X3520Y2940
X7900Y2930
X10153Y4175
X10423Y4510
X10890Y4810
X9770Y4770
X13210Y4040
X13220Y3090
X13221Y2160
X13231Y1220
X11000Y1660
X9930Y5860
X11180Y10320
Y11270
X9870Y17900
X8880
X7890
X6930
X5940
X4950
X3980Y17895
X2998Y17902
X2001Y17917
X1000Y17900
X2750Y8110
X2741Y7404
X2741Y7030
X2720Y6670
X2730Y6260
T02
X15720Y1629
Y3991
X15740Y4709
X18440Y1420
X20802
X22310Y4759
X27890Y5059
X27910Y4261
X28890Y4251
Y5049
Y1889
X27910Y1899
X35040Y960
Y3322
X39131Y7140
X42120Y12409
Y14771
X33540Y14059
Y13361
X32650
X32660Y14059
Y16421
X33540
X28280Y16582
X27110
Y14220
Y13271
X28290Y13262
X28280Y14220
X28290Y10900
X27110Y10909
X27890Y7421
X28890Y7411
X22310Y7121
X21980Y11260
Y13622
X22000Y14610
Y16972
X32650Y10999
X33540
X36769Y7140
X20900Y11249
X19650
Y13611
X20900
X20860Y14609
Y16971
X15740Y7071
T03
X39496Y8010
X40850Y16050
X36850
X36484Y8010
X20830Y7110
X16830
X9886Y12230
X8901
X7917
X6933
X5949
Y15230
X6933
X7917
X8901
X9886
X4964
X3980
X2996
X2012
X1027
Y12230
X2012
X2996
X3980
X4964
T04
X16980Y2777
X34986Y11491
X35734
X16980Y5730
T05
X22576Y3080
X23364
X26260Y3166
Y3954
Y5330
X35740Y5270
Y6057
X26260Y6117
T06
X31600Y6050
X33600
X32600Y8050
X16970Y12100
Y14100
X15970Y13100
T07
X23640Y4896
X29950Y3686
X36230Y3114
Y1146
X41040Y12636
Y14604
X35960Y14954
X34850Y14949
Y12980
X35960Y12986
X31550Y12666
Y14634
X29480Y14664
Y12696
X29950Y5654
X23640Y6864
X19700Y14646
Y16614
T09
X23014Y10700
Y11700
Y12700
Y13700
Y14700
Y15700
Y16700
X26140
Y15700
Y14700
Y13700
Y12700
Y11700
Y10700
T10
X18110Y2760
Y3760
Y4760
X20990
Y3760
Y2760
X31130Y3200
Y4200
Y2200
Y1200
X34010
Y2200
Y3200
Y4200
X37100Y11750
Y12750
Y13750
Y14750
X39980
Y13750
Y12750
Y11750
X20990Y5760
X18110
T11
X11614Y12482
X13386
Y15238
X11614
T12
X13620Y5300
Y6300
Y7300
T13
X37570Y1160
X39010Y1170
Y5170
X37570Y5160
T14
X1660Y2060
Y3510
X29980Y2320
X18250Y16510
X15790Y16500
M30
