G04*
G04 #@! TF.GenerationSoftware,Altium Limited,Altium Designer,21.4.1 (30)*
G04*
G04 Layer_Physical_Order=1*
G04 Layer_Color=255*
%FSLAX25Y25*%
%MOIN*%
G70*
G04*
G04 #@! TF.SameCoordinates,4B32E59A-19CF-40ED-AED0-984A1E0E73E4*
G04*
G04*
G04 #@! TF.FilePolarity,Positive*
G04*
G01*
G75*
%ADD17C,0.01181*%
G04:AMPARAMS|DCode=21|XSize=86.61mil|YSize=59.06mil|CornerRadius=7.38mil|HoleSize=0mil|Usage=FLASHONLY|Rotation=270.000|XOffset=0mil|YOffset=0mil|HoleType=Round|Shape=RoundedRectangle|*
%AMROUNDEDRECTD21*
21,1,0.08661,0.04429,0,0,270.0*
21,1,0.07185,0.05906,0,0,270.0*
1,1,0.01476,-0.02215,-0.03593*
1,1,0.01476,-0.02215,0.03593*
1,1,0.01476,0.02215,0.03593*
1,1,0.01476,0.02215,-0.03593*
%
%ADD21ROUNDEDRECTD21*%
%ADD22C,0.05000*%
G04:AMPARAMS|DCode=23|XSize=59.06mil|YSize=13.78mil|CornerRadius=1.38mil|HoleSize=0mil|Usage=FLASHONLY|Rotation=0.000|XOffset=0mil|YOffset=0mil|HoleType=Round|Shape=RoundedRectangle|*
%AMROUNDEDRECTD23*
21,1,0.05906,0.01102,0,0,0.0*
21,1,0.05630,0.01378,0,0,0.0*
1,1,0.00276,0.02815,-0.00551*
1,1,0.00276,-0.02815,-0.00551*
1,1,0.00276,-0.02815,0.00551*
1,1,0.00276,0.02815,0.00551*
%
%ADD23ROUNDEDRECTD23*%
G04:AMPARAMS|DCode=24|XSize=59.06mil|YSize=47.24mil|CornerRadius=4.72mil|HoleSize=0mil|Usage=FLASHONLY|Rotation=0.000|XOffset=0mil|YOffset=0mil|HoleType=Round|Shape=RoundedRectangle|*
%AMROUNDEDRECTD24*
21,1,0.05906,0.03780,0,0,0.0*
21,1,0.04961,0.04724,0,0,0.0*
1,1,0.00945,0.02480,-0.01890*
1,1,0.00945,-0.02480,-0.01890*
1,1,0.00945,-0.02480,0.01890*
1,1,0.00945,0.02480,0.01890*
%
%ADD24ROUNDEDRECTD24*%
G04:AMPARAMS|DCode=25|XSize=70.87mil|YSize=45.28mil|CornerRadius=5.66mil|HoleSize=0mil|Usage=FLASHONLY|Rotation=90.000|XOffset=0mil|YOffset=0mil|HoleType=Round|Shape=RoundedRectangle|*
%AMROUNDEDRECTD25*
21,1,0.07087,0.03396,0,0,90.0*
21,1,0.05955,0.04528,0,0,90.0*
1,1,0.01132,0.01698,0.02977*
1,1,0.01132,0.01698,-0.02977*
1,1,0.01132,-0.01698,-0.02977*
1,1,0.01132,-0.01698,0.02977*
%
%ADD25ROUNDEDRECTD25*%
G04:AMPARAMS|DCode=26|XSize=70.87mil|YSize=51.18mil|CornerRadius=6.4mil|HoleSize=0mil|Usage=FLASHONLY|Rotation=90.000|XOffset=0mil|YOffset=0mil|HoleType=Round|Shape=RoundedRectangle|*
%AMROUNDEDRECTD26*
21,1,0.07087,0.03839,0,0,90.0*
21,1,0.05807,0.05118,0,0,90.0*
1,1,0.01280,0.01919,0.02904*
1,1,0.01280,0.01919,-0.02904*
1,1,0.01280,-0.01919,-0.02904*
1,1,0.01280,-0.01919,0.02904*
%
%ADD26ROUNDEDRECTD26*%
%ADD27R,0.01713X0.05906*%
G04:AMPARAMS|DCode=28|XSize=70.87mil|YSize=51.18mil|CornerRadius=6.4mil|HoleSize=0mil|Usage=FLASHONLY|Rotation=0.000|XOffset=0mil|YOffset=0mil|HoleType=Round|Shape=RoundedRectangle|*
%AMROUNDEDRECTD28*
21,1,0.07087,0.03839,0,0,0.0*
21,1,0.05807,0.05118,0,0,0.0*
1,1,0.01280,0.02904,-0.01919*
1,1,0.01280,-0.02904,-0.01919*
1,1,0.01280,-0.02904,0.01919*
1,1,0.01280,0.02904,0.01919*
%
%ADD28ROUNDEDRECTD28*%
G04:AMPARAMS|DCode=29|XSize=480.31mil|YSize=383.86mil|CornerRadius=19.19mil|HoleSize=0mil|Usage=FLASHONLY|Rotation=0.000|XOffset=0mil|YOffset=0mil|HoleType=Round|Shape=RoundedRectangle|*
%AMROUNDEDRECTD29*
21,1,0.48031,0.34547,0,0,0.0*
21,1,0.44193,0.38386,0,0,0.0*
1,1,0.03839,0.22097,-0.17274*
1,1,0.03839,-0.22097,-0.17274*
1,1,0.03839,-0.22097,0.17274*
1,1,0.03839,0.22097,0.17274*
%
%ADD29ROUNDEDRECTD29*%
G04:AMPARAMS|DCode=30|XSize=137.8mil|YSize=62.99mil|CornerRadius=7.87mil|HoleSize=0mil|Usage=FLASHONLY|Rotation=270.000|XOffset=0mil|YOffset=0mil|HoleType=Round|Shape=RoundedRectangle|*
%AMROUNDEDRECTD30*
21,1,0.13780,0.04724,0,0,270.0*
21,1,0.12205,0.06299,0,0,270.0*
1,1,0.01575,-0.02362,-0.06102*
1,1,0.01575,-0.02362,0.06102*
1,1,0.01575,0.02362,0.06102*
1,1,0.01575,0.02362,-0.06102*
%
%ADD30ROUNDEDRECTD30*%
G04:AMPARAMS|DCode=31|XSize=70.87mil|YSize=45.28mil|CornerRadius=5.66mil|HoleSize=0mil|Usage=FLASHONLY|Rotation=180.000|XOffset=0mil|YOffset=0mil|HoleType=Round|Shape=RoundedRectangle|*
%AMROUNDEDRECTD31*
21,1,0.07087,0.03396,0,0,180.0*
21,1,0.05955,0.04528,0,0,180.0*
1,1,0.01132,-0.02977,0.01698*
1,1,0.01132,0.02977,0.01698*
1,1,0.01132,0.02977,-0.01698*
1,1,0.01132,-0.02977,-0.01698*
%
%ADD31ROUNDEDRECTD31*%
%ADD61C,0.01968*%
%ADD62C,0.01693*%
%ADD63C,0.01378*%
%ADD64C,0.05118*%
%ADD65C,0.05906*%
%ADD66O,0.05512X0.06299*%
%ADD67C,0.11811*%
%ADD68C,0.07500*%
G04:AMPARAMS|DCode=69|XSize=62.99mil|YSize=62.99mil|CornerRadius=7.87mil|HoleSize=0mil|Usage=FLASHONLY|Rotation=0.000|XOffset=0mil|YOffset=0mil|HoleType=Round|Shape=RoundedRectangle|*
%AMROUNDEDRECTD69*
21,1,0.06299,0.04724,0,0,0.0*
21,1,0.04724,0.06299,0,0,0.0*
1,1,0.01575,0.02362,-0.02362*
1,1,0.01575,-0.02362,-0.02362*
1,1,0.01575,-0.02362,0.02362*
1,1,0.01575,0.02362,0.02362*
%
%ADD69ROUNDEDRECTD69*%
%ADD70C,0.06299*%
%ADD71C,0.05600*%
G04:AMPARAMS|DCode=72|XSize=56mil|YSize=56mil|CornerRadius=7mil|HoleSize=0mil|Usage=FLASHONLY|Rotation=270.000|XOffset=0mil|YOffset=0mil|HoleType=Round|Shape=RoundedRectangle|*
%AMROUNDEDRECTD72*
21,1,0.05600,0.04200,0,0,270.0*
21,1,0.04200,0.05600,0,0,270.0*
1,1,0.01400,-0.02100,-0.02100*
1,1,0.01400,-0.02100,0.02100*
1,1,0.01400,0.02100,0.02100*
1,1,0.01400,0.02100,-0.02100*
%
%ADD72ROUNDEDRECTD72*%
G04:AMPARAMS|DCode=73|XSize=94.49mil|YSize=62.99mil|CornerRadius=15.75mil|HoleSize=0mil|Usage=FLASHONLY|Rotation=0.000|XOffset=0mil|YOffset=0mil|HoleType=Round|Shape=RoundedRectangle|*
%AMROUNDEDRECTD73*
21,1,0.09449,0.03150,0,0,0.0*
21,1,0.06299,0.06299,0,0,0.0*
1,1,0.03150,0.03150,-0.01575*
1,1,0.03150,-0.03150,-0.01575*
1,1,0.03150,-0.03150,0.01575*
1,1,0.03150,0.03150,0.01575*
%
%ADD73ROUNDEDRECTD73*%
G04:AMPARAMS|DCode=74|XSize=59.06mil|YSize=59.06mil|CornerRadius=14.76mil|HoleSize=0mil|Usage=FLASHONLY|Rotation=0.000|XOffset=0mil|YOffset=0mil|HoleType=Round|Shape=RoundedRectangle|*
%AMROUNDEDRECTD74*
21,1,0.05906,0.02953,0,0,0.0*
21,1,0.02953,0.05906,0,0,0.0*
1,1,0.02953,0.01476,-0.01476*
1,1,0.02953,-0.01476,-0.01476*
1,1,0.02953,-0.01476,0.01476*
1,1,0.02953,0.01476,0.01476*
%
%ADD74ROUNDEDRECTD74*%
%ADD75C,0.05130*%
G04:AMPARAMS|DCode=76|XSize=56mil|YSize=56mil|CornerRadius=7mil|HoleSize=0mil|Usage=FLASHONLY|Rotation=0.000|XOffset=0mil|YOffset=0mil|HoleType=Round|Shape=RoundedRectangle|*
%AMROUNDEDRECTD76*
21,1,0.05600,0.04200,0,0,0.0*
21,1,0.04200,0.05600,0,0,0.0*
1,1,0.01400,0.02100,-0.02100*
1,1,0.01400,-0.02100,-0.02100*
1,1,0.01400,-0.02100,0.02100*
1,1,0.01400,0.02100,0.02100*
%
%ADD76ROUNDEDRECTD76*%
%ADD77C,0.04724*%
G04:AMPARAMS|DCode=78|XSize=118.11mil|YSize=82.68mil|CornerRadius=20.67mil|HoleSize=0mil|Usage=FLASHONLY|Rotation=90.000|XOffset=0mil|YOffset=0mil|HoleType=Round|Shape=RoundedRectangle|*
%AMROUNDEDRECTD78*
21,1,0.11811,0.04134,0,0,90.0*
21,1,0.07677,0.08268,0,0,90.0*
1,1,0.04134,0.02067,0.03839*
1,1,0.04134,0.02067,-0.03839*
1,1,0.04134,-0.02067,-0.03839*
1,1,0.04134,-0.02067,0.03839*
%
%ADD78ROUNDEDRECTD78*%
%ADD79C,0.06890*%
%ADD80C,0.02756*%
G36*
X424392Y185801D02*
X425131D01*
X426580Y185512D01*
X427946Y184947D01*
X429175Y184126D01*
X430221Y183080D01*
X431042Y181851D01*
X431607Y180485D01*
X431896Y179036D01*
Y178297D01*
X431901Y7005D01*
Y6434D01*
X431678Y5313D01*
X431241Y4257D01*
X430606Y3307D01*
X429798Y2499D01*
X428848Y1864D01*
X427792Y1427D01*
X426673Y1204D01*
X426103Y1206D01*
X426102Y1206D01*
X426100Y1206D01*
X6983Y1322D01*
X6983Y1322D01*
X6982Y1322D01*
X6413D01*
X5297Y1544D01*
X4245Y1980D01*
X3299Y2612D01*
X2494Y3417D01*
X1862Y4364D01*
X1426Y5415D01*
X1204Y6532D01*
Y7101D01*
X1207Y55200D01*
X15110D01*
X15226Y55224D01*
X15345D01*
X15953Y55345D01*
X16063Y55390D01*
X16179Y55413D01*
X16752Y55651D01*
X16851Y55717D01*
X16961Y55762D01*
X17477Y56107D01*
X17560Y56190D01*
X17659Y56256D01*
X18098Y56695D01*
X18164Y56794D01*
X18248Y56877D01*
X18592Y57393D01*
X18638Y57503D01*
X18703Y57602D01*
X18941Y58175D01*
X18964Y58291D01*
X19010Y58401D01*
X19130Y59009D01*
X19420Y59116D01*
X21400D01*
Y62507D01*
X21900D01*
Y63007D01*
X25882D01*
Y64397D01*
X25767Y64971D01*
X25552Y65294D01*
X25787Y65646D01*
X25875Y66090D01*
Y66141D01*
X21900D01*
Y67141D01*
X25875D01*
Y67192D01*
X25787Y67636D01*
X25626Y67876D01*
X25741Y68253D01*
X26217Y68452D01*
X26977Y68137D01*
X27838D01*
X28634Y68467D01*
X29243Y69076D01*
X29395Y69442D01*
X29895Y69343D01*
Y36300D01*
X30009Y35724D01*
X30336Y35236D01*
X32432Y33139D01*
X32186Y32678D01*
X32077Y32700D01*
X29600D01*
Y29906D01*
X33674D01*
Y31103D01*
X33552Y31714D01*
X33383Y31968D01*
X33684Y32418D01*
X33800Y32395D01*
X80568D01*
X80835Y31895D01*
X80648Y31614D01*
X80526Y31003D01*
Y29805D01*
X85100D01*
X89674D01*
Y31003D01*
X89552Y31614D01*
X89365Y31895D01*
X89632Y32395D01*
X92730D01*
Y30307D01*
X92848Y29712D01*
X93186Y29208D01*
X93690Y28870D01*
X94285Y28752D01*
X98715D01*
X99310Y28870D01*
X99814Y29208D01*
X100152Y29712D01*
X100270Y30307D01*
Y37492D01*
X100152Y38088D01*
X99814Y38592D01*
X99310Y38930D01*
X98715Y39048D01*
X94285D01*
X93690Y38930D01*
X93186Y38592D01*
X92848Y38088D01*
X92730Y37492D01*
Y35405D01*
X34424D01*
X32905Y36924D01*
Y74500D01*
X32791Y75076D01*
X32464Y75564D01*
X30068Y77961D01*
X29579Y78288D01*
X29003Y78402D01*
X26226D01*
X25838Y78902D01*
X25882Y79121D01*
Y80511D01*
X21900D01*
Y81011D01*
X21400D01*
Y84402D01*
X19420D01*
X19130Y84509D01*
X19010Y85117D01*
X18964Y85227D01*
X18941Y85343D01*
X18703Y85917D01*
X18638Y86015D01*
X18592Y86125D01*
X18248Y86641D01*
X18164Y86724D01*
X18098Y86823D01*
X17659Y87262D01*
X17560Y87328D01*
X17477Y87411D01*
X16961Y87756D01*
X16851Y87802D01*
X16752Y87867D01*
X16179Y88105D01*
X16063Y88128D01*
X15953Y88174D01*
X15345Y88295D01*
X15226D01*
X15110Y88318D01*
X1563D01*
X1209Y88671D01*
X1215Y179352D01*
X1215Y179352D01*
X1215Y179352D01*
Y179987D01*
X1463Y181234D01*
X1949Y182408D01*
X2655Y183465D01*
X3554Y184363D01*
X4611Y185069D01*
X5785Y185556D01*
X7031Y185804D01*
X7667D01*
X424392Y185801D01*
D02*
G37*
%LPC*%
G36*
X33038Y177775D02*
X30634D01*
Y174684D01*
X34710D01*
Y176103D01*
X34582Y176743D01*
X34220Y177286D01*
X33678Y177648D01*
X33038Y177775D01*
D02*
G37*
G36*
X29634D02*
X27231D01*
X26591Y177648D01*
X26048Y177286D01*
X25686Y176743D01*
X25559Y176103D01*
Y174684D01*
X29634D01*
Y177775D01*
D02*
G37*
G36*
X23115D02*
X20711D01*
Y174684D01*
X24787D01*
Y176103D01*
X24660Y176743D01*
X24297Y177286D01*
X23755Y177648D01*
X23115Y177775D01*
D02*
G37*
G36*
X19712D02*
X17308D01*
X16668Y177648D01*
X16126Y177286D01*
X15763Y176743D01*
X15636Y176103D01*
Y174684D01*
X19712D01*
Y177775D01*
D02*
G37*
G36*
X91803Y177708D02*
X89400D01*
Y174617D01*
X93475D01*
Y176037D01*
X93348Y176676D01*
X92986Y177219D01*
X92443Y177581D01*
X91803Y177708D01*
D02*
G37*
G36*
X88400D02*
X85997D01*
X85357Y177581D01*
X84814Y177219D01*
X84452Y176676D01*
X84325Y176037D01*
Y174617D01*
X88400D01*
Y177708D01*
D02*
G37*
G36*
X13003D02*
X10600D01*
Y174617D01*
X14675D01*
Y176037D01*
X14548Y176676D01*
X14186Y177219D01*
X13643Y177581D01*
X13003Y177708D01*
D02*
G37*
G36*
X9600D02*
X7197D01*
X6557Y177581D01*
X6014Y177219D01*
X5652Y176676D01*
X5525Y176037D01*
Y174617D01*
X9600D01*
Y177708D01*
D02*
G37*
G36*
X42799Y177654D02*
X40396D01*
Y174563D01*
X44471D01*
Y175982D01*
X44344Y176622D01*
X43982Y177165D01*
X43439Y177527D01*
X42799Y177654D01*
D02*
G37*
G36*
X39396D02*
X36992D01*
X36353Y177527D01*
X35810Y177165D01*
X35448Y176622D01*
X35321Y175982D01*
Y174563D01*
X39396D01*
Y177654D01*
D02*
G37*
G36*
X101804Y177600D02*
X99400D01*
Y174509D01*
X103475D01*
Y175928D01*
X103348Y176568D01*
X102986Y177110D01*
X102443Y177473D01*
X101804Y177600D01*
D02*
G37*
G36*
X98400D02*
X95996D01*
X95357Y177473D01*
X94814Y177110D01*
X94452Y176568D01*
X94325Y175928D01*
Y174509D01*
X98400D01*
Y177600D01*
D02*
G37*
G36*
X82104D02*
X79700D01*
Y174509D01*
X83775D01*
Y175928D01*
X83648Y176568D01*
X83286Y177110D01*
X82743Y177473D01*
X82104Y177600D01*
D02*
G37*
G36*
X78700D02*
X76297D01*
X75657Y177473D01*
X75114Y177110D01*
X74752Y176568D01*
X74625Y175928D01*
Y174509D01*
X78700D01*
Y177600D01*
D02*
G37*
G36*
X72303D02*
X69900D01*
Y174509D01*
X73975D01*
Y175928D01*
X73848Y176568D01*
X73486Y177110D01*
X72943Y177473D01*
X72303Y177600D01*
D02*
G37*
G36*
X68900D02*
X66496D01*
X65857Y177473D01*
X65314Y177110D01*
X64952Y176568D01*
X64825Y175928D01*
Y174509D01*
X68900D01*
Y177600D01*
D02*
G37*
G36*
X62404D02*
X60000D01*
Y174509D01*
X64075D01*
Y175928D01*
X63948Y176568D01*
X63586Y177110D01*
X63043Y177473D01*
X62404Y177600D01*
D02*
G37*
G36*
X59000D02*
X56596D01*
X55957Y177473D01*
X55414Y177110D01*
X55052Y176568D01*
X54925Y175928D01*
Y174509D01*
X59000D01*
Y177600D01*
D02*
G37*
G36*
X52504D02*
X50100D01*
Y174509D01*
X54175D01*
Y175928D01*
X54048Y176568D01*
X53686Y177110D01*
X53143Y177473D01*
X52504Y177600D01*
D02*
G37*
G36*
X49100D02*
X46696D01*
X46057Y177473D01*
X45514Y177110D01*
X45152Y176568D01*
X45025Y175928D01*
Y174509D01*
X49100D01*
Y177600D01*
D02*
G37*
G36*
X220441Y173068D02*
X219559D01*
X218708Y172840D01*
X217945Y172400D01*
X217322Y171777D01*
X217176Y171523D01*
X211418D01*
X211278Y171766D01*
X210655Y172389D01*
X209892Y172829D01*
X209041Y173057D01*
X208159D01*
X207308Y172829D01*
X206545Y172389D01*
X205922Y171766D01*
X205779Y171517D01*
X202065D01*
X201374Y171380D01*
X200788Y170988D01*
X199651Y169851D01*
X198751Y170371D01*
X197597Y170680D01*
X196403D01*
X195249Y170371D01*
X194214Y169773D01*
X193369Y168929D01*
X192772Y167894D01*
X192463Y166740D01*
Y165545D01*
X192772Y164391D01*
X193369Y163356D01*
X194214Y162512D01*
X195249Y161914D01*
X196403Y161605D01*
X197597D01*
X198751Y161914D01*
X199786Y162512D01*
X200631Y163356D01*
X201228Y164391D01*
X201537Y165545D01*
Y166629D01*
X202814Y167905D01*
X205779D01*
X205922Y167656D01*
X206545Y167033D01*
X207308Y166593D01*
X208159Y166365D01*
X209041D01*
X209892Y166593D01*
X210655Y167033D01*
X211278Y167656D01*
X211424Y167910D01*
X217182D01*
X217322Y167667D01*
X217945Y167044D01*
X218708Y166604D01*
X219559Y166376D01*
X220441D01*
X221292Y166604D01*
X222055Y167044D01*
X222678Y167667D01*
X223118Y168430D01*
X223346Y169281D01*
Y170163D01*
X223118Y171014D01*
X222678Y171777D01*
X222055Y172400D01*
X221292Y172840D01*
X220441Y173068D01*
D02*
G37*
G36*
X34710Y173684D02*
X30634D01*
Y170593D01*
X33038D01*
X33678Y170720D01*
X34220Y171082D01*
X34582Y171625D01*
X34710Y172265D01*
Y173684D01*
D02*
G37*
G36*
X29634D02*
X25559D01*
Y172265D01*
X25686Y171625D01*
X26048Y171082D01*
X26591Y170720D01*
X27231Y170593D01*
X29634D01*
Y173684D01*
D02*
G37*
G36*
X24787D02*
X20711D01*
Y170593D01*
X23115D01*
X23755Y170720D01*
X24297Y171082D01*
X24660Y171625D01*
X24787Y172265D01*
Y173684D01*
D02*
G37*
G36*
X19712D02*
X15636D01*
Y172265D01*
X15763Y171625D01*
X16126Y171082D01*
X16668Y170720D01*
X17308Y170593D01*
X19712D01*
Y173684D01*
D02*
G37*
G36*
X93475Y173617D02*
X89400D01*
Y170526D01*
X91803D01*
X92443Y170653D01*
X92986Y171016D01*
X93348Y171558D01*
X93475Y172198D01*
Y173617D01*
D02*
G37*
G36*
X88400D02*
X84325D01*
Y172198D01*
X84452Y171558D01*
X84814Y171016D01*
X85357Y170653D01*
X85997Y170526D01*
X88400D01*
Y173617D01*
D02*
G37*
G36*
X14675D02*
X10600D01*
Y170526D01*
X13003D01*
X13643Y170653D01*
X14186Y171016D01*
X14548Y171558D01*
X14675Y172198D01*
Y173617D01*
D02*
G37*
G36*
X9600D02*
X5525D01*
Y172198D01*
X5652Y171558D01*
X6014Y171016D01*
X6557Y170653D01*
X7197Y170526D01*
X9600D01*
Y173617D01*
D02*
G37*
G36*
X44471Y173563D02*
X40396D01*
Y170472D01*
X42799D01*
X43439Y170599D01*
X43982Y170962D01*
X44344Y171504D01*
X44471Y172144D01*
Y173563D01*
D02*
G37*
G36*
X39396D02*
X35321D01*
Y172144D01*
X35448Y171504D01*
X35810Y170962D01*
X36353Y170599D01*
X36992Y170472D01*
X39396D01*
Y173563D01*
D02*
G37*
G36*
X103475Y173509D02*
X99400D01*
Y170417D01*
X101804D01*
X102443Y170545D01*
X102986Y170907D01*
X103348Y171450D01*
X103475Y172089D01*
Y173509D01*
D02*
G37*
G36*
X98400D02*
X94325D01*
Y172089D01*
X94452Y171450D01*
X94814Y170907D01*
X95357Y170545D01*
X95996Y170417D01*
X98400D01*
Y173509D01*
D02*
G37*
G36*
X83775D02*
X79700D01*
Y170417D01*
X82104D01*
X82743Y170545D01*
X83286Y170907D01*
X83648Y171450D01*
X83775Y172089D01*
Y173509D01*
D02*
G37*
G36*
X78700D02*
X74625D01*
Y172089D01*
X74752Y171450D01*
X75114Y170907D01*
X75657Y170545D01*
X76297Y170417D01*
X78700D01*
Y173509D01*
D02*
G37*
G36*
X73975D02*
X69900D01*
Y170417D01*
X72303D01*
X72943Y170545D01*
X73486Y170907D01*
X73848Y171450D01*
X73975Y172089D01*
Y173509D01*
D02*
G37*
G36*
X68900D02*
X64825D01*
Y172089D01*
X64952Y171450D01*
X65314Y170907D01*
X65857Y170545D01*
X66496Y170417D01*
X68900D01*
Y173509D01*
D02*
G37*
G36*
X64075D02*
X60000D01*
Y170417D01*
X62404D01*
X63043Y170545D01*
X63586Y170907D01*
X63948Y171450D01*
X64075Y172089D01*
Y173509D01*
D02*
G37*
G36*
X59000D02*
X54925D01*
Y172089D01*
X55052Y171450D01*
X55414Y170907D01*
X55957Y170545D01*
X56596Y170417D01*
X59000D01*
Y173509D01*
D02*
G37*
G36*
X54175D02*
X50100D01*
Y170417D01*
X52504D01*
X53143Y170545D01*
X53686Y170907D01*
X54048Y171450D01*
X54175Y172089D01*
Y173509D01*
D02*
G37*
G36*
X49100D02*
X45025D01*
Y172089D01*
X45152Y171450D01*
X45514Y170907D01*
X46057Y170545D01*
X46696Y170417D01*
X49100D01*
Y173509D01*
D02*
G37*
G36*
X354533Y167887D02*
X353667D01*
X352831Y167663D01*
X352081Y167231D01*
X351469Y166619D01*
X351235Y166212D01*
X338109D01*
X338078Y166266D01*
X337455Y166889D01*
X336692Y167329D01*
X335841Y167558D01*
X334959D01*
X334108Y167329D01*
X333345Y166889D01*
X332722Y166266D01*
X332282Y165503D01*
X332053Y164652D01*
Y163770D01*
X332282Y162919D01*
X332722Y162156D01*
X333345Y161533D01*
X334108Y161093D01*
X334959Y160865D01*
X335841D01*
X336692Y161093D01*
X337455Y161533D01*
X338078Y162156D01*
X338334Y162599D01*
X351459D01*
X351469Y162582D01*
X352081Y161969D01*
X352831Y161537D01*
X353667Y161313D01*
X354533D01*
X355369Y161537D01*
X356118Y161969D01*
X356731Y162582D01*
X356853Y162794D01*
X363500D01*
X364874Y161419D01*
X364760Y160992D01*
Y160008D01*
X365015Y159056D01*
X365507Y158203D01*
X366203Y157507D01*
X367056Y157015D01*
X367447Y156910D01*
Y155349D01*
X367584Y154658D01*
X367976Y154072D01*
X369194Y152854D01*
Y151468D01*
X368638D01*
X368023Y151346D01*
X367502Y150998D01*
X367154Y150477D01*
X367032Y149862D01*
Y149382D01*
X366532Y149338D01*
X366108Y149761D01*
X365522Y150153D01*
X364831Y150291D01*
X364097D01*
X363828Y151294D01*
X363231Y152329D01*
X362386Y153173D01*
X361351Y153771D01*
X360197Y154080D01*
X359003D01*
X357849Y153771D01*
X356814Y153173D01*
X355969Y152329D01*
X355372Y151294D01*
X355063Y150140D01*
Y148945D01*
X355372Y147791D01*
X355969Y146756D01*
X356814Y145912D01*
X357849Y145314D01*
X359003Y145005D01*
X360197D01*
X361351Y145314D01*
X362386Y145912D01*
X363152Y146678D01*
X364083D01*
X364538Y146223D01*
X365124Y145831D01*
X365815Y145694D01*
X367032D01*
Y145138D01*
X367154Y144523D01*
X367502Y144002D01*
X368023Y143654D01*
X368638Y143532D01*
X373362D01*
X373977Y143654D01*
X374498Y144002D01*
X374846Y144523D01*
X374968Y145138D01*
Y149862D01*
X374846Y150477D01*
X374498Y150998D01*
X373977Y151346D01*
X373362Y151468D01*
X372806D01*
Y153602D01*
X372669Y154294D01*
X372277Y154880D01*
X371060Y156097D01*
Y157770D01*
X371493Y158203D01*
X371985Y159056D01*
X372240Y160008D01*
Y160992D01*
X371985Y161944D01*
X371493Y162796D01*
X370796Y163493D01*
X369944Y163985D01*
X368992Y164240D01*
X368008D01*
X367341Y164062D01*
X365526Y165877D01*
X364940Y166269D01*
X364248Y166406D01*
X356853D01*
X356731Y166619D01*
X356118Y167231D01*
X355369Y167663D01*
X354533Y167887D01*
D02*
G37*
G36*
X419933Y166287D02*
X419067D01*
X418231Y166063D01*
X417482Y165631D01*
X416869Y165018D01*
X416747Y164806D01*
X412065D01*
X411374Y164669D01*
X410788Y164277D01*
X410294Y163783D01*
X409944Y163985D01*
X408992Y164240D01*
X408008D01*
X407056Y163985D01*
X406204Y163493D01*
X405507Y162796D01*
X405015Y161944D01*
X404760Y160992D01*
Y160008D01*
X405015Y159056D01*
X405507Y158203D01*
X406204Y157507D01*
X407056Y157015D01*
X408008Y156760D01*
X408992D01*
X409539Y156906D01*
X414394Y152052D01*
Y139748D01*
X409123Y134477D01*
X408731Y133891D01*
X408594Y133200D01*
Y130554D01*
X407614Y129988D01*
X406769Y129144D01*
X406172Y128109D01*
X405863Y126955D01*
Y125760D01*
X406172Y124606D01*
X406769Y123572D01*
X407614Y122727D01*
X408649Y122129D01*
X408995Y122037D01*
Y104582D01*
X394861Y90448D01*
X287488D01*
X287297Y90910D01*
X295793Y99407D01*
X296098Y99862D01*
X296205Y100400D01*
Y122636D01*
X296551Y122729D01*
X297586Y123327D01*
X298431Y124171D01*
X299028Y125206D01*
X299337Y126360D01*
Y127555D01*
X299028Y128709D01*
X298431Y129744D01*
X297586Y130588D01*
X296551Y131186D01*
X295397Y131495D01*
X294203D01*
X293110Y131202D01*
X290413Y133899D01*
X289827Y134291D01*
X289135Y134428D01*
X285721D01*
X285578Y134677D01*
X284955Y135300D01*
X284192Y135740D01*
X283341Y135968D01*
X282459D01*
X281608Y135740D01*
X280845Y135300D01*
X280222Y134677D01*
X279782Y133914D01*
X279554Y133063D01*
Y132182D01*
X279782Y131330D01*
X280222Y130567D01*
X280845Y129944D01*
X281608Y129504D01*
X282459Y129276D01*
X283341D01*
X284192Y129504D01*
X284955Y129944D01*
X285578Y130567D01*
X285721Y130816D01*
X288387D01*
X290555Y128647D01*
X290263Y127555D01*
Y126360D01*
X290572Y125206D01*
X291169Y124171D01*
X292014Y123327D01*
X293049Y122729D01*
X293395Y122636D01*
Y100982D01*
X284887Y92474D01*
X155384D01*
X155099Y92417D01*
X133112D01*
X132574Y92310D01*
X132118Y92005D01*
X122053Y81940D01*
X121907Y81945D01*
X121522Y82116D01*
X121446Y82496D01*
X121142Y82952D01*
X100400Y103693D01*
X99944Y103998D01*
X99407Y104105D01*
X63774D01*
Y107995D01*
X93500D01*
X94038Y108102D01*
X94493Y108406D01*
X99849Y113762D01*
X100153Y114217D01*
X100260Y114755D01*
Y119474D01*
X100789Y119780D01*
X101375Y120366D01*
X101790Y121084D01*
X102005Y121885D01*
Y122715D01*
X101790Y123516D01*
X101375Y124234D01*
X100789Y124820D01*
X100071Y125235D01*
X99270Y125450D01*
X98440D01*
X97639Y125235D01*
X96921Y124820D01*
X96335Y124234D01*
X95920Y123516D01*
X95705Y122715D01*
Y121885D01*
X95920Y121084D01*
X96335Y120366D01*
X96921Y119780D01*
X97450Y119474D01*
Y115337D01*
X92918Y110805D01*
X87545D01*
X87354Y111267D01*
X90006Y113919D01*
X90311Y114375D01*
X90418Y114913D01*
Y119474D01*
X90947Y119780D01*
X91533Y120366D01*
X91948Y121084D01*
X92162Y121885D01*
Y122715D01*
X91948Y123516D01*
X91533Y124234D01*
X90947Y124820D01*
X90228Y125235D01*
X89427Y125450D01*
X88598D01*
X87797Y125235D01*
X87079Y124820D01*
X86492Y124234D01*
X86078Y123516D01*
X85863Y122715D01*
Y121885D01*
X86078Y121084D01*
X86492Y120366D01*
X87079Y119780D01*
X87608Y119474D01*
Y115495D01*
X84949Y112836D01*
X78777D01*
X78585Y113298D01*
X80164Y114877D01*
X80468Y115332D01*
X80575Y115870D01*
Y119474D01*
X81104Y119780D01*
X81690Y120366D01*
X82105Y121084D01*
X82320Y121885D01*
Y122715D01*
X82105Y123516D01*
X81690Y124234D01*
X81104Y124820D01*
X80386Y125235D01*
X79585Y125450D01*
X78755D01*
X77954Y125235D01*
X77236Y124820D01*
X76650Y124234D01*
X76235Y123516D01*
X76020Y122715D01*
Y121885D01*
X76235Y121084D01*
X76650Y120366D01*
X77236Y119780D01*
X77765Y119474D01*
Y116452D01*
X76118Y114805D01*
X69345D01*
X69154Y115267D01*
X70321Y116434D01*
X70626Y116890D01*
X70732Y117428D01*
Y119474D01*
X71262Y119780D01*
X71848Y120366D01*
X72263Y121084D01*
X72477Y121885D01*
Y122715D01*
X72263Y123516D01*
X71848Y124234D01*
X71262Y124820D01*
X70543Y125235D01*
X69742Y125450D01*
X68913D01*
X68112Y125235D01*
X67394Y124820D01*
X66807Y124234D01*
X66393Y123516D01*
X66178Y122715D01*
Y121885D01*
X66393Y121084D01*
X66807Y120366D01*
X67394Y119780D01*
X67923Y119474D01*
Y118009D01*
X66686Y116773D01*
X61182D01*
X60865Y117160D01*
X60890Y117285D01*
Y119474D01*
X61419Y119780D01*
X62005Y120366D01*
X62420Y121084D01*
X62635Y121885D01*
Y122715D01*
X62420Y123516D01*
X62005Y124234D01*
X61419Y124820D01*
X60701Y125235D01*
X59900Y125450D01*
X59070D01*
X58269Y125235D01*
X57551Y124820D01*
X56965Y124234D01*
X56550Y123516D01*
X56335Y122715D01*
Y121885D01*
X56550Y121084D01*
X56965Y120366D01*
X57551Y119780D01*
X58080Y119474D01*
Y117867D01*
X53416Y113203D01*
X52745Y113167D01*
X51047Y114865D01*
Y119474D01*
X51576Y119780D01*
X52163Y120366D01*
X52578Y121084D01*
X52792Y121885D01*
Y122715D01*
X52578Y123516D01*
X52163Y124234D01*
X51576Y124820D01*
X50858Y125235D01*
X50057Y125450D01*
X49228D01*
X48427Y125235D01*
X47709Y124820D01*
X47122Y124234D01*
X46708Y123516D01*
X46493Y122715D01*
Y121885D01*
X46708Y121084D01*
X47122Y120366D01*
X47709Y119780D01*
X48238Y119474D01*
Y115544D01*
X47776Y115352D01*
X42482Y120646D01*
X42735Y121084D01*
X42950Y121885D01*
Y122715D01*
X42735Y123516D01*
X42320Y124234D01*
X41734Y124820D01*
X41016Y125235D01*
X40215Y125450D01*
X39385D01*
X38584Y125235D01*
X37866Y124820D01*
X37280Y124234D01*
X36865Y123516D01*
X36650Y122715D01*
Y121885D01*
X36865Y121084D01*
X37280Y120366D01*
X37866Y119780D01*
X38584Y119365D01*
X39385Y119150D01*
X40004D01*
X40687Y118467D01*
X40496Y118005D01*
X32582D01*
X31839Y118748D01*
Y119749D01*
X31891Y119780D01*
X32478Y120366D01*
X32892Y121084D01*
X33107Y121885D01*
Y122715D01*
X32892Y123516D01*
X32478Y124234D01*
X31891Y124820D01*
X31173Y125235D01*
X30372Y125450D01*
X29543D01*
X28742Y125235D01*
X28024Y124820D01*
X27437Y124234D01*
X27022Y123516D01*
X26808Y122715D01*
Y121885D01*
X27022Y121084D01*
X27437Y120366D01*
X28024Y119780D01*
X28742Y119365D01*
X29029Y119288D01*
Y118166D01*
X29136Y117629D01*
X29440Y117173D01*
X30346Y116267D01*
X30155Y115805D01*
X22082D01*
X21520Y116367D01*
Y119474D01*
X22049Y119780D01*
X22635Y120366D01*
X23050Y121084D01*
X23265Y121885D01*
Y122715D01*
X23050Y123516D01*
X22635Y124234D01*
X22049Y124820D01*
X21331Y125235D01*
X20530Y125450D01*
X19700D01*
X18899Y125235D01*
X18181Y124820D01*
X17595Y124234D01*
X17180Y123516D01*
X16965Y122715D01*
Y121885D01*
X17180Y121084D01*
X17595Y120366D01*
X18181Y119780D01*
X18710Y119474D01*
Y115785D01*
X18817Y115247D01*
X19121Y114792D01*
X19930Y113983D01*
X19921Y113924D01*
X19701Y113505D01*
X13082D01*
X11494Y115093D01*
Y117027D01*
X11570Y117141D01*
X11677Y117679D01*
Y119474D01*
X12206Y119780D01*
X12793Y120366D01*
X13207Y121084D01*
X13422Y121885D01*
Y122715D01*
X13207Y123516D01*
X12793Y124234D01*
X12206Y124820D01*
X11488Y125235D01*
X10687Y125450D01*
X9858D01*
X9057Y125235D01*
X8338Y124820D01*
X7752Y124234D01*
X7338Y123516D01*
X7123Y122715D01*
Y121885D01*
X7338Y121084D01*
X7752Y120366D01*
X8338Y119780D01*
X8867Y119474D01*
Y118147D01*
X8791Y118033D01*
X8684Y117495D01*
Y114511D01*
X8791Y113973D01*
X9096Y113517D01*
X11507Y111107D01*
X11962Y110802D01*
X12500Y110695D01*
X19900D01*
X19954Y110706D01*
X20846D01*
X20900Y110695D01*
X39718D01*
X42895Y107518D01*
Y95700D01*
X43002Y95162D01*
X43306Y94707D01*
X54023Y83990D01*
X54479Y83685D01*
X55016Y83578D01*
X91487D01*
X96247Y78818D01*
Y77870D01*
X91008D01*
Y70390D01*
X91247D01*
Y67764D01*
X91354Y67226D01*
X91659Y66770D01*
X93460Y64969D01*
X93352Y64439D01*
X91659Y62745D01*
X91354Y62290D01*
X91247Y61752D01*
Y56610D01*
X91008D01*
Y49130D01*
X98292D01*
Y48917D01*
X99648D01*
Y52870D01*
X100648D01*
Y48917D01*
X100805D01*
X101012Y48417D01*
X100476Y47881D01*
X100171Y47425D01*
X100064Y46888D01*
Y43347D01*
X99694Y42976D01*
X99364Y42180D01*
Y41319D01*
X99694Y40523D01*
X100303Y39914D01*
X101099Y39584D01*
X101960D01*
X102756Y39914D01*
X103365Y40523D01*
X103695Y41319D01*
Y42180D01*
X103568Y42487D01*
X103646Y42641D01*
X103923Y42935D01*
X104656D01*
X105452Y43264D01*
X105535Y43348D01*
X105997Y43156D01*
Y28300D01*
X106058Y27993D01*
X106232Y27732D01*
X106232Y27732D01*
X108032Y25932D01*
X108293Y25758D01*
X108600Y25697D01*
X111009D01*
X111200Y25235D01*
X109267Y23303D01*
X75268D01*
X71695Y26875D01*
X71695Y26876D01*
X71694Y26877D01*
X71566Y26962D01*
X71435Y27049D01*
X71434Y27049D01*
X71433Y27050D01*
X71281Y27080D01*
X71128Y27110D01*
X71127Y27110D01*
X71126Y27110D01*
X69665Y27107D01*
X69662Y27108D01*
X64938D01*
X64884Y27097D01*
X64392Y27096D01*
X64240Y27066D01*
X64086Y27035D01*
X64086Y27035D01*
X64085Y27035D01*
X63953Y26946D01*
X63826Y26861D01*
X63825Y26860D01*
X63825Y26860D01*
X63825Y26860D01*
X61032Y24068D01*
X60858Y23807D01*
X60797Y23500D01*
Y15000D01*
X60797Y15000D01*
X60858Y14693D01*
X61032Y14432D01*
X63832Y11632D01*
X64093Y11458D01*
X64400Y11397D01*
X107068D01*
X111932Y6532D01*
X112193Y6358D01*
X112500Y6297D01*
X117385D01*
X117536Y6327D01*
X117687Y6356D01*
X117690Y6358D01*
X117692Y6358D01*
X117821Y6444D01*
X117949Y6528D01*
X120298Y8846D01*
X120299Y8848D01*
X120302Y8850D01*
X120388Y8978D01*
X120474Y9105D01*
X120474Y9108D01*
X120476Y9110D01*
X120506Y9260D01*
X120537Y9412D01*
X120536Y9415D01*
X120537Y9418D01*
X120537Y21400D01*
Y23498D01*
X120537Y23498D01*
X120476Y23805D01*
X120428Y23877D01*
X122578Y26028D01*
X122939Y26568D01*
X123066Y27206D01*
Y44200D01*
X122939Y44837D01*
X122578Y45378D01*
X122023Y45933D01*
X122214Y46395D01*
X127213D01*
X127750Y46502D01*
X128206Y46806D01*
X128898Y47498D01*
X129203Y47954D01*
X129310Y48492D01*
Y51595D01*
X132195D01*
X132256Y51366D01*
X132813Y50401D01*
X133601Y49613D01*
X134566Y49056D01*
X135643Y48768D01*
X136757D01*
X137834Y49056D01*
X138799Y49613D01*
X139587Y50401D01*
X140144Y51366D01*
X140432Y52443D01*
Y53557D01*
X140144Y54634D01*
X139587Y55599D01*
X138799Y56387D01*
X137834Y56944D01*
X136757Y57232D01*
X135643D01*
X134566Y56944D01*
X133601Y56387D01*
X132813Y55599D01*
X132256Y54634D01*
X132195Y54405D01*
X128596D01*
X128059Y54298D01*
X127603Y53993D01*
X126911Y53302D01*
X126607Y52846D01*
X126500Y52308D01*
Y49205D01*
X121792D01*
Y56610D01*
X121792Y56610D01*
X121792D01*
X122007Y57020D01*
X126582Y61595D01*
X132195D01*
X132256Y61366D01*
X132813Y60401D01*
X133601Y59613D01*
X134566Y59056D01*
X135643Y58768D01*
X136757D01*
X137834Y59056D01*
X138799Y59613D01*
X139587Y60401D01*
X140144Y61366D01*
X140432Y62443D01*
Y63557D01*
X140144Y64634D01*
X139587Y65599D01*
X138799Y66387D01*
X137834Y66944D01*
X136757Y67232D01*
X135643D01*
X134566Y66944D01*
X133601Y66387D01*
X132813Y65599D01*
X132256Y64634D01*
X132195Y64405D01*
X127173D01*
X126981Y64867D01*
X129594Y67479D01*
X129898Y67935D01*
X130005Y68472D01*
Y76664D01*
X136983Y83642D01*
X177371D01*
X190907Y70107D01*
X191362Y69802D01*
X191900Y69695D01*
X204804D01*
X204815Y69656D01*
X205307Y68804D01*
X206003Y68107D01*
X206856Y67615D01*
X207808Y67360D01*
X208792D01*
X209744Y67615D01*
X210596Y68107D01*
X211293Y68804D01*
X211608Y69349D01*
X220311D01*
X220422Y69156D01*
X221045Y68533D01*
X221808Y68093D01*
X222659Y67865D01*
X223541D01*
X224392Y68093D01*
X225155Y68533D01*
X225778Y69156D01*
X225921Y69405D01*
X231587D01*
X231863Y69129D01*
Y68045D01*
X232172Y66891D01*
X232769Y65856D01*
X233614Y65012D01*
X234649Y64414D01*
X235803Y64105D01*
X236997D01*
X238151Y64414D01*
X239186Y65012D01*
X240031Y65856D01*
X240628Y66891D01*
X240937Y68045D01*
Y69240D01*
X240628Y70394D01*
X240031Y71429D01*
X239186Y72273D01*
X238151Y72871D01*
X236997Y73180D01*
X235803D01*
X234649Y72871D01*
X233749Y72351D01*
X233612Y72488D01*
X233026Y72880D01*
X232335Y73017D01*
X225921D01*
X225778Y73266D01*
X225155Y73889D01*
X224392Y74329D01*
X223541Y74558D01*
X222659D01*
X221808Y74329D01*
X221045Y73889D01*
X220422Y73266D01*
X220247Y72962D01*
X211544D01*
X211293Y73396D01*
X210596Y74093D01*
X210106Y74376D01*
Y76847D01*
X210318Y76969D01*
X210931Y77582D01*
X211363Y78331D01*
X211587Y79167D01*
Y80033D01*
X211363Y80869D01*
X210931Y81618D01*
X210318Y82231D01*
X209569Y82663D01*
X208733Y82887D01*
X207867D01*
X207031Y82663D01*
X206281Y82231D01*
X205669Y81618D01*
X205237Y80869D01*
X205013Y80033D01*
Y79167D01*
X205237Y78331D01*
X205669Y77582D01*
X206281Y76969D01*
X206494Y76847D01*
Y74376D01*
X206003Y74093D01*
X205307Y73396D01*
X204815Y72544D01*
X204804Y72505D01*
X192482D01*
X179838Y85149D01*
X180030Y85611D01*
X392203D01*
X393554Y84259D01*
Y83596D01*
X393515Y83585D01*
X392663Y83093D01*
X391966Y82397D01*
X391474Y81544D01*
X391219Y80592D01*
Y79608D01*
X391474Y78656D01*
X391966Y77803D01*
X392663Y77107D01*
X393515Y76615D01*
X393554Y76604D01*
Y75423D01*
X392633Y74501D01*
X392603Y74518D01*
X391752Y74747D01*
X390870D01*
X390019Y74518D01*
X389256Y74078D01*
X388633Y73455D01*
X388193Y72692D01*
X387965Y71841D01*
Y70959D01*
X388193Y70108D01*
X388633Y69345D01*
X389256Y68722D01*
X390019Y68282D01*
X390870Y68054D01*
X391752D01*
X392603Y68282D01*
X393366Y68722D01*
X393989Y69345D01*
X394429Y70108D01*
X394657Y70959D01*
Y71841D01*
X394507Y72402D01*
X395953Y73848D01*
X396257Y74303D01*
X396364Y74841D01*
Y76604D01*
X396403Y76615D01*
X397256Y77107D01*
X397952Y77803D01*
X398444Y78656D01*
X398699Y79608D01*
Y80592D01*
X398444Y81544D01*
X397952Y82397D01*
X397256Y83093D01*
X396403Y83585D01*
X396364Y83596D01*
Y84841D01*
X396257Y85379D01*
X395953Y85834D01*
X394611Y87176D01*
X394802Y87638D01*
X395443D01*
X395981Y87745D01*
X396437Y88050D01*
X411393Y103006D01*
X411698Y103462D01*
X411805Y104000D01*
Y122037D01*
X412151Y122129D01*
X413186Y122727D01*
X414031Y123572D01*
X414283Y124008D01*
X414796Y124050D01*
X415431Y123414D01*
X416017Y123023D01*
X416708Y122885D01*
X418058D01*
X418082Y122797D01*
X418522Y122034D01*
X419145Y121411D01*
X419908Y120971D01*
X420759Y120742D01*
X421641D01*
X422492Y120971D01*
X423255Y121411D01*
X423878Y122034D01*
X424318Y122797D01*
X424546Y123648D01*
Y124530D01*
X424318Y125381D01*
X423878Y126144D01*
X423255Y126767D01*
X422492Y127207D01*
X421641Y127435D01*
X420759D01*
X419908Y127207D01*
X419145Y126767D01*
X418876Y126498D01*
X417457D01*
X416770Y127185D01*
X416184Y127576D01*
X415492Y127714D01*
X414734D01*
X414628Y128109D01*
X414031Y129144D01*
X413186Y129988D01*
X412206Y130554D01*
Y132452D01*
X417477Y137723D01*
X417869Y138309D01*
X418006Y139000D01*
Y152800D01*
X417869Y153491D01*
X417477Y154077D01*
X412094Y159461D01*
X412240Y160008D01*
Y160620D01*
X412814Y161194D01*
X416747D01*
X416869Y160982D01*
X417482Y160369D01*
X418231Y159937D01*
X419067Y159713D01*
X419933D01*
X420769Y159937D01*
X421519Y160369D01*
X422131Y160982D01*
X422563Y161731D01*
X422787Y162567D01*
Y163433D01*
X422563Y164269D01*
X422131Y165018D01*
X421519Y165631D01*
X420769Y166063D01*
X419933Y166287D01*
D02*
G37*
G36*
X261892Y170740D02*
X260908D01*
X259956Y170485D01*
X259103Y169993D01*
X258407Y169297D01*
X257915Y168444D01*
X257660Y167492D01*
Y166508D01*
X257915Y165556D01*
X258407Y164704D01*
X259103Y164007D01*
X259956Y163515D01*
X260908Y163260D01*
X261892D01*
X262844Y163515D01*
X263697Y164007D01*
X264393Y164704D01*
X264885Y165556D01*
X265140Y166508D01*
Y167492D01*
X264885Y168444D01*
X264393Y169297D01*
X263697Y169993D01*
X262844Y170485D01*
X261892Y170740D01*
D02*
G37*
G36*
X281504Y174903D02*
X231296D01*
X230605Y174765D01*
X230019Y174374D01*
X228863Y173217D01*
X228471Y172631D01*
X228334Y171940D01*
Y170719D01*
X227781Y170609D01*
X227032Y170108D01*
X226531Y169360D01*
X226356Y168476D01*
Y165524D01*
X226531Y164640D01*
X227032Y163891D01*
X227781Y163391D01*
X228334Y163281D01*
Y160276D01*
X227844Y159993D01*
X227147Y159297D01*
X226655Y158444D01*
X226400Y157492D01*
Y156508D01*
X226655Y155556D01*
X227147Y154703D01*
X227844Y154007D01*
X228696Y153515D01*
X229648Y153260D01*
X230633D01*
X231584Y153515D01*
X232437Y154007D01*
X233133Y154703D01*
X233625Y155556D01*
X233880Y156508D01*
Y157492D01*
X233625Y158444D01*
X233133Y159297D01*
X232437Y159993D01*
X231946Y160276D01*
Y163281D01*
X232500Y163391D01*
X233249Y163891D01*
X233749Y164640D01*
X233925Y165524D01*
Y168476D01*
X233749Y169360D01*
X233249Y170108D01*
X232500Y170609D01*
X231946Y170719D01*
Y171192D01*
X232045Y171290D01*
X280755D01*
X280994Y171052D01*
Y168643D01*
X280745Y168500D01*
X280122Y167877D01*
X279682Y167114D01*
X279453Y166263D01*
Y165382D01*
X279682Y164530D01*
X280122Y163767D01*
X280745Y163144D01*
X281508Y162704D01*
X282359Y162476D01*
X283241D01*
X284092Y162704D01*
X284855Y163144D01*
X285478Y163767D01*
X285918Y164530D01*
X286146Y165382D01*
Y166263D01*
X285918Y167114D01*
X285478Y167877D01*
X284855Y168500D01*
X284606Y168643D01*
Y171800D01*
X284469Y172491D01*
X284077Y173077D01*
X282781Y174374D01*
X282195Y174765D01*
X281504Y174903D01*
D02*
G37*
G36*
X327041Y167558D02*
X326159D01*
X325308Y167329D01*
X324545Y166889D01*
X323922Y166266D01*
X323482Y165503D01*
X323253Y164652D01*
Y163770D01*
X323482Y162919D01*
X323922Y162156D01*
X324545Y161533D01*
X325308Y161093D01*
X326159Y160865D01*
X327041D01*
X327892Y161093D01*
X328655Y161533D01*
X329278Y162156D01*
X329718Y162919D01*
X329946Y163770D01*
Y164652D01*
X329718Y165503D01*
X329278Y166266D01*
X328655Y166889D01*
X327892Y167329D01*
X327041Y167558D01*
D02*
G37*
G36*
X261892Y160740D02*
X260908D01*
X259956Y160485D01*
X259103Y159993D01*
X258407Y159297D01*
X257915Y158444D01*
X257660Y157492D01*
Y156508D01*
X257915Y155556D01*
X258407Y154703D01*
X259103Y154007D01*
X259956Y153515D01*
X260908Y153260D01*
X261892D01*
X262844Y153515D01*
X263697Y154007D01*
X264393Y154703D01*
X264885Y155556D01*
X265140Y156508D01*
Y157492D01*
X264885Y158444D01*
X264393Y159297D01*
X263697Y159993D01*
X262844Y160485D01*
X261892Y160740D01*
D02*
G37*
G36*
X101804Y165966D02*
X95996D01*
X95440Y165855D01*
X94968Y165540D01*
X94652Y165068D01*
X94541Y164511D01*
Y160672D01*
X94652Y160115D01*
X94968Y159643D01*
X95440Y159328D01*
X95996Y159217D01*
X97071D01*
Y154907D01*
X96921Y154820D01*
X96335Y154234D01*
X95920Y153516D01*
X95705Y152715D01*
Y151885D01*
X95920Y151084D01*
X96335Y150366D01*
X96921Y149780D01*
X97639Y149365D01*
X98440Y149150D01*
X99270D01*
X100071Y149365D01*
X100789Y149780D01*
X101375Y150366D01*
X101790Y151084D01*
X102005Y151885D01*
Y152715D01*
X101790Y153516D01*
X101375Y154234D01*
X100789Y154820D01*
X100684Y154881D01*
Y159217D01*
X101804D01*
X102360Y159328D01*
X102832Y159643D01*
X103148Y160115D01*
X103259Y160672D01*
Y164511D01*
X103148Y165068D01*
X102832Y165540D01*
X102360Y165855D01*
X101804Y165966D01*
D02*
G37*
G36*
X91803Y166074D02*
X85997D01*
X85440Y165964D01*
X84967Y165648D01*
X84652Y165176D01*
X84541Y164619D01*
Y160781D01*
X84652Y160224D01*
X84967Y159752D01*
X85440Y159436D01*
X85997Y159326D01*
X87150D01*
Y154861D01*
X87079Y154820D01*
X86492Y154234D01*
X86078Y153516D01*
X85863Y152715D01*
Y151885D01*
X86078Y151084D01*
X86492Y150366D01*
X87079Y149780D01*
X87797Y149365D01*
X88598Y149150D01*
X89427D01*
X90228Y149365D01*
X90947Y149780D01*
X91533Y150366D01*
X91948Y151084D01*
X92162Y151885D01*
Y152715D01*
X91948Y153516D01*
X91533Y154234D01*
X90947Y154820D01*
X90763Y154926D01*
Y159326D01*
X91803D01*
X92360Y159436D01*
X92832Y159752D01*
X93148Y160224D01*
X93259Y160781D01*
Y164619D01*
X93148Y165176D01*
X92832Y165648D01*
X92360Y165964D01*
X91803Y166074D01*
D02*
G37*
G36*
X82104Y165966D02*
X76297D01*
X75740Y165855D01*
X75267Y165540D01*
X74952Y165068D01*
X74841Y164511D01*
Y160672D01*
X74952Y160115D01*
X75267Y159643D01*
X75740Y159328D01*
X76297Y159217D01*
X77379D01*
Y154903D01*
X77236Y154820D01*
X76650Y154234D01*
X76235Y153516D01*
X76020Y152715D01*
Y151885D01*
X76235Y151084D01*
X76650Y150366D01*
X77236Y149780D01*
X77954Y149365D01*
X78755Y149150D01*
X79585D01*
X80386Y149365D01*
X81104Y149780D01*
X81690Y150366D01*
X82105Y151084D01*
X82320Y151885D01*
Y152715D01*
X82105Y153516D01*
X81690Y154234D01*
X81104Y154820D01*
X80991Y154885D01*
Y159217D01*
X82104D01*
X82660Y159328D01*
X83132Y159643D01*
X83448Y160115D01*
X83559Y160672D01*
Y164511D01*
X83448Y165068D01*
X83132Y165540D01*
X82660Y165855D01*
X82104Y165966D01*
D02*
G37*
G36*
X72303D02*
X66496D01*
X65940Y165855D01*
X65468Y165540D01*
X65152Y165068D01*
X65041Y164511D01*
Y160672D01*
X65152Y160115D01*
X65468Y159643D01*
X65940Y159328D01*
X66496Y159217D01*
X67557D01*
Y154915D01*
X67394Y154820D01*
X66807Y154234D01*
X66393Y153516D01*
X66178Y152715D01*
Y151885D01*
X66393Y151084D01*
X66807Y150366D01*
X67394Y149780D01*
X68112Y149365D01*
X68913Y149150D01*
X69742D01*
X70543Y149365D01*
X71262Y149780D01*
X71848Y150366D01*
X72263Y151084D01*
X72477Y151885D01*
Y152715D01*
X72263Y153516D01*
X71848Y154234D01*
X71262Y154820D01*
X71170Y154873D01*
Y159217D01*
X72303D01*
X72860Y159328D01*
X73333Y159643D01*
X73648Y160115D01*
X73759Y160672D01*
Y164511D01*
X73648Y165068D01*
X73333Y165540D01*
X72860Y165855D01*
X72303Y165966D01*
D02*
G37*
G36*
X62404D02*
X56596D01*
X56040Y165855D01*
X55568Y165540D01*
X55252Y165068D01*
X55141Y164511D01*
Y160672D01*
X55252Y160115D01*
X55568Y159643D01*
X56040Y159328D01*
X56596Y159217D01*
X57686D01*
Y154898D01*
X57551Y154820D01*
X56965Y154234D01*
X56550Y153516D01*
X56335Y152715D01*
Y151885D01*
X56550Y151084D01*
X56965Y150366D01*
X57551Y149780D01*
X58269Y149365D01*
X59070Y149150D01*
X59900D01*
X60701Y149365D01*
X61419Y149780D01*
X62005Y150366D01*
X62420Y151084D01*
X62635Y151885D01*
Y152715D01*
X62420Y153516D01*
X62005Y154234D01*
X61419Y154820D01*
X61299Y154890D01*
Y159217D01*
X62404D01*
X62960Y159328D01*
X63433Y159643D01*
X63748Y160115D01*
X63859Y160672D01*
Y164511D01*
X63748Y165068D01*
X63433Y165540D01*
X62960Y165855D01*
X62404Y165966D01*
D02*
G37*
G36*
X52504D02*
X46696D01*
X46140Y165855D01*
X45667Y165540D01*
X45352Y165068D01*
X45241Y164511D01*
Y160672D01*
X45352Y160115D01*
X45667Y159643D01*
X46140Y159328D01*
X46696Y159217D01*
X47815D01*
Y154882D01*
X47709Y154820D01*
X47122Y154234D01*
X46708Y153516D01*
X46493Y152715D01*
Y151885D01*
X46708Y151084D01*
X47122Y150366D01*
X47709Y149780D01*
X48427Y149365D01*
X49228Y149150D01*
X50057D01*
X50858Y149365D01*
X51576Y149780D01*
X52163Y150366D01*
X52578Y151084D01*
X52792Y151885D01*
Y152715D01*
X52578Y153516D01*
X52163Y154234D01*
X51576Y154820D01*
X51428Y154906D01*
Y159217D01*
X52504D01*
X53060Y159328D01*
X53532Y159643D01*
X53848Y160115D01*
X53959Y160672D01*
Y164511D01*
X53848Y165068D01*
X53532Y165540D01*
X53060Y165855D01*
X52504Y165966D01*
D02*
G37*
G36*
X42799Y166020D02*
X36992D01*
X36436Y165910D01*
X35963Y165594D01*
X35648Y165122D01*
X35537Y164565D01*
Y160727D01*
X35648Y160170D01*
X35963Y159698D01*
X36436Y159382D01*
X36992Y159272D01*
X37944D01*
Y154865D01*
X37866Y154820D01*
X37280Y154234D01*
X36865Y153516D01*
X36650Y152715D01*
Y151885D01*
X36865Y151084D01*
X37280Y150366D01*
X37866Y149780D01*
X38584Y149365D01*
X39385Y149150D01*
X40215D01*
X41016Y149365D01*
X41734Y149780D01*
X42320Y150366D01*
X42735Y151084D01*
X42950Y151885D01*
Y152715D01*
X42735Y153516D01*
X42320Y154234D01*
X41734Y154820D01*
X41556Y154923D01*
Y159272D01*
X42799D01*
X43356Y159382D01*
X43828Y159698D01*
X44144Y160170D01*
X44255Y160727D01*
Y164565D01*
X44144Y165122D01*
X43828Y165594D01*
X43356Y165910D01*
X42799Y166020D01*
D02*
G37*
G36*
X33038Y166141D02*
X27231D01*
X26674Y166030D01*
X26202Y165715D01*
X25886Y165243D01*
X25776Y164686D01*
Y160847D01*
X25886Y160291D01*
X26202Y159818D01*
X26674Y159503D01*
X27231Y159392D01*
X28197D01*
Y154921D01*
X28024Y154820D01*
X27437Y154234D01*
X27022Y153516D01*
X26808Y152715D01*
Y151885D01*
X27022Y151084D01*
X27437Y150366D01*
X28024Y149780D01*
X28742Y149365D01*
X29543Y149150D01*
X30372D01*
X31173Y149365D01*
X31891Y149780D01*
X32478Y150366D01*
X32892Y151084D01*
X33107Y151885D01*
Y152715D01*
X32892Y153516D01*
X32478Y154234D01*
X31891Y154820D01*
X31810Y154867D01*
Y159392D01*
X33038D01*
X33595Y159503D01*
X34067Y159818D01*
X34382Y160291D01*
X34493Y160847D01*
Y164686D01*
X34382Y165243D01*
X34067Y165715D01*
X33595Y166030D01*
X33038Y166141D01*
D02*
G37*
G36*
X23115D02*
X17308D01*
X16751Y166030D01*
X16279Y165715D01*
X15964Y165243D01*
X15853Y164686D01*
Y160847D01*
X15964Y160291D01*
X16279Y159818D01*
X16751Y159503D01*
X17308Y159392D01*
X18351D01*
Y154919D01*
X18181Y154820D01*
X17595Y154234D01*
X17180Y153516D01*
X16965Y152715D01*
Y151885D01*
X17180Y151084D01*
X17595Y150366D01*
X18181Y149780D01*
X18899Y149365D01*
X19700Y149150D01*
X20530D01*
X21331Y149365D01*
X22049Y149780D01*
X22635Y150366D01*
X23050Y151084D01*
X23265Y151885D01*
Y152715D01*
X23050Y153516D01*
X22635Y154234D01*
X22049Y154820D01*
X21964Y154869D01*
Y159392D01*
X23115D01*
X23672Y159503D01*
X24144Y159818D01*
X24459Y160291D01*
X24570Y160847D01*
Y164686D01*
X24459Y165243D01*
X24144Y165715D01*
X23672Y166030D01*
X23115Y166141D01*
D02*
G37*
G36*
X13003Y166074D02*
X7197D01*
X6640Y165964D01*
X6168Y165648D01*
X5852Y165176D01*
X5741Y164619D01*
Y160781D01*
X5852Y160224D01*
X6168Y159752D01*
X6640Y159436D01*
X7197Y159326D01*
X8380D01*
Y154844D01*
X8338Y154820D01*
X7752Y154234D01*
X7338Y153516D01*
X7123Y152715D01*
Y151885D01*
X7338Y151084D01*
X7752Y150366D01*
X8338Y149780D01*
X9057Y149365D01*
X9858Y149150D01*
X10687D01*
X11488Y149365D01*
X12206Y149780D01*
X12793Y150366D01*
X13207Y151084D01*
X13422Y151885D01*
Y152715D01*
X13207Y153516D01*
X12793Y154234D01*
X12206Y154820D01*
X11993Y154944D01*
Y159326D01*
X13003D01*
X13560Y159436D01*
X14032Y159752D01*
X14348Y160224D01*
X14459Y160781D01*
Y164619D01*
X14348Y165176D01*
X14032Y165648D01*
X13560Y165964D01*
X13003Y166074D01*
D02*
G37*
G36*
X400318Y151437D02*
X399282D01*
X398280Y151169D01*
X397383Y150650D01*
X396650Y149917D01*
X396131Y149020D01*
X395863Y148018D01*
Y146982D01*
X396131Y145980D01*
X396650Y145083D01*
X397383Y144350D01*
X398280Y143831D01*
X399282Y143563D01*
X400318D01*
X401320Y143831D01*
X402217Y144350D01*
X402950Y145083D01*
X403469Y145980D01*
X403737Y146982D01*
Y148018D01*
X403469Y149020D01*
X402950Y149917D01*
X402217Y150650D01*
X401320Y151169D01*
X400318Y151437D01*
D02*
G37*
G36*
X261892Y150740D02*
X260908D01*
X259956Y150485D01*
X259103Y149993D01*
X258407Y149296D01*
X257915Y148444D01*
X257660Y147492D01*
Y146508D01*
X257915Y145556D01*
X258407Y144703D01*
X259103Y144007D01*
X259956Y143515D01*
X260908Y143260D01*
X261892D01*
X262844Y143515D01*
X263697Y144007D01*
X264393Y144703D01*
X264885Y145556D01*
X265140Y146508D01*
Y147492D01*
X264885Y148444D01*
X264393Y149296D01*
X263697Y149993D01*
X262844Y150485D01*
X261892Y150740D01*
D02*
G37*
G36*
X183159Y171793D02*
X181841D01*
X180548Y171536D01*
X179330Y171031D01*
X178234Y170299D01*
X177301Y169367D01*
X176569Y168270D01*
X176064Y167052D01*
X175807Y165759D01*
Y164441D01*
X176064Y163148D01*
X176569Y161930D01*
X177301Y160834D01*
X178234Y159901D01*
X179330Y159169D01*
X180548Y158664D01*
X181841Y158407D01*
X183159D01*
X184452Y158664D01*
X185670Y159169D01*
X185794Y159251D01*
X187823Y157223D01*
X188409Y156831D01*
X189100Y156694D01*
X215752D01*
X218194Y154252D01*
Y148921D01*
X217945Y148778D01*
X217322Y148155D01*
X216882Y147392D01*
X216653Y146541D01*
Y145659D01*
X216882Y144808D01*
X217322Y144045D01*
X217945Y143422D01*
X218389Y143166D01*
X218255Y142666D01*
X214379D01*
X211830Y145215D01*
X211947Y145648D01*
Y146529D01*
X211718Y147381D01*
X211278Y148144D01*
X210655Y148767D01*
X209892Y149207D01*
X209041Y149435D01*
X208159D01*
X207308Y149207D01*
X206545Y148767D01*
X205922Y148144D01*
X205482Y147381D01*
X205254Y146529D01*
Y145648D01*
X205482Y144797D01*
X205922Y144034D01*
X206545Y143411D01*
X207308Y142971D01*
X208159Y142743D01*
X209041D01*
X209474Y142859D01*
X212511Y139822D01*
X213052Y139461D01*
X213689Y139334D01*
X217586D01*
X217680Y138834D01*
X217122Y138277D01*
X216682Y137514D01*
X216454Y136663D01*
Y135782D01*
X216682Y134930D01*
X217122Y134167D01*
X217745Y133544D01*
X218508Y133104D01*
X219359Y132876D01*
X220241D01*
X220518Y132950D01*
X222469Y130998D01*
X223055Y130607D01*
X223746Y130469D01*
X227716D01*
X227810Y130118D01*
X227820Y129969D01*
X227147Y129297D01*
X226864Y128806D01*
X217001D01*
X215806Y130001D01*
Y134500D01*
X215669Y135191D01*
X215277Y135777D01*
X213677Y137377D01*
X213091Y137769D01*
X212400Y137906D01*
X211828D01*
X211678Y138166D01*
X211055Y138789D01*
X210292Y139229D01*
X209441Y139457D01*
X208559D01*
X207708Y139229D01*
X206945Y138789D01*
X206322Y138166D01*
X206245Y138033D01*
X205027D01*
X204335Y137895D01*
X203749Y137504D01*
X202223Y135977D01*
X201831Y135391D01*
X201694Y134700D01*
Y123648D01*
X200852Y122806D01*
X172528D01*
X172383Y123058D01*
X171758Y123683D01*
X170994Y124124D01*
X170141Y124352D01*
X169259D01*
X168406Y124124D01*
X167642Y123683D01*
X167017Y123058D01*
X166576Y122294D01*
X166348Y121441D01*
Y120559D01*
X166576Y119706D01*
X167017Y118942D01*
X167642Y118317D01*
X168406Y117876D01*
X169259Y117648D01*
X170141D01*
X170994Y117876D01*
X171758Y118317D01*
X172383Y118942D01*
X172528Y119194D01*
X201600D01*
X202291Y119331D01*
X202877Y119723D01*
X204777Y121623D01*
X205169Y122209D01*
X205306Y122900D01*
Y133952D01*
X205661Y134307D01*
X206207Y134256D01*
X206322Y134056D01*
X206945Y133433D01*
X207708Y132993D01*
X208559Y132765D01*
X209441D01*
X210292Y132993D01*
X211055Y133433D01*
X211678Y134056D01*
X211828Y134076D01*
X212194Y133737D01*
Y129253D01*
X212331Y128562D01*
X212723Y127976D01*
X214976Y125723D01*
X215562Y125331D01*
X216253Y125194D01*
X226864D01*
X227147Y124704D01*
X227844Y124007D01*
X228696Y123515D01*
X229648Y123260D01*
X230633D01*
X231584Y123515D01*
X232437Y124007D01*
X233133Y124704D01*
X233625Y125556D01*
X233880Y126508D01*
Y127492D01*
X233625Y128444D01*
X233133Y129297D01*
X232460Y129969D01*
X232470Y130118D01*
X232564Y130469D01*
X241676D01*
X243594Y128552D01*
Y118600D01*
X243731Y117909D01*
X244123Y117323D01*
X245723Y115723D01*
X246309Y115331D01*
X247000Y115194D01*
X258124D01*
X258407Y114704D01*
X259103Y114007D01*
X259956Y113515D01*
X260908Y113260D01*
X261892D01*
X262844Y113515D01*
X263697Y114007D01*
X264393Y114704D01*
X264676Y115194D01*
X267800D01*
X268491Y115331D01*
X269077Y115723D01*
X272377Y119023D01*
X272769Y119609D01*
X272906Y120300D01*
Y129890D01*
X273155Y130033D01*
X273778Y130656D01*
X274218Y131419D01*
X274447Y132271D01*
Y133152D01*
X274218Y134003D01*
X273778Y134766D01*
X273155Y135389D01*
X272392Y135829D01*
X271541Y136057D01*
X270659D01*
X269808Y135829D01*
X269045Y135389D01*
X268863Y135206D01*
X268363Y135413D01*
Y139498D01*
X268863Y139705D01*
X269045Y139522D01*
X269808Y139082D01*
X270659Y138854D01*
X271541D01*
X272392Y139082D01*
X273155Y139522D01*
X273778Y140145D01*
X273921Y140394D01*
X279979D01*
X280122Y140145D01*
X280745Y139522D01*
X281508Y139082D01*
X282359Y138854D01*
X283241D01*
X284092Y139082D01*
X284855Y139522D01*
X285478Y140145D01*
X285918Y140908D01*
X286146Y141759D01*
Y142641D01*
X285918Y143492D01*
X285478Y144255D01*
X284855Y144878D01*
X284092Y145318D01*
X283241Y145546D01*
X282359D01*
X281508Y145318D01*
X280745Y144878D01*
X280122Y144255D01*
X279979Y144006D01*
X273921D01*
X273778Y144255D01*
X273155Y144878D01*
X272392Y145318D01*
X271541Y145546D01*
X270659D01*
X269808Y145318D01*
X269045Y144878D01*
X268422Y144255D01*
X267984Y143495D01*
X267709D01*
X267018Y143358D01*
X266432Y142966D01*
X265279Y141813D01*
X264887Y141227D01*
X264750Y140536D01*
Y129642D01*
X264250Y129439D01*
X263697Y129993D01*
X262844Y130485D01*
X261892Y130740D01*
X260908D01*
X259956Y130485D01*
X259103Y129993D01*
X258407Y129297D01*
X257915Y128444D01*
X257660Y127492D01*
Y126508D01*
X257915Y125556D01*
X258407Y124704D01*
X259103Y124007D01*
X259956Y123515D01*
X260908Y123260D01*
X261892D01*
X262844Y123515D01*
X263697Y124007D01*
X264393Y124704D01*
X264885Y125556D01*
X264898Y125605D01*
X265403D01*
X266094Y125743D01*
X266680Y126134D01*
X267833Y127287D01*
X268225Y127873D01*
X268363Y128565D01*
Y130009D01*
X268863Y130216D01*
X269045Y130033D01*
X269294Y129890D01*
Y121048D01*
X267052Y118806D01*
X264676D01*
X264393Y119297D01*
X263697Y119993D01*
X262844Y120485D01*
X261892Y120740D01*
X260908D01*
X259956Y120485D01*
X259103Y119993D01*
X258407Y119297D01*
X258124Y118806D01*
X247748D01*
X247206Y119348D01*
Y129300D01*
X247069Y129991D01*
X246677Y130577D01*
X243702Y133553D01*
X243116Y133944D01*
X242424Y134082D01*
X233165D01*
X232973Y134544D01*
X233133Y134704D01*
X233625Y135556D01*
X233880Y136508D01*
Y137492D01*
X233625Y138444D01*
X233133Y139296D01*
X232437Y139993D01*
X231584Y140485D01*
X230633Y140740D01*
X229648D01*
X228944Y140552D01*
X227318Y142178D01*
X226778Y142539D01*
X226140Y142666D01*
X221745D01*
X221611Y143166D01*
X222055Y143422D01*
X222678Y144045D01*
X222827Y144304D01*
X223848D01*
X224042Y144342D01*
X224610D01*
X225301Y144480D01*
X225887Y144871D01*
X226324Y145309D01*
X226819Y145272D01*
X227147Y144703D01*
X227844Y144007D01*
X228696Y143515D01*
X229648Y143260D01*
X230633D01*
X231584Y143515D01*
X232437Y144007D01*
X233133Y144703D01*
X233625Y145556D01*
X233880Y146508D01*
Y147492D01*
X233625Y148444D01*
X233133Y149296D01*
X232437Y149993D01*
X231584Y150485D01*
X230633Y150740D01*
X229648D01*
X228696Y150485D01*
X227844Y149993D01*
X227147Y149296D01*
X226941Y148939D01*
X225593D01*
X224902Y148801D01*
X224316Y148409D01*
X223855Y147949D01*
X223692Y147916D01*
X222815D01*
X222678Y148155D01*
X222055Y148778D01*
X221806Y148921D01*
Y155000D01*
X221669Y155691D01*
X221277Y156277D01*
X217777Y159777D01*
X217191Y160169D01*
X216500Y160306D01*
X189848D01*
X188348Y161806D01*
X188431Y161930D01*
X188936Y163148D01*
X189193Y164441D01*
Y165759D01*
X188936Y167052D01*
X188431Y168270D01*
X187699Y169367D01*
X186767Y170299D01*
X185670Y171031D01*
X184452Y171536D01*
X183159Y171793D01*
D02*
G37*
G36*
X170141Y144352D02*
X169259D01*
X168406Y144124D01*
X167642Y143683D01*
X167017Y143058D01*
X166576Y142294D01*
X166348Y141441D01*
Y140559D01*
X166576Y139706D01*
X167017Y138942D01*
X167642Y138317D01*
X168406Y137876D01*
X169259Y137648D01*
X170141D01*
X170994Y137876D01*
X171758Y138317D01*
X172383Y138942D01*
X172824Y139706D01*
X173052Y140559D01*
Y141441D01*
X172824Y142294D01*
X172383Y143058D01*
X171758Y143683D01*
X170994Y144124D01*
X170141Y144352D01*
D02*
G37*
G36*
X327041Y143935D02*
X326159D01*
X325308Y143707D01*
X324545Y143267D01*
X323922Y142644D01*
X323482Y141881D01*
X323458Y141793D01*
X321186D01*
X320495Y141655D01*
X319909Y141264D01*
X314223Y135577D01*
X313831Y134991D01*
X313694Y134300D01*
Y130854D01*
X312714Y130288D01*
X311869Y129444D01*
X311272Y128409D01*
X310963Y127255D01*
Y126060D01*
X311272Y124906D01*
X311869Y123872D01*
X312714Y123027D01*
X313749Y122429D01*
X314903Y122120D01*
X316097D01*
X317251Y122429D01*
X318286Y123027D01*
X319131Y123872D01*
X319218Y124023D01*
X319771Y124075D01*
X324694Y119152D01*
Y112810D01*
X324445Y112667D01*
X323822Y112044D01*
X323382Y111281D01*
X323153Y110430D01*
Y109548D01*
X323382Y108697D01*
X323822Y107934D01*
X324445Y107311D01*
X324778Y107119D01*
Y106216D01*
X324916Y105524D01*
X325307Y104938D01*
X327223Y103023D01*
X327809Y102631D01*
X328500Y102494D01*
X362100D01*
X362791Y102631D01*
X363377Y103023D01*
X365577Y105223D01*
X365969Y105809D01*
X366106Y106500D01*
Y123952D01*
X367282Y125128D01*
X367850Y125083D01*
X368583Y124350D01*
X369480Y123831D01*
X370482Y123563D01*
X371518D01*
X372520Y123831D01*
X373417Y124350D01*
X374150Y125083D01*
X374669Y125980D01*
X374937Y126982D01*
Y128018D01*
X374669Y129020D01*
X374150Y129917D01*
X373417Y130650D01*
X372520Y131169D01*
X371518Y131437D01*
X370482D01*
X369480Y131169D01*
X368583Y130650D01*
X367850Y129917D01*
X367331Y129020D01*
X367302Y128910D01*
X366704D01*
X366012Y128772D01*
X365426Y128381D01*
X363023Y125977D01*
X362631Y125391D01*
X362494Y124700D01*
Y107248D01*
X361352Y106106D01*
X329248D01*
X328579Y106775D01*
X328555Y107311D01*
X329178Y107934D01*
X329618Y108697D01*
X329847Y109548D01*
Y110430D01*
X329618Y111281D01*
X329178Y112044D01*
X328555Y112667D01*
X328306Y112810D01*
Y119900D01*
X328169Y120591D01*
X327777Y121177D01*
X321670Y127285D01*
X321084Y127676D01*
X320392Y127814D01*
X319888D01*
X319728Y128409D01*
X319131Y129444D01*
X318286Y130288D01*
X317306Y130854D01*
Y133552D01*
X321935Y138180D01*
X324276D01*
X324545Y137911D01*
X325308Y137471D01*
X326159Y137242D01*
X327041D01*
X327892Y137471D01*
X328655Y137911D01*
X329278Y138534D01*
X329718Y139297D01*
X329946Y140148D01*
Y141030D01*
X329718Y141881D01*
X329278Y142644D01*
X328655Y143267D01*
X327892Y143707D01*
X327041Y143935D01*
D02*
G37*
G36*
X400318Y141437D02*
X399282D01*
X398280Y141169D01*
X397383Y140650D01*
X396650Y139917D01*
X396131Y139020D01*
X395863Y138018D01*
Y136982D01*
X396131Y135980D01*
X396650Y135083D01*
X397383Y134350D01*
X398280Y133831D01*
X399282Y133563D01*
X400318D01*
X401320Y133831D01*
X402217Y134350D01*
X402950Y135083D01*
X403469Y135980D01*
X403737Y136982D01*
Y138018D01*
X403469Y139020D01*
X402950Y139917D01*
X402217Y140650D01*
X401320Y141169D01*
X400318Y141437D01*
D02*
G37*
G36*
X349097Y154022D02*
X347903D01*
X346749Y153713D01*
X345714Y153116D01*
X344869Y152271D01*
X344304Y151291D01*
X338885D01*
X338194Y151154D01*
X337608Y150762D01*
X334224Y147378D01*
X333832Y146792D01*
X333694Y146101D01*
Y143468D01*
X333345Y143267D01*
X332722Y142644D01*
X332282Y141881D01*
X332053Y141030D01*
Y140148D01*
X332282Y139297D01*
X332722Y138534D01*
X333345Y137911D01*
X334108Y137471D01*
X334525Y137359D01*
Y136841D01*
X334108Y136729D01*
X333345Y136289D01*
X332722Y135666D01*
X332282Y134903D01*
X332053Y134052D01*
Y133170D01*
X332282Y132319D01*
X332722Y131556D01*
X333345Y130933D01*
X334108Y130493D01*
X334959Y130265D01*
X335841D01*
X336692Y130493D01*
X337455Y130933D01*
X338078Y131556D01*
X338518Y132319D01*
X338747Y133170D01*
Y134052D01*
X338518Y134903D01*
X338078Y135666D01*
X337455Y136289D01*
X336692Y136729D01*
X336275Y136841D01*
Y137359D01*
X336692Y137471D01*
X337455Y137911D01*
X338078Y138534D01*
X338518Y139297D01*
X338747Y140148D01*
Y141030D01*
X338518Y141881D01*
X338078Y142644D01*
X337455Y143267D01*
X337307Y143352D01*
Y145353D01*
X339633Y147679D01*
X344304D01*
X344869Y146699D01*
X345714Y145854D01*
X346749Y145257D01*
X347903Y144948D01*
X349097D01*
X350190Y145240D01*
X352394Y143037D01*
Y135257D01*
X352531Y134566D01*
X352923Y133980D01*
X355355Y131547D01*
X355063Y130455D01*
Y129260D01*
X355372Y128106D01*
X355969Y127071D01*
X356814Y126227D01*
X357849Y125629D01*
X359003Y125320D01*
X360197D01*
X361351Y125629D01*
X362386Y126227D01*
X363231Y127071D01*
X363828Y128106D01*
X364137Y129260D01*
Y130455D01*
X363845Y131547D01*
X365088Y132791D01*
X366925D01*
X367616Y132928D01*
X368202Y133320D01*
X368994Y134112D01*
X369480Y133831D01*
X370482Y133563D01*
X371518D01*
X372520Y133831D01*
X373417Y134350D01*
X374150Y135083D01*
X374669Y135980D01*
X374937Y136982D01*
Y138018D01*
X374669Y139020D01*
X374150Y139917D01*
X373417Y140650D01*
X372520Y141169D01*
X371518Y141437D01*
X370482D01*
X369480Y141169D01*
X368583Y140650D01*
X367850Y139917D01*
X367331Y139020D01*
X367063Y138018D01*
Y137290D01*
X366177Y136403D01*
X364340D01*
X363648Y136266D01*
X363062Y135874D01*
X361290Y134102D01*
X360197Y134395D01*
X359003D01*
X357910Y134102D01*
X356006Y136006D01*
Y143785D01*
X355869Y144476D01*
X355477Y145062D01*
X352745Y147795D01*
X353037Y148888D01*
Y150082D01*
X352728Y151236D01*
X352131Y152271D01*
X351286Y153116D01*
X350251Y153713D01*
X349097Y154022D01*
D02*
G37*
G36*
X400318Y131437D02*
X399282D01*
X398280Y131169D01*
X397383Y130650D01*
X396650Y129917D01*
X396131Y129020D01*
X395863Y128018D01*
Y126982D01*
X396131Y125980D01*
X396650Y125083D01*
X397383Y124350D01*
X398280Y123831D01*
X399282Y123563D01*
X400318D01*
X401320Y123831D01*
X402217Y124350D01*
X402950Y125083D01*
X403469Y125980D01*
X403737Y126982D01*
Y128018D01*
X403469Y129020D01*
X402950Y129917D01*
X402217Y130650D01*
X401320Y131169D01*
X400318Y131437D01*
D02*
G37*
G36*
X135925Y159097D02*
X131791D01*
X131046Y158999D01*
X130352Y158711D01*
X129756Y158254D01*
X129298Y157658D01*
X129010Y156963D01*
X128912Y156218D01*
Y148541D01*
X129010Y147796D01*
X129298Y147101D01*
X129756Y146505D01*
X130352Y146048D01*
X131046Y145760D01*
X131791Y145662D01*
X132052D01*
Y131538D01*
X131791D01*
X131046Y131440D01*
X130352Y131152D01*
X129756Y130695D01*
X129298Y130098D01*
X129010Y129404D01*
X128912Y128659D01*
Y121409D01*
X127831Y120328D01*
X127440Y119742D01*
X127302Y119051D01*
Y117059D01*
X127189D01*
X126632Y116948D01*
X126160Y116632D01*
X125845Y116160D01*
X125734Y115603D01*
Y109797D01*
X125845Y109240D01*
X126160Y108767D01*
X126632Y108452D01*
X127189Y108341D01*
X127302D01*
Y107559D01*
X127189D01*
X126632Y107448D01*
X126160Y107132D01*
X125845Y106660D01*
X125734Y106104D01*
Y100296D01*
X125845Y99740D01*
X126160Y99268D01*
X126632Y98952D01*
X127189Y98841D01*
X131028D01*
X131585Y98952D01*
X132057Y99268D01*
X132372Y99740D01*
X132483Y100296D01*
Y106104D01*
X132372Y106660D01*
X132057Y107132D01*
X131585Y107448D01*
X131028Y107559D01*
X130915D01*
Y108341D01*
X131028D01*
X131585Y108452D01*
X132057Y108767D01*
X132372Y109240D01*
X132483Y109797D01*
Y115603D01*
X132372Y116160D01*
X132057Y116632D01*
X131585Y116948D01*
X131028Y117059D01*
X130915D01*
Y117743D01*
X131415Y118152D01*
X131791Y118103D01*
X135925D01*
X136670Y118201D01*
X137365Y118489D01*
X137961Y118946D01*
X138418Y119542D01*
X138706Y120237D01*
X138804Y120982D01*
Y128659D01*
X138706Y129404D01*
X138418Y130098D01*
X137961Y130695D01*
X137365Y131152D01*
X136670Y131440D01*
X135925Y131538D01*
X135665D01*
Y145662D01*
X135925D01*
X136670Y145760D01*
X137365Y146048D01*
X137961Y146505D01*
X138418Y147101D01*
X138706Y147796D01*
X138804Y148541D01*
Y156218D01*
X138706Y156963D01*
X138418Y157658D01*
X137961Y158254D01*
X137365Y158711D01*
X136670Y158999D01*
X135925Y159097D01*
D02*
G37*
G36*
X230633Y120740D02*
X229648D01*
X228696Y120485D01*
X227844Y119993D01*
X227147Y119297D01*
X226655Y118444D01*
X226627Y118340D01*
X224235D01*
X223543Y118202D01*
X222957Y117810D01*
X220913Y115766D01*
X220241Y115946D01*
X219359D01*
X218508Y115718D01*
X217745Y115278D01*
X217122Y114655D01*
X216682Y113892D01*
X216454Y113041D01*
Y112159D01*
X216682Y111308D01*
X217122Y110545D01*
X217745Y109922D01*
X218508Y109482D01*
X219359Y109254D01*
X220241D01*
X221092Y109482D01*
X221855Y109922D01*
X222478Y110545D01*
X222918Y111308D01*
X223147Y112159D01*
Y112890D01*
X224983Y114727D01*
X227134D01*
X227147Y114704D01*
X227844Y114007D01*
X228334Y113724D01*
Y110276D01*
X227844Y109993D01*
X227147Y109297D01*
X226655Y108444D01*
X226400Y107492D01*
Y106508D01*
X226655Y105556D01*
X227147Y104703D01*
X227844Y104007D01*
X228696Y103515D01*
X229648Y103260D01*
X230633D01*
X231584Y103515D01*
X232437Y104007D01*
X233133Y104703D01*
X233625Y105556D01*
X233880Y106508D01*
Y107492D01*
X233625Y108444D01*
X233133Y109297D01*
X232437Y109993D01*
X231946Y110276D01*
Y113724D01*
X232437Y114007D01*
X233133Y114704D01*
X233625Y115556D01*
X233880Y116508D01*
Y117492D01*
X233625Y118444D01*
X233133Y119297D01*
X232437Y119993D01*
X231584Y120485D01*
X230633Y120740D01*
D02*
G37*
G36*
X119611Y117059D02*
X115772D01*
X115215Y116948D01*
X114743Y116632D01*
X114428Y116160D01*
X114317Y115603D01*
Y114506D01*
X113056D01*
X113027Y114536D01*
X112231Y114865D01*
X111369D01*
X110573Y114536D01*
X109964Y113927D01*
X109635Y113131D01*
Y112269D01*
X109964Y111473D01*
X110573Y110864D01*
X111369Y110535D01*
X112231D01*
X113027Y110864D01*
X113056Y110894D01*
X114317D01*
Y109797D01*
X114428Y109240D01*
X114743Y108767D01*
X115215Y108452D01*
X115772Y108341D01*
X119611D01*
X120168Y108452D01*
X120640Y108767D01*
X120955Y109240D01*
X121066Y109797D01*
Y115603D01*
X120955Y116160D01*
X120640Y116632D01*
X120168Y116948D01*
X119611Y117059D01*
D02*
G37*
G36*
X209441Y115835D02*
X208559D01*
X207708Y115607D01*
X206945Y115167D01*
X206322Y114544D01*
X206179Y114295D01*
X199321D01*
X199178Y114544D01*
X198555Y115167D01*
X197792Y115607D01*
X196941Y115835D01*
X196059D01*
X195208Y115607D01*
X194445Y115167D01*
X193822Y114544D01*
X193382Y113781D01*
X193154Y112929D01*
Y112048D01*
X193382Y111197D01*
X193822Y110434D01*
X194445Y109811D01*
X195208Y109371D01*
X196059Y109142D01*
X196941D01*
X197792Y109371D01*
X198555Y109811D01*
X199178Y110434D01*
X199321Y110683D01*
X206179D01*
X206322Y110434D01*
X206945Y109811D01*
X207708Y109371D01*
X208559Y109142D01*
X209441D01*
X210292Y109371D01*
X211055Y109811D01*
X211678Y110434D01*
X212118Y111197D01*
X212347Y112048D01*
Y112929D01*
X212118Y113781D01*
X211678Y114544D01*
X211055Y115167D01*
X210292Y115607D01*
X209441Y115835D01*
D02*
G37*
G36*
X400318Y121437D02*
X399282D01*
X398280Y121169D01*
X397383Y120650D01*
X396650Y119917D01*
X396131Y119020D01*
X395863Y118018D01*
Y116982D01*
X396131Y115980D01*
X396650Y115083D01*
X397383Y114350D01*
X398280Y113831D01*
X399282Y113563D01*
X400318D01*
X401320Y113831D01*
X402217Y114350D01*
X402950Y115083D01*
X403469Y115980D01*
X403737Y116982D01*
Y118018D01*
X403469Y119020D01*
X402950Y119917D01*
X402217Y120650D01*
X401320Y121169D01*
X400318Y121437D01*
D02*
G37*
G36*
X349097Y134337D02*
X347903D01*
X346749Y134028D01*
X345714Y133431D01*
X344869Y132586D01*
X344272Y131551D01*
X343963Y130397D01*
Y129203D01*
X344272Y128049D01*
X344869Y127014D01*
X345714Y126169D01*
X346694Y125604D01*
Y122400D01*
X346831Y121709D01*
X347223Y121123D01*
X348194Y120152D01*
Y118444D01*
X348073Y118394D01*
X347333Y117826D01*
X346765Y117086D01*
X346610Y116712D01*
X345005D01*
X344314Y116574D01*
X343728Y116183D01*
X339764Y112218D01*
X337903D01*
X337455Y112667D01*
X336692Y113107D01*
X335841Y113335D01*
X334959D01*
X334108Y113107D01*
X333345Y112667D01*
X332722Y112044D01*
X332282Y111281D01*
X332053Y110430D01*
Y109548D01*
X332282Y108697D01*
X332722Y107934D01*
X333345Y107311D01*
X334108Y106871D01*
X334959Y106642D01*
X335841D01*
X336692Y106871D01*
X337455Y107311D01*
X338078Y107934D01*
X338465Y108605D01*
X340512D01*
X341203Y108743D01*
X341789Y109134D01*
X345754Y113099D01*
X346610D01*
X346765Y112725D01*
X347333Y111985D01*
X348073Y111417D01*
X348935Y111060D01*
X349860Y110938D01*
X350785Y111060D01*
X351647Y111417D01*
X352387Y111985D01*
X352955Y112725D01*
X353312Y113587D01*
X353434Y114512D01*
Y115299D01*
X353312Y116224D01*
X352955Y117086D01*
X352387Y117826D01*
X351806Y118272D01*
Y120900D01*
X351669Y121591D01*
X351277Y122177D01*
X350306Y123148D01*
Y125604D01*
X351286Y126169D01*
X352131Y127014D01*
X352728Y128049D01*
X353037Y129203D01*
Y130397D01*
X352728Y131551D01*
X352131Y132586D01*
X351286Y133431D01*
X350251Y134028D01*
X349097Y134337D01*
D02*
G37*
G36*
X271541Y112435D02*
X270659D01*
X269808Y112207D01*
X269045Y111767D01*
X268422Y111144D01*
X268279Y110895D01*
X264554D01*
X263863Y110758D01*
X263277Y110366D01*
X263194Y110283D01*
X262844Y110485D01*
X261892Y110740D01*
X260908D01*
X259956Y110485D01*
X259103Y109993D01*
X258407Y109297D01*
X257915Y108444D01*
X257660Y107492D01*
Y106508D01*
X257915Y105556D01*
X258407Y104703D01*
X259103Y104007D01*
X259956Y103515D01*
X260908Y103260D01*
X261892D01*
X262844Y103515D01*
X263697Y104007D01*
X264393Y104703D01*
X264885Y105556D01*
X265140Y106508D01*
Y107120D01*
X265303Y107283D01*
X268279D01*
X268422Y107034D01*
X269045Y106411D01*
X269808Y105971D01*
X270659Y105743D01*
X271541D01*
X272392Y105971D01*
X273155Y106411D01*
X273778Y107034D01*
X273896Y107238D01*
X280053D01*
X280222Y106945D01*
X280845Y106322D01*
X281608Y105882D01*
X282459Y105654D01*
X283341D01*
X284192Y105882D01*
X284955Y106322D01*
X285578Y106945D01*
X286018Y107708D01*
X286246Y108559D01*
Y109441D01*
X286018Y110292D01*
X285578Y111055D01*
X284955Y111678D01*
X284192Y112118D01*
X283341Y112346D01*
X282459D01*
X281608Y112118D01*
X280845Y111678D01*
X280222Y111055D01*
X280104Y110851D01*
X273947D01*
X273778Y111144D01*
X273155Y111767D01*
X272392Y112207D01*
X271541Y112435D01*
D02*
G37*
G36*
X119611Y107559D02*
X115772D01*
X115215Y107448D01*
X114743Y107132D01*
X114428Y106660D01*
X114317Y106104D01*
Y105006D01*
X113056D01*
X113027Y105036D01*
X112231Y105365D01*
X111369D01*
X110573Y105036D01*
X109964Y104427D01*
X109635Y103631D01*
Y102769D01*
X109964Y101973D01*
X110573Y101364D01*
X111369Y101035D01*
X112231D01*
X113027Y101364D01*
X113056Y101394D01*
X114317D01*
Y100296D01*
X114428Y99740D01*
X114743Y99268D01*
X115215Y98952D01*
X115772Y98841D01*
X119611D01*
X120168Y98952D01*
X120640Y99268D01*
X120955Y99740D01*
X121066Y100296D01*
Y106104D01*
X120955Y106660D01*
X120640Y107132D01*
X120168Y107448D01*
X119611Y107559D01*
D02*
G37*
G36*
X24380Y84402D02*
X22400D01*
Y81511D01*
X25882D01*
Y82901D01*
X25767Y83475D01*
X25442Y83962D01*
X24955Y84288D01*
X24380Y84402D01*
D02*
G37*
G36*
X168533Y82887D02*
X167667D01*
X166831Y82663D01*
X166082Y82231D01*
X165469Y81618D01*
X165037Y80869D01*
X164813Y80033D01*
Y79167D01*
X165037Y78331D01*
X165469Y77582D01*
X166082Y76969D01*
X166394Y76789D01*
Y74318D01*
X166004Y74093D01*
X165307Y73396D01*
X164912Y72712D01*
X160109D01*
X160078Y72766D01*
X159455Y73389D01*
X158692Y73829D01*
X157841Y74058D01*
X156959D01*
X156108Y73829D01*
X155345Y73389D01*
X154722Y72766D01*
X154282Y72003D01*
X154053Y71152D01*
Y70271D01*
X154282Y69419D01*
X154722Y68656D01*
X155345Y68033D01*
X156108Y67593D01*
X156959Y67365D01*
X157841D01*
X158692Y67593D01*
X159455Y68033D01*
X160078Y68656D01*
X160334Y69099D01*
X165136D01*
X165307Y68804D01*
X166004Y68107D01*
X166856Y67615D01*
X167808Y67360D01*
X168792D01*
X169744Y67615D01*
X170597Y68107D01*
X171293Y68804D01*
X171576Y69294D01*
X175952D01*
X179294Y65952D01*
Y61568D01*
X178738D01*
X178123Y61446D01*
X177602Y61098D01*
X177254Y60577D01*
X177132Y59962D01*
Y55238D01*
X177254Y54623D01*
X177602Y54102D01*
X178123Y53754D01*
X178738Y53632D01*
X183462D01*
X184077Y53754D01*
X184598Y54102D01*
X184946Y54623D01*
X185068Y55238D01*
Y59962D01*
X184946Y60577D01*
X184598Y61098D01*
X184077Y61446D01*
X183462Y61568D01*
X182906D01*
Y66700D01*
X182769Y67391D01*
X182377Y67977D01*
X177977Y72377D01*
X177391Y72769D01*
X176700Y72906D01*
X171576D01*
X171293Y73396D01*
X170597Y74093D01*
X170006Y74434D01*
Y76905D01*
X170118Y76969D01*
X170731Y77582D01*
X171163Y78331D01*
X171387Y79167D01*
Y80033D01*
X171163Y80869D01*
X170731Y81618D01*
X170118Y82231D01*
X169369Y82663D01*
X168533Y82887D01*
D02*
G37*
G36*
X279341Y77557D02*
X278459D01*
X277608Y77329D01*
X276845Y76889D01*
X276222Y76266D01*
X276079Y76017D01*
X265711D01*
X265020Y75880D01*
X264434Y75488D01*
X261323Y72377D01*
X260931Y71791D01*
X260794Y71100D01*
Y64791D01*
X260500D01*
X259920Y64675D01*
X259428Y64346D01*
X259099Y63854D01*
X258983Y63274D01*
Y59074D01*
X259099Y58494D01*
X259428Y58002D01*
X259920Y57673D01*
X260500Y57557D01*
X264700D01*
X265280Y57673D01*
X265772Y58002D01*
X266101Y58494D01*
X266216Y59074D01*
Y63274D01*
X266101Y63854D01*
X265772Y64346D01*
X265280Y64675D01*
X264700Y64791D01*
X264406D01*
Y70352D01*
X266459Y72405D01*
X276079D01*
X276222Y72156D01*
X276845Y71533D01*
X277608Y71093D01*
X278459Y70865D01*
X279341D01*
X280192Y71093D01*
X280955Y71533D01*
X281578Y72156D01*
X282018Y72919D01*
X282246Y73770D01*
Y74652D01*
X282018Y75503D01*
X281578Y76266D01*
X280955Y76889D01*
X280192Y77329D01*
X279341Y77557D01*
D02*
G37*
G36*
X326492Y84240D02*
X325508D01*
X324556Y83985D01*
X323704Y83493D01*
X323007Y82797D01*
X322515Y81944D01*
X322260Y80992D01*
Y80008D01*
X322515Y79056D01*
X323007Y78203D01*
X323704Y77507D01*
X324194Y77224D01*
Y64348D01*
X322052Y62206D01*
X319334D01*
X318993Y62796D01*
X318297Y63493D01*
X317444Y63985D01*
X316492Y64240D01*
X315508D01*
X314961Y64094D01*
X312777Y66277D01*
X312191Y66669D01*
X311500Y66806D01*
X292848D01*
X290706Y68948D01*
Y71290D01*
X290955Y71433D01*
X291578Y72056D01*
X292018Y72819D01*
X292247Y73671D01*
Y74552D01*
X292018Y75403D01*
X291578Y76166D01*
X290955Y76789D01*
X290192Y77229D01*
X289341Y77457D01*
X288459D01*
X287608Y77229D01*
X286845Y76789D01*
X286222Y76166D01*
X285782Y75403D01*
X285554Y74552D01*
Y73671D01*
X285782Y72819D01*
X286222Y72056D01*
X286845Y71433D01*
X287094Y71290D01*
Y68200D01*
X287231Y67509D01*
X287623Y66923D01*
X290823Y63723D01*
X291409Y63331D01*
X292100Y63194D01*
X310752D01*
X312406Y61539D01*
X312260Y60992D01*
Y60008D01*
X312515Y59056D01*
X313007Y58204D01*
X313703Y57507D01*
X314194Y57224D01*
Y53800D01*
X314331Y53109D01*
X314723Y52523D01*
X317194Y50052D01*
Y34848D01*
X316152Y33806D01*
X314803D01*
X314450Y34417D01*
X313717Y35150D01*
X312820Y35669D01*
X311818Y35937D01*
X310782D01*
X309780Y35669D01*
X308883Y35150D01*
X308150Y34417D01*
X307631Y33520D01*
X307506Y33053D01*
X307006Y33119D01*
Y38862D01*
X307167Y38920D01*
X307506Y38945D01*
X307802Y38502D01*
X308323Y38154D01*
X308938Y38032D01*
X313662D01*
X314277Y38154D01*
X314798Y38502D01*
X315146Y39023D01*
X315268Y39638D01*
Y44362D01*
X315146Y44977D01*
X314798Y45498D01*
X314277Y45846D01*
X313662Y45968D01*
X308938D01*
X308323Y45846D01*
X307802Y45498D01*
X307454Y44977D01*
X307332Y44362D01*
Y44311D01*
X307239Y44237D01*
X306566Y44344D01*
X306477Y44477D01*
X301306Y49648D01*
Y52346D01*
X302286Y52912D01*
X303131Y53756D01*
X303728Y54791D01*
X304037Y55945D01*
Y57140D01*
X303728Y58294D01*
X303131Y59329D01*
X302286Y60173D01*
X301251Y60771D01*
X300097Y61080D01*
X298903D01*
X297749Y60771D01*
X296714Y60173D01*
X295869Y59329D01*
X295272Y58294D01*
X294963Y57140D01*
Y55945D01*
X295272Y54791D01*
X295869Y53756D01*
X296714Y52912D01*
X297694Y52346D01*
Y48900D01*
X297831Y48209D01*
X298223Y47623D01*
X303394Y42452D01*
Y40088D01*
X302894Y39881D01*
X302286Y40488D01*
X301251Y41086D01*
X300097Y41395D01*
X298903D01*
X297749Y41086D01*
X296714Y40488D01*
X295869Y39643D01*
X295272Y38609D01*
X294963Y37455D01*
Y36260D01*
X295272Y35106D01*
X295869Y34071D01*
X296714Y33227D01*
X297749Y32629D01*
X297844Y32604D01*
Y29634D01*
X296630Y29131D01*
X295533Y28399D01*
X294601Y27466D01*
X293869Y26370D01*
X293364Y25152D01*
X293107Y23859D01*
Y22541D01*
X293364Y21248D01*
X293869Y20030D01*
X294601Y18934D01*
X295533Y18001D01*
X296630Y17269D01*
X297746Y16806D01*
X297647Y16306D01*
X294037D01*
X292172Y18171D01*
X292247Y18448D01*
Y19330D01*
X292018Y20181D01*
X291578Y20944D01*
X290955Y21567D01*
X290192Y22007D01*
X289341Y22235D01*
X288459D01*
X287608Y22007D01*
X286845Y21567D01*
X286222Y20944D01*
X285782Y20181D01*
X285554Y19330D01*
Y18448D01*
X285782Y17597D01*
X286222Y16834D01*
X286845Y16211D01*
X287608Y15771D01*
X288459Y15542D01*
X289341D01*
X289618Y15617D01*
X292012Y13223D01*
X292598Y12831D01*
X293289Y12694D01*
X304972D01*
X305663Y12831D01*
X306249Y13223D01*
X311089Y18063D01*
X311818D01*
X312820Y18331D01*
X313717Y18850D01*
X314450Y19583D01*
X314969Y20480D01*
X315237Y21482D01*
Y22518D01*
X314969Y23520D01*
X314450Y24417D01*
X313717Y25150D01*
X312820Y25669D01*
X312113Y25858D01*
X311749Y26404D01*
X310519Y27633D01*
X310720Y27982D01*
X310796Y28063D01*
X311818D01*
X312820Y28331D01*
X313717Y28850D01*
X314450Y29583D01*
X314803Y30194D01*
X316900D01*
X317591Y30331D01*
X318177Y30723D01*
X320277Y32823D01*
X320669Y33409D01*
X320806Y34100D01*
Y50800D01*
X320669Y51491D01*
X320277Y52077D01*
X317806Y54548D01*
Y57224D01*
X318297Y57507D01*
X318993Y58204D01*
X319218Y58594D01*
X322800D01*
X323491Y58731D01*
X324077Y59123D01*
X327277Y62323D01*
X327669Y62909D01*
X327806Y63600D01*
Y77224D01*
X328296Y77507D01*
X328993Y78203D01*
X329485Y79056D01*
X329740Y80008D01*
Y80992D01*
X329485Y81944D01*
X328993Y82797D01*
X328296Y83493D01*
X327444Y83985D01*
X326492Y84240D01*
D02*
G37*
G36*
X25882Y62007D02*
X22400D01*
Y59116D01*
X24380D01*
X24955Y59230D01*
X25442Y59556D01*
X25767Y60043D01*
X25882Y60617D01*
Y62007D01*
D02*
G37*
G36*
X210418Y61537D02*
X209382D01*
X208380Y61269D01*
X207483Y60750D01*
X206750Y60017D01*
X206231Y59120D01*
X205963Y58118D01*
Y57082D01*
X206231Y56080D01*
X206750Y55183D01*
X207483Y54450D01*
X208380Y53931D01*
X209382Y53663D01*
X210418D01*
X211420Y53931D01*
X212317Y54450D01*
X213050Y55183D01*
X213569Y56080D01*
X213837Y57082D01*
Y58118D01*
X213569Y59120D01*
X213050Y60017D01*
X212317Y60750D01*
X211420Y61269D01*
X210418Y61537D01*
D02*
G37*
G36*
X368130Y74747D02*
X367248D01*
X366397Y74518D01*
X365634Y74078D01*
X365011Y73455D01*
X364636Y72805D01*
X361200D01*
X360662Y72698D01*
X360207Y72393D01*
X356407Y68593D01*
X356102Y68138D01*
X355995Y67600D01*
Y64191D01*
X355300D01*
X354720Y64075D01*
X354228Y63746D01*
X353899Y63254D01*
X353783Y62674D01*
Y58474D01*
X353899Y57894D01*
X354228Y57402D01*
X354720Y57073D01*
X355300Y56958D01*
X359500D01*
X360080Y57073D01*
X360572Y57402D01*
X360901Y57894D01*
X361017Y58474D01*
Y62674D01*
X360901Y63254D01*
X360572Y63746D01*
X360080Y64075D01*
X359500Y64191D01*
X358805D01*
Y67018D01*
X361782Y69995D01*
X364636D01*
X365011Y69345D01*
X365634Y68722D01*
X366284Y68347D01*
Y67311D01*
X366391Y66773D01*
X366695Y66318D01*
X369507Y63507D01*
X369962Y63202D01*
X370500Y63095D01*
X386718D01*
X388695Y61118D01*
Y54223D01*
X388327Y54010D01*
X387790Y53473D01*
X387409Y52815D01*
X387213Y52080D01*
Y51320D01*
X387409Y50586D01*
X387790Y49927D01*
X388327Y49389D01*
X388985Y49009D01*
X389720Y48813D01*
X390480D01*
X391214Y49009D01*
X391873Y49389D01*
X392410Y49927D01*
X392791Y50586D01*
X392987Y51320D01*
Y52080D01*
X392791Y52815D01*
X392410Y53473D01*
X391873Y54010D01*
X391505Y54223D01*
Y61700D01*
X391398Y62238D01*
X391093Y62694D01*
X388294Y65493D01*
X387838Y65798D01*
X387300Y65905D01*
X371082D01*
X369105Y67882D01*
X369140Y68374D01*
X369744Y68722D01*
X370367Y69345D01*
X370807Y70108D01*
X371035Y70959D01*
Y71841D01*
X370807Y72692D01*
X370367Y73455D01*
X369744Y74078D01*
X368981Y74518D01*
X368130Y74747D01*
D02*
G37*
G36*
X210418Y51537D02*
X209382D01*
X208380Y51269D01*
X207483Y50750D01*
X206750Y50017D01*
X206231Y49120D01*
X205963Y48118D01*
Y47082D01*
X206231Y46080D01*
X206750Y45183D01*
X207483Y44450D01*
X208380Y43931D01*
X209382Y43663D01*
X210418D01*
X211420Y43931D01*
X212317Y44450D01*
X213050Y45183D01*
X213569Y46080D01*
X213837Y47082D01*
Y48118D01*
X213569Y49120D01*
X213050Y50017D01*
X212317Y50750D01*
X211420Y51269D01*
X210418Y51537D01*
D02*
G37*
G36*
X128998Y44874D02*
X127800D01*
Y40800D01*
X130595D01*
Y43277D01*
X130473Y43888D01*
X130127Y44406D01*
X129609Y44752D01*
X128998Y44874D01*
D02*
G37*
G36*
X126800D02*
X125602D01*
X124991Y44752D01*
X124473Y44406D01*
X124127Y43888D01*
X124005Y43277D01*
Y40800D01*
X126800D01*
Y44874D01*
D02*
G37*
G36*
X263072Y56887D02*
X262128D01*
X261215Y56643D01*
X260397Y56171D01*
X259729Y55503D01*
X259257Y54685D01*
X259013Y53772D01*
Y52828D01*
X259257Y51915D01*
X259729Y51097D01*
X260397Y50429D01*
X260794Y50200D01*
Y46418D01*
Y43154D01*
X260500D01*
X259920Y43038D01*
X259428Y42709D01*
X259099Y42217D01*
X258983Y41637D01*
Y37437D01*
X259099Y36857D01*
X259428Y36365D01*
X259920Y36036D01*
X260500Y35921D01*
X264700D01*
X265280Y36036D01*
X265772Y36365D01*
X266101Y36857D01*
X266216Y37437D01*
Y41637D01*
X266101Y42217D01*
X265772Y42709D01*
X265280Y43038D01*
X264700Y43154D01*
X264406D01*
Y44694D01*
X275861D01*
X276150Y44194D01*
X275982Y43903D01*
X275753Y43052D01*
Y42170D01*
X275982Y41319D01*
X276422Y40556D01*
X277045Y39933D01*
X277808Y39493D01*
X278659Y39265D01*
X279541D01*
X280392Y39493D01*
X281155Y39933D01*
X281778Y40556D01*
X282218Y41319D01*
X282447Y42170D01*
Y43052D01*
X282218Y43903D01*
X282050Y44194D01*
X282339Y44694D01*
X285719D01*
X286007Y44194D01*
X285782Y43803D01*
X285554Y42952D01*
Y42070D01*
X285782Y41219D01*
X286222Y40456D01*
X286845Y39833D01*
X287608Y39393D01*
X288459Y39165D01*
X289341D01*
X290192Y39393D01*
X290955Y39833D01*
X291578Y40456D01*
X292018Y41219D01*
X292247Y42070D01*
Y42952D01*
X292018Y43803D01*
X291578Y44566D01*
X290955Y45189D01*
X290706Y45332D01*
Y47668D01*
X290955Y47811D01*
X291578Y48434D01*
X292018Y49197D01*
X292247Y50048D01*
Y50930D01*
X292018Y51781D01*
X291578Y52544D01*
X290955Y53167D01*
X290192Y53607D01*
X289341Y53835D01*
X288459D01*
X287608Y53607D01*
X286845Y53167D01*
X286222Y52544D01*
X285782Y51781D01*
X285554Y50930D01*
Y50048D01*
X285782Y49197D01*
X286007Y48806D01*
X285719Y48306D01*
X282024D01*
X281735Y48806D01*
X282018Y49297D01*
X282246Y50148D01*
Y51030D01*
X282018Y51881D01*
X281578Y52644D01*
X280955Y53267D01*
X280192Y53707D01*
X279341Y53935D01*
X278459D01*
X277608Y53707D01*
X276845Y53267D01*
X276222Y52644D01*
X275782Y51881D01*
X275553Y51030D01*
Y50148D01*
X275782Y49297D01*
X276065Y48806D01*
X275776Y48306D01*
X264406D01*
Y50200D01*
X264803Y50429D01*
X265471Y51097D01*
X265943Y51915D01*
X266187Y52828D01*
Y53772D01*
X265943Y54685D01*
X265471Y55503D01*
X264803Y56171D01*
X263985Y56643D01*
X263072Y56887D01*
D02*
G37*
G36*
X340618Y45937D02*
X339582D01*
X338580Y45669D01*
X337683Y45150D01*
X336950Y44417D01*
X336431Y43520D01*
X336163Y42518D01*
Y41482D01*
X336431Y40480D01*
X336950Y39583D01*
X337683Y38850D01*
X338580Y38331D01*
X339582Y38063D01*
X340618D01*
X341620Y38331D01*
X342517Y38850D01*
X343250Y39583D01*
X343769Y40480D01*
X344037Y41482D01*
Y42518D01*
X343769Y43520D01*
X343250Y44417D01*
X342517Y45150D01*
X341620Y45669D01*
X340618Y45937D01*
D02*
G37*
G36*
X210418Y41537D02*
X209382D01*
X208380Y41269D01*
X207483Y40750D01*
X206750Y40017D01*
X206231Y39120D01*
X205963Y38118D01*
Y37082D01*
X206231Y36080D01*
X206750Y35183D01*
X207483Y34450D01*
X208380Y33931D01*
X209382Y33663D01*
X210418D01*
X211420Y33931D01*
X212317Y34450D01*
X213050Y35183D01*
X213569Y36080D01*
X213837Y37082D01*
Y38118D01*
X213569Y39120D01*
X213050Y40017D01*
X212317Y40750D01*
X211420Y41269D01*
X210418Y41537D01*
D02*
G37*
G36*
X130595Y39800D02*
X127300D01*
X124005D01*
Y37323D01*
X124127Y36712D01*
X124473Y36194D01*
X124991Y35848D01*
X125256Y35795D01*
Y35285D01*
X125091Y35252D01*
X124573Y34906D01*
X124227Y34388D01*
X124106Y33777D01*
Y31300D01*
X127400D01*
X130694D01*
Y33777D01*
X130573Y34388D01*
X130227Y34906D01*
X129709Y35252D01*
X129444Y35305D01*
Y35815D01*
X129609Y35848D01*
X130127Y36194D01*
X130473Y36712D01*
X130595Y37323D01*
Y39800D01*
D02*
G37*
G36*
X28600Y32700D02*
X26123D01*
X25512Y32578D01*
X24994Y32232D01*
X24648Y31714D01*
X24526Y31103D01*
Y29906D01*
X28600D01*
Y32700D01*
D02*
G37*
G36*
X340618Y35937D02*
X339582D01*
X338580Y35669D01*
X337683Y35150D01*
X336950Y34417D01*
X336431Y33520D01*
X336163Y32518D01*
Y31482D01*
X336431Y30480D01*
X336950Y29583D01*
X337683Y28850D01*
X338580Y28331D01*
X339582Y28063D01*
X340618D01*
X341620Y28331D01*
X342517Y28850D01*
X343250Y29583D01*
X343769Y30480D01*
X344037Y31482D01*
Y32518D01*
X343769Y33520D01*
X343250Y34417D01*
X342517Y35150D01*
X341620Y35669D01*
X340618Y35937D01*
D02*
G37*
G36*
X33674Y28905D02*
X29100D01*
X24526D01*
Y27708D01*
X24569Y27489D01*
X24252Y27103D01*
X23632D01*
X22668Y28068D01*
X22407Y28242D01*
X22100Y28303D01*
X11300D01*
X11300Y28303D01*
X10993Y28242D01*
X10732Y28068D01*
X8632Y25968D01*
X8458Y25707D01*
X8397Y25400D01*
Y14600D01*
X8397Y14600D01*
X8458Y14293D01*
X8632Y14032D01*
X8632Y14032D01*
X10732Y11932D01*
X10993Y11758D01*
X11300Y11697D01*
X44912Y11697D01*
X44938Y11692D01*
X49662D01*
X49688Y11697D01*
X52500D01*
X52500Y11697D01*
X52807Y11758D01*
X53068Y11932D01*
X53068Y11932D01*
X55768Y14632D01*
X55942Y14893D01*
X56003Y15200D01*
Y23500D01*
X56003Y23500D01*
X55942Y23807D01*
X55768Y24068D01*
X52968Y26868D01*
X52707Y27042D01*
X52400Y27103D01*
X49688D01*
X49662Y27108D01*
X44938D01*
X44912Y27103D01*
X33948D01*
X33630Y27489D01*
X33674Y27708D01*
Y28905D01*
D02*
G37*
G36*
X350841Y36568D02*
X349959D01*
X349108Y36340D01*
X348345Y35900D01*
X347722Y35277D01*
X347282Y34514D01*
X347054Y33663D01*
Y32781D01*
X347282Y31930D01*
X347722Y31167D01*
X348345Y30544D01*
X349108Y30104D01*
X349959Y29876D01*
X350841D01*
X351692Y30104D01*
X352455Y30544D01*
X353078Y31167D01*
X353221Y31416D01*
X354036D01*
X354528Y30924D01*
X355114Y30532D01*
X355805Y30395D01*
X357803D01*
X358072Y29391D01*
X358669Y28357D01*
X359514Y27512D01*
X360549Y26914D01*
X361703Y26605D01*
X362897D01*
X364051Y26914D01*
X365086Y27512D01*
X365931Y28357D01*
X366528Y29391D01*
X366837Y30545D01*
Y31740D01*
X366528Y32894D01*
X365931Y33929D01*
X365086Y34773D01*
X364051Y35371D01*
X362897Y35680D01*
X361703D01*
X360549Y35371D01*
X359514Y34773D01*
X358748Y34007D01*
X356554D01*
X356062Y34499D01*
X355476Y34891D01*
X354784Y35028D01*
X353221D01*
X353078Y35277D01*
X352455Y35900D01*
X351692Y36340D01*
X350841Y36568D01*
D02*
G37*
G36*
X89674Y28806D02*
X85600D01*
Y26011D01*
X88077D01*
X88688Y26133D01*
X89206Y26479D01*
X89552Y26997D01*
X89674Y27608D01*
Y28806D01*
D02*
G37*
G36*
X84600D02*
X80526D01*
Y27608D01*
X80648Y26997D01*
X80994Y26479D01*
X81512Y26133D01*
X82123Y26011D01*
X84600D01*
Y28806D01*
D02*
G37*
G36*
X210418Y31537D02*
X209382D01*
X208380Y31269D01*
X207483Y30750D01*
X206750Y30017D01*
X206231Y29120D01*
X205963Y28118D01*
Y27082D01*
X206231Y26080D01*
X206750Y25183D01*
X207483Y24450D01*
X208380Y23931D01*
X209382Y23663D01*
X210418D01*
X211420Y23931D01*
X212317Y24450D01*
X213050Y25183D01*
X213569Y26080D01*
X213837Y27082D01*
Y28118D01*
X213569Y29120D01*
X213050Y30017D01*
X212317Y30750D01*
X211420Y31269D01*
X210418Y31537D01*
D02*
G37*
G36*
X130694Y30300D02*
X127400D01*
X124106D01*
Y27823D01*
X124227Y27212D01*
X124573Y26694D01*
X125075Y26358D01*
X125092Y26254D01*
X125096Y25951D01*
X125078Y25840D01*
X124579Y25506D01*
X124233Y24988D01*
X124111Y24377D01*
Y21900D01*
X127406D01*
X130700D01*
Y24377D01*
X130578Y24988D01*
X130232Y25506D01*
X129730Y25842D01*
X129713Y25946D01*
X129710Y26249D01*
X129727Y26360D01*
X130227Y26694D01*
X130573Y27212D01*
X130694Y27823D01*
Y30300D01*
D02*
G37*
G36*
X170215Y60450D02*
X169385D01*
X168584Y60235D01*
X167866Y59820D01*
X167280Y59234D01*
X167206Y59106D01*
X160400D01*
X159709Y58969D01*
X159123Y58577D01*
X156123Y55577D01*
X155731Y54991D01*
X155594Y54300D01*
Y49910D01*
X155345Y49767D01*
X154722Y49144D01*
X154282Y48381D01*
X154053Y47530D01*
Y46648D01*
X154282Y45797D01*
X154722Y45034D01*
X155345Y44411D01*
X156108Y43971D01*
X156959Y43742D01*
X157841D01*
X158692Y43971D01*
X159455Y44411D01*
X160078Y45034D01*
X160518Y45797D01*
X160747Y46648D01*
Y47530D01*
X160518Y48381D01*
X160078Y49144D01*
X159455Y49767D01*
X159206Y49910D01*
Y53552D01*
X161148Y55494D01*
X167206D01*
X167280Y55366D01*
X167866Y54780D01*
X167994Y54706D01*
Y50400D01*
X168131Y49709D01*
X168523Y49123D01*
X171323Y46323D01*
X171909Y45931D01*
X172600Y45794D01*
X177597D01*
X177950Y45183D01*
X178683Y44450D01*
X179580Y43931D01*
X180582Y43663D01*
X181618D01*
X182620Y43931D01*
X183517Y44450D01*
X184250Y45183D01*
X184603Y45794D01*
X189352D01*
X194694Y40452D01*
Y27400D01*
X194831Y26709D01*
X195223Y26123D01*
X201423Y19923D01*
X202009Y19531D01*
X202700Y19394D01*
X220800D01*
X221491Y19531D01*
X222077Y19923D01*
X226677Y24523D01*
X227069Y25109D01*
X227206Y25800D01*
Y27183D01*
X227863D01*
X228443Y27299D01*
X228935Y27628D01*
X229264Y28120D01*
X229380Y28700D01*
Y32900D01*
X229264Y33480D01*
X228935Y33972D01*
X228443Y34301D01*
X227863Y34416D01*
X223663D01*
X223083Y34301D01*
X222591Y33972D01*
X222262Y33480D01*
X222147Y32900D01*
Y28700D01*
X222262Y28120D01*
X222591Y27628D01*
X223083Y27299D01*
X223594Y27197D01*
Y26548D01*
X220052Y23006D01*
X203448D01*
X198306Y28148D01*
Y41200D01*
X198169Y41891D01*
X197777Y42477D01*
X191377Y48877D01*
X190791Y49269D01*
X190100Y49406D01*
X184603D01*
X184250Y50017D01*
X183517Y50750D01*
X182620Y51269D01*
X181618Y51537D01*
X180582D01*
X179580Y51269D01*
X178683Y50750D01*
X177950Y50017D01*
X177597Y49406D01*
X173348D01*
X171606Y51148D01*
Y54706D01*
X171734Y54780D01*
X172320Y55366D01*
X172735Y56084D01*
X172950Y56885D01*
Y57715D01*
X172735Y58516D01*
X172320Y59234D01*
X171734Y59820D01*
X171016Y60235D01*
X170215Y60450D01*
D02*
G37*
G36*
X181618Y41537D02*
X180582D01*
X179580Y41269D01*
X178683Y40750D01*
X177950Y40017D01*
X177597Y39406D01*
X173100D01*
X172409Y39269D01*
X171823Y38877D01*
X168523Y35577D01*
X168131Y34991D01*
X167994Y34300D01*
Y30366D01*
X167866Y30293D01*
X167280Y29706D01*
X167206Y29579D01*
X162572D01*
X161881Y29441D01*
X161295Y29050D01*
X155923Y23677D01*
X155531Y23091D01*
X155394Y22400D01*
Y19110D01*
X155145Y18967D01*
X154522Y18344D01*
X154082Y17581D01*
X153853Y16730D01*
Y15848D01*
X154082Y14997D01*
X154522Y14234D01*
X155145Y13611D01*
X155908Y13171D01*
X156759Y12943D01*
X157641D01*
X158492Y13171D01*
X159255Y13611D01*
X159878Y14234D01*
X160318Y14997D01*
X160547Y15848D01*
Y16730D01*
X160318Y17581D01*
X159878Y18344D01*
X159255Y18967D01*
X159006Y19110D01*
Y21652D01*
X163321Y25966D01*
X167206D01*
X167280Y25839D01*
X167866Y25252D01*
X168584Y24837D01*
X169385Y24623D01*
X170215D01*
X171016Y24837D01*
X171734Y25252D01*
X172320Y25839D01*
X172735Y26557D01*
X172950Y27358D01*
Y28187D01*
X172735Y28988D01*
X172320Y29706D01*
X171734Y30293D01*
X171606Y30366D01*
Y33552D01*
X173848Y35794D01*
X177597D01*
X177950Y35183D01*
X178683Y34450D01*
X179580Y33931D01*
X180582Y33663D01*
X181618D01*
X182620Y33931D01*
X183517Y34450D01*
X184250Y35183D01*
X184467Y35557D01*
X184953Y35592D01*
X186594Y33952D01*
Y18948D01*
X185118Y17472D01*
X184841Y17546D01*
X183959D01*
X183108Y17318D01*
X182345Y16878D01*
X181722Y16255D01*
X181282Y15492D01*
X181053Y14641D01*
Y13759D01*
X181282Y12908D01*
X181722Y12145D01*
X182345Y11522D01*
X183108Y11082D01*
X183959Y10853D01*
X184841D01*
X185692Y11082D01*
X186455Y11522D01*
X187078Y12145D01*
X187518Y12908D01*
X187747Y13759D01*
Y14641D01*
X187672Y14918D01*
X189677Y16923D01*
X190069Y17509D01*
X190206Y18200D01*
Y34700D01*
X190069Y35391D01*
X189677Y35977D01*
X186977Y38677D01*
X186391Y39069D01*
X185700Y39206D01*
X184719D01*
X184250Y40017D01*
X183517Y40750D01*
X182620Y41269D01*
X181618Y41537D01*
D02*
G37*
G36*
X130700Y20900D02*
X127406D01*
X124111D01*
Y18423D01*
X124233Y17812D01*
X124579Y17294D01*
X125097Y16948D01*
X125364Y16894D01*
Y16385D01*
X125202Y16352D01*
X124684Y16006D01*
X124338Y15488D01*
X124217Y14877D01*
Y12400D01*
X127511D01*
Y11900D01*
D01*
Y12400D01*
X130806D01*
Y14877D01*
X130684Y15488D01*
X130338Y16006D01*
X129820Y16352D01*
X129553Y16406D01*
Y16915D01*
X129714Y16948D01*
X130232Y17294D01*
X130578Y17812D01*
X130700Y18423D01*
Y20900D01*
D02*
G37*
G36*
X208463Y17546D02*
X207581D01*
X206730Y17318D01*
X205967Y16878D01*
X205344Y16255D01*
X204904Y15492D01*
X204676Y14641D01*
Y13759D01*
X204904Y12908D01*
X205344Y12145D01*
X205967Y11522D01*
X206730Y11082D01*
X207581Y10853D01*
X208463D01*
X209314Y11082D01*
X210077Y11522D01*
X210700Y12145D01*
X211140Y12908D01*
X211368Y13759D01*
Y14641D01*
X211140Y15492D01*
X210700Y16255D01*
X210077Y16878D01*
X209314Y17318D01*
X208463Y17546D01*
D02*
G37*
G36*
X390480Y14587D02*
X389720D01*
X388985Y14391D01*
X388327Y14010D01*
X387790Y13473D01*
X387409Y12814D01*
X387213Y12080D01*
Y11320D01*
X387409Y10586D01*
X387790Y9927D01*
X388327Y9390D01*
X388985Y9009D01*
X389720Y8813D01*
X390480D01*
X391214Y9009D01*
X391873Y9390D01*
X392410Y9927D01*
X392791Y10586D01*
X392987Y11320D01*
Y12080D01*
X392791Y12814D01*
X392410Y13473D01*
X391873Y14010D01*
X391214Y14391D01*
X390480Y14587D01*
D02*
G37*
G36*
X376080Y14487D02*
X375320D01*
X374586Y14291D01*
X373927Y13911D01*
X373390Y13373D01*
X373009Y12715D01*
X372813Y11980D01*
Y11220D01*
X373009Y10486D01*
X373390Y9827D01*
X373927Y9290D01*
X374586Y8909D01*
X375320Y8713D01*
X376080D01*
X376815Y8909D01*
X377473Y9290D01*
X378011Y9827D01*
X378391Y10486D01*
X378587Y11220D01*
Y11980D01*
X378391Y12715D01*
X378011Y13373D01*
X377473Y13911D01*
X376815Y14291D01*
X376080Y14487D01*
D02*
G37*
G36*
X340618Y15937D02*
X339582D01*
X338580Y15669D01*
X337683Y15150D01*
X336950Y14417D01*
X336431Y13520D01*
X336163Y12518D01*
Y11482D01*
X336431Y10480D01*
X336950Y9583D01*
X337683Y8850D01*
X338580Y8331D01*
X339582Y8063D01*
X340618D01*
X341620Y8331D01*
X342517Y8850D01*
X343250Y9583D01*
X343769Y10480D01*
X344037Y11482D01*
Y12518D01*
X343769Y13520D01*
X343250Y14417D01*
X342517Y15150D01*
X341620Y15669D01*
X340618Y15937D01*
D02*
G37*
G36*
X130806Y11400D02*
X128011D01*
Y7326D01*
X129209D01*
X129820Y7448D01*
X130338Y7794D01*
X130684Y8312D01*
X130806Y8923D01*
Y11400D01*
D02*
G37*
G36*
X127011D02*
X124217D01*
Y8923D01*
X124338Y8312D01*
X124684Y7794D01*
X125202Y7448D01*
X125813Y7326D01*
X127011D01*
Y11400D01*
D02*
G37*
G36*
X362897Y15995D02*
X361703D01*
X360549Y15686D01*
X359514Y15088D01*
X358669Y14243D01*
X358072Y13209D01*
X357763Y12055D01*
Y10860D01*
X358072Y9706D01*
X358669Y8671D01*
X359514Y7827D01*
X360549Y7229D01*
X361703Y6920D01*
X362897D01*
X364051Y7229D01*
X365086Y7827D01*
X365931Y8671D01*
X366528Y9706D01*
X366837Y10860D01*
Y12055D01*
X366528Y13209D01*
X365931Y14243D01*
X365086Y15088D01*
X364051Y15686D01*
X362897Y15995D01*
D02*
G37*
G36*
X336492Y64240D02*
X335508D01*
X334556Y63985D01*
X333703Y63493D01*
X333007Y62796D01*
X332515Y61944D01*
X332260Y60992D01*
Y60008D01*
X332515Y59056D01*
X333007Y58204D01*
X333703Y57507D01*
X334194Y57224D01*
Y52448D01*
X331423Y49677D01*
X331031Y49091D01*
X330894Y48400D01*
Y24000D01*
X331031Y23309D01*
X331423Y22723D01*
X333423Y20723D01*
X334009Y20331D01*
X334700Y20194D01*
X336597D01*
X336950Y19583D01*
X337683Y18850D01*
X338580Y18331D01*
X339582Y18063D01*
X340618D01*
X341620Y18331D01*
X342517Y18850D01*
X343250Y19583D01*
X343603Y20194D01*
X347352D01*
X348594Y18952D01*
Y12421D01*
X348345Y12278D01*
X347722Y11655D01*
X347282Y10892D01*
X347054Y10041D01*
Y9159D01*
X347282Y8308D01*
X347722Y7545D01*
X348345Y6922D01*
X349108Y6482D01*
X349959Y6254D01*
X350841D01*
X351692Y6482D01*
X352455Y6922D01*
X353078Y7545D01*
X353518Y8308D01*
X353747Y9159D01*
Y10041D01*
X353518Y10892D01*
X353078Y11655D01*
X352455Y12278D01*
X352206Y12421D01*
Y19700D01*
X352069Y20391D01*
X351677Y20977D01*
X349377Y23277D01*
X348791Y23669D01*
X348100Y23806D01*
X343603D01*
X343250Y24417D01*
X342517Y25150D01*
X341620Y25669D01*
X340618Y25937D01*
X339582D01*
X338580Y25669D01*
X337683Y25150D01*
X336950Y24417D01*
X336597Y23806D01*
X335448D01*
X334506Y24748D01*
Y47652D01*
X337277Y50423D01*
X337669Y51009D01*
X337806Y51700D01*
Y57224D01*
X338297Y57507D01*
X338993Y58204D01*
X339485Y59056D01*
X339740Y60008D01*
Y60992D01*
X339485Y61944D01*
X338993Y62796D01*
X338297Y63493D01*
X337444Y63985D01*
X336492Y64240D01*
D02*
G37*
%LPD*%
G36*
X111000Y52940D02*
X110986Y52870D01*
X110992Y52840D01*
Y46588D01*
X111000Y46548D01*
Y45504D01*
X112650Y43854D01*
X118246D01*
X119734Y42366D01*
Y29334D01*
X116900Y26500D01*
X108600D01*
X106800Y28300D01*
Y55800D01*
X111000D01*
Y52940D01*
D02*
G37*
G36*
X74935Y22500D02*
X109600D01*
X112752Y25652D01*
X117187D01*
X117606Y25626D01*
X119734Y23498D01*
Y21400D01*
X119734Y9418D01*
X117385Y7100D01*
X112500D01*
X107400Y12200D01*
X64400D01*
X61600Y15000D01*
Y23500D01*
X64394Y26294D01*
X71128Y26308D01*
X74935Y22500D01*
D02*
G37*
%LPC*%
G36*
X88077Y20789D02*
X85600D01*
Y17995D01*
X89674D01*
Y19192D01*
X89552Y19803D01*
X89206Y20321D01*
X88688Y20667D01*
X88077Y20789D01*
D02*
G37*
G36*
X84600D02*
X82123D01*
X81512Y20667D01*
X80994Y20321D01*
X80648Y19803D01*
X80526Y19192D01*
Y17995D01*
X84600D01*
Y20789D01*
D02*
G37*
G36*
X89674Y16995D02*
X85600D01*
Y14200D01*
X88077D01*
X88688Y14322D01*
X89206Y14668D01*
X89552Y15186D01*
X89674Y15797D01*
Y16995D01*
D02*
G37*
G36*
X84600D02*
X80526D01*
Y15797D01*
X80648Y15186D01*
X80994Y14668D01*
X81512Y14322D01*
X82123Y14200D01*
X84600D01*
Y16995D01*
D02*
G37*
%LPD*%
G36*
X23300Y26300D02*
X52400D01*
X55200Y23500D01*
Y15200D01*
X52500Y12500D01*
X11300Y12500D01*
X9200Y14600D01*
Y25400D01*
X11300Y27500D01*
X22100D01*
X23300Y26300D01*
D02*
G37*
%LPC*%
G36*
X32077Y20889D02*
X29600D01*
Y18094D01*
X33674D01*
Y19292D01*
X33552Y19903D01*
X33206Y20421D01*
X32688Y20767D01*
X32077Y20889D01*
D02*
G37*
G36*
X28600D02*
X26123D01*
X25512Y20767D01*
X24994Y20421D01*
X24648Y19903D01*
X24526Y19292D01*
Y18094D01*
X28600D01*
Y20889D01*
D02*
G37*
G36*
X33674Y17095D02*
X29600D01*
Y14300D01*
X32077D01*
X32688Y14422D01*
X33206Y14768D01*
X33552Y15286D01*
X33674Y15897D01*
Y17095D01*
D02*
G37*
G36*
X28600D02*
X24526D01*
Y15897D01*
X24648Y15286D01*
X24994Y14768D01*
X25512Y14422D01*
X26123Y14300D01*
X28600D01*
Y17095D01*
D02*
G37*
%LPD*%
D17*
X367689Y67311D02*
X370500Y64500D01*
X367689Y67311D02*
Y71400D01*
X370500Y64500D02*
X387300D01*
X361200Y71400D02*
X367689D01*
X390100Y51700D02*
Y61700D01*
X387300Y64500D02*
X390100Y61700D01*
X357400Y60574D02*
Y67600D01*
X361200Y71400D01*
X391518D02*
X394959Y74841D01*
X391311Y71400D02*
X391518D01*
X394959Y74841D02*
Y80100D01*
Y84841D01*
X392785Y87015D02*
X394959Y84841D01*
X410400Y104000D02*
Y126357D01*
X395443Y89043D02*
X410400Y104000D01*
X134243Y89043D02*
X395443D01*
X127811Y12200D02*
X132306D01*
X101469Y41810D02*
X101529Y41750D01*
X101469Y41810D02*
Y46888D01*
X27246Y70302D02*
X27407D01*
X25774Y71774D02*
X27246Y70302D01*
X27226Y74220D02*
X27408Y74038D01*
X21900Y71759D02*
X21915Y71774D01*
X21900Y74318D02*
X21998Y74220D01*
X27226D01*
X21915Y71774D02*
X25774D01*
X20350Y8450D02*
X25950D01*
X26000Y8400D01*
X20300Y8500D02*
X20350Y8450D01*
X29103Y29403D02*
X35197D01*
X29100Y29406D02*
X29103Y29403D01*
X35197D02*
X35200Y29400D01*
X105148Y46449D02*
Y52870D01*
X104225Y45100D02*
Y45526D01*
X105148Y46449D01*
X101469Y46888D02*
X102645Y48064D01*
X285469Y91069D02*
X294800Y100400D01*
Y126957D01*
X155384Y91069D02*
X285469D01*
X133112Y91012D02*
X155327D01*
X155384Y91069D01*
X177953Y85047D02*
X191900Y71100D01*
X136401Y85047D02*
X177953D01*
X128600Y77246D02*
X136401Y85047D01*
X135284Y87015D02*
X392785D01*
X191900Y71100D02*
X208300D01*
X124021Y63894D02*
X128600Y68472D01*
Y77246D01*
X124663Y79463D02*
X134243Y89043D01*
X124663Y70103D02*
Y79463D01*
X122695Y80594D02*
X133112Y91012D01*
X122695Y70919D02*
Y80594D01*
X126631Y78362D02*
X135284Y87015D01*
X126631Y69288D02*
Y78362D01*
X127605Y21600D02*
X132205D01*
X127406Y21400D02*
X127605Y21600D01*
X127511Y11900D02*
X127811Y12200D01*
X127500Y30900D02*
X132200D01*
X127400Y30800D02*
X127500Y30900D01*
X127300Y40300D02*
X127400Y40400D01*
X132100D01*
X117652Y48492D02*
X118344Y47800D01*
X127213D01*
X117652Y48492D02*
Y52870D01*
X127213Y47800D02*
X127905Y48492D01*
X128596Y53000D02*
X136200D01*
X127905Y48492D02*
Y52308D01*
X128596Y53000D01*
X102645Y48064D02*
Y52863D01*
X99456Y47659D02*
X100148Y48350D01*
X99886Y52608D02*
X100148Y52870D01*
Y48350D02*
Y52870D01*
X98600Y47659D02*
X99456D01*
X102645Y52863D02*
X102652Y52870D01*
X97700Y47700D02*
X98001Y48001D01*
X120148Y57148D02*
X126000Y63000D01*
X136200D01*
X120148Y52870D02*
Y57148D01*
X122390Y67831D02*
X124663Y70103D01*
X123206Y65862D02*
X126631Y69288D01*
X121464Y69799D02*
X121575D01*
X123094Y65862D02*
X123206D01*
X122279Y67831D02*
X122390D01*
X121575Y69799D02*
X122695Y70919D01*
X123910Y63894D02*
X124021D01*
X120411Y65962D02*
X122279Y67831D01*
X95840Y61600D02*
X121616D01*
X94681Y63781D02*
X121013D01*
X119808Y68143D02*
X121464Y69799D01*
X94453Y65962D02*
X120411D01*
X121616Y61600D02*
X123910Y63894D01*
X95840Y68143D02*
X119808D01*
X121013Y63781D02*
X123094Y65862D01*
X99407Y102700D02*
X120148Y81959D01*
Y74130D02*
Y81959D01*
X95148Y68835D02*
Y74130D01*
Y68835D02*
X95840Y68143D01*
X92652Y67764D02*
Y74130D01*
Y67764D02*
X94453Y65962D01*
X92652Y61752D02*
X94681Y63781D01*
X92652Y52870D02*
Y61752D01*
X95148Y60908D02*
X95840Y61600D01*
X95148Y52870D02*
Y60908D01*
X89013Y114913D02*
Y122300D01*
X62308Y111432D02*
X85532D01*
X89013Y114913D01*
X98855Y114755D02*
Y122300D01*
X93500Y109400D02*
X98855Y114755D01*
X63060Y109400D02*
X93500D01*
X58079Y101408D02*
Y109987D01*
X59485Y117285D02*
Y122300D01*
X61493Y113400D02*
X76700D01*
X62369Y103392D02*
Y108708D01*
X58079Y109987D02*
X61493Y113400D01*
X62369Y108708D02*
X63060Y109400D01*
X60400Y109523D02*
X62308Y111432D01*
X54142Y111943D02*
X59485Y117285D01*
X60400Y102576D02*
X62245Y100732D01*
X98591D01*
X56111Y111111D02*
X60369Y115368D01*
X60400Y102576D02*
Y109523D01*
X69328Y117428D02*
Y122300D01*
X76700Y113400D02*
X79170Y115870D01*
Y122300D01*
X67269Y115368D02*
X69328Y117428D01*
X60369Y115368D02*
X67269D01*
X56111Y100592D02*
Y111111D01*
X54142Y99777D02*
Y111943D01*
X62369Y103392D02*
X63060Y102700D01*
X54142Y99777D02*
X59093Y94826D01*
X57463Y90889D02*
X94515D01*
X93699Y88920D02*
X102652Y79968D01*
X44300Y95700D02*
X55016Y84983D01*
X92068D01*
X52174Y98962D02*
X58278Y92857D01*
X92884Y86952D02*
X100148Y79688D01*
X46268Y96515D02*
X55832Y86952D01*
X96145Y94826D02*
X110148Y80823D01*
X59909Y96794D02*
X96961D01*
X56111Y100592D02*
X59909Y96794D01*
X94515Y90889D02*
X105148Y80256D01*
X59093Y94826D02*
X96145D01*
X58079Y101408D02*
X60724Y98763D01*
X48237Y97331D02*
X56647Y88920D01*
X58278Y92857D02*
X95330D01*
X92068Y84983D02*
X97652Y79400D01*
X63060Y102700D02*
X99407D01*
X50205Y98146D02*
X57463Y90889D01*
X96961Y96794D02*
X112652Y81103D01*
X97776Y98763D02*
X115148Y81391D01*
X55832Y86952D02*
X92884D01*
X95330Y92857D02*
X107652Y80536D01*
X60724Y98763D02*
X97776D01*
X98591Y100732D02*
X117652Y81671D01*
X56647Y88920D02*
X93699D01*
X50205Y98146D02*
Y110936D01*
X46542Y111542D02*
X48237Y109847D01*
X49643Y114283D02*
X52174Y111751D01*
X40900Y114400D02*
X46268Y109031D01*
X39800Y121341D02*
X50205Y110936D01*
X48237Y97331D02*
Y109847D01*
X40300Y112100D02*
X44300Y108100D01*
X52174Y98962D02*
Y111751D01*
X46268Y96515D02*
Y109031D01*
X44300Y95700D02*
Y108100D01*
X49643Y114283D02*
Y122300D01*
X39800Y121341D02*
Y122300D01*
X32000Y116600D02*
X41484D01*
X46542Y111542D02*
X46542D01*
X41484Y116600D02*
X46542Y111542D01*
X21500Y114400D02*
X40900D01*
X20900Y112100D02*
X40300D01*
X20889Y112111D02*
X20900Y112100D01*
X19900D02*
X19911Y112111D01*
X20889D01*
X30434Y118166D02*
X32000Y116600D01*
X29958Y122300D02*
X30434Y121824D01*
Y118166D02*
Y121824D01*
X20115Y115785D02*
X21500Y114400D01*
X20115Y115785D02*
Y122300D01*
X10272Y117679D02*
Y122300D01*
X10089Y117495D02*
X10272Y117679D01*
X10089Y114511D02*
Y117495D01*
Y114511D02*
X12500Y112100D01*
X19900D01*
X117652Y74130D02*
Y81671D01*
X115148Y74130D02*
Y81391D01*
X112652Y74130D02*
Y81103D01*
X110148Y74130D02*
Y80823D01*
X107652Y74130D02*
Y80536D01*
X105148Y74130D02*
Y80256D01*
X102652Y74130D02*
Y79968D01*
X100148Y74130D02*
Y79688D01*
X97652Y74130D02*
Y79400D01*
Y56952D02*
X99300Y58600D01*
X97652Y52870D02*
Y56952D01*
D21*
X96500Y17365D02*
D03*
Y33900D02*
D03*
D22*
X419500Y163000D02*
D03*
X354100Y164600D02*
D03*
X208300Y79600D02*
D03*
X168100D02*
D03*
X75800Y19200D02*
D03*
X38700Y19400D02*
D03*
X20300Y8500D02*
D03*
D23*
X21900Y66641D02*
D03*
Y69200D02*
D03*
Y71759D02*
D03*
Y74318D02*
D03*
Y76877D02*
D03*
D24*
Y62507D02*
D03*
Y81011D02*
D03*
D25*
X127511Y11900D02*
D03*
X115700D02*
D03*
X127406Y21400D02*
D03*
X115594D02*
D03*
X115589Y30800D02*
D03*
X127400D02*
D03*
X115489Y40300D02*
D03*
X127300D02*
D03*
D26*
X129109Y103200D02*
D03*
X117691D02*
D03*
X129109Y112700D02*
D03*
X117691D02*
D03*
D27*
X92652Y74130D02*
D03*
X95148D02*
D03*
X97652D02*
D03*
X100148D02*
D03*
X102652D02*
D03*
X105148D02*
D03*
X107652D02*
D03*
X110148D02*
D03*
X112652D02*
D03*
X115148D02*
D03*
X117652D02*
D03*
X120148D02*
D03*
Y52870D02*
D03*
X117652D02*
D03*
X115148D02*
D03*
X112652D02*
D03*
X110148D02*
D03*
X107652D02*
D03*
X105148D02*
D03*
X102652D02*
D03*
X100148D02*
D03*
X97652D02*
D03*
X95148D02*
D03*
X92652D02*
D03*
D28*
X79200Y174009D02*
D03*
Y162591D02*
D03*
X98900Y174009D02*
D03*
Y162591D02*
D03*
X10100Y174117D02*
D03*
Y162700D02*
D03*
X20211Y174184D02*
D03*
Y162767D02*
D03*
X88900Y162700D02*
D03*
Y174117D02*
D03*
X69400Y162591D02*
D03*
Y174009D02*
D03*
X59500Y162591D02*
D03*
Y174009D02*
D03*
X49600Y162591D02*
D03*
Y174009D02*
D03*
X39896Y162646D02*
D03*
Y174063D02*
D03*
X30134Y162767D02*
D03*
Y174184D02*
D03*
D29*
X57300Y59853D02*
D03*
D30*
X67300Y19400D02*
D03*
X47300D02*
D03*
D31*
X29100Y29406D02*
D03*
Y17594D02*
D03*
X85100Y29305D02*
D03*
Y17494D02*
D03*
D61*
X370603Y127103D02*
X371000Y127500D01*
X366704Y127103D02*
X370603D01*
X364300Y124700D02*
X366704Y127103D01*
X364300Y106500D02*
Y124700D01*
X328500Y104300D02*
X362100D01*
X364300Y106500D01*
X326584Y106216D02*
Y109905D01*
Y106216D02*
X328500Y104300D01*
X326500Y109989D02*
X326584Y109905D01*
X326500Y109989D02*
Y119900D01*
X335501Y146101D02*
X338885Y149485D01*
X348500D01*
X335501Y140690D02*
Y146101D01*
X335400Y140589D02*
X335501Y140690D01*
X315500Y126657D02*
Y134300D01*
X321186Y139986D02*
X325997D01*
X315500Y134300D02*
X321186Y139986D01*
X325997D02*
X326600Y140589D01*
X315500Y126657D02*
X316150Y126008D01*
X320392D01*
X326500Y119900D01*
X335823Y110412D02*
X340512D01*
X345005Y114906D02*
X349860D01*
X340512Y110412D02*
X345005Y114906D01*
X335400Y109989D02*
X335823Y110412D01*
X349860Y114906D02*
X350000Y115046D01*
Y120900D01*
X348500Y122400D02*
X350000Y120900D01*
X348500Y122400D02*
Y129800D01*
X366925Y134597D02*
X369828Y137500D01*
X364340Y134597D02*
X366925D01*
X359600Y129858D02*
X364340Y134597D01*
X369828Y137500D02*
X371000D01*
X354200Y135257D02*
X359600Y129858D01*
X354200Y135257D02*
Y143785D01*
X348500Y149485D02*
X354200Y143785D01*
X365815Y147500D02*
X371000D01*
X360658Y148484D02*
X364831D01*
X365815Y147500D01*
X359600Y149542D02*
X360658Y148484D01*
X369253Y155349D02*
X371000Y153602D01*
Y147500D02*
Y153602D01*
X368500Y160500D02*
X369253Y159747D01*
Y155349D02*
Y159747D01*
X368348Y160500D02*
X368500D01*
X354100Y164600D02*
X364248D01*
X368348Y160500D01*
X335595Y164406D02*
X353906D01*
X354100Y164600D01*
X335400Y164211D02*
X335595Y164406D01*
X409033Y159967D02*
X416200Y152800D01*
X408500Y160500D02*
X409033Y159967D01*
X416200Y139000D02*
Y152800D01*
X410400Y133200D02*
X416200Y139000D01*
X410400Y126357D02*
Y133200D01*
X409565Y160500D02*
X412065Y163000D01*
X419500D01*
X408500Y160500D02*
X409565D01*
X410400Y126357D02*
X410850Y125908D01*
X415492D02*
X416708Y124692D01*
X410850Y125908D02*
X415492D01*
X416708Y124692D02*
X420597D01*
X421200Y124089D01*
X310471Y22829D02*
X311300Y22000D01*
X305200Y31326D02*
X305200Y31326D01*
Y30398D02*
X310471Y25126D01*
X305200Y31326D02*
Y43200D01*
X305200Y30398D02*
Y31326D01*
X310471Y22829D02*
Y25126D01*
X311300Y20828D02*
Y22000D01*
X299500Y48900D02*
X305200Y43200D01*
X299500Y48900D02*
Y56542D01*
X311500Y65000D02*
X316000Y60500D01*
X292100Y65000D02*
X311500D01*
X288900Y68200D02*
Y74111D01*
Y68200D02*
X292100Y65000D01*
X262600Y71100D02*
X265711Y74211D01*
X278900D01*
X262600Y61174D02*
Y71100D01*
Y46418D02*
Y53300D01*
Y39537D02*
Y46418D01*
X279000Y42711D02*
Y46500D01*
X288900D01*
X262682D02*
X279000D01*
X262600Y46418D02*
X262682Y46500D01*
X288900D02*
Y50489D01*
Y42511D02*
Y46500D01*
X279000D02*
Y50489D01*
X278900Y50589D02*
X279000Y50489D01*
Y42711D02*
X279100Y42611D01*
X293289Y14500D02*
X304972D01*
X311300Y20828D01*
X288900Y18889D02*
X293289Y14500D01*
X299650Y23350D02*
X299800Y23200D01*
X299500Y36858D02*
X299650Y36707D01*
Y23350D02*
Y36707D01*
X319000Y34100D02*
Y50800D01*
X316900Y32000D02*
X319000Y34100D01*
X311300Y32000D02*
X316900D01*
X316000Y53800D02*
Y60500D01*
Y53800D02*
X319000Y50800D01*
X316000Y60500D02*
X316100Y60400D01*
X322800D01*
X326000Y63600D01*
Y80500D01*
X332700Y48400D02*
X336000Y51700D01*
Y60500D01*
X332700Y24000D02*
Y48400D01*
Y24000D02*
X334700Y22000D01*
X340100D01*
X348100D01*
X350400Y9600D02*
Y19700D01*
X348100Y22000D02*
X350400Y19700D01*
Y33222D02*
X354784D01*
X355805Y32201D02*
X361242D01*
X354784Y33222D02*
X355805Y32201D01*
X361242D02*
X362300Y31143D01*
X196500Y112489D02*
X209000D01*
X216500Y158500D02*
X220000Y155000D01*
Y146100D02*
Y155000D01*
X182500Y165100D02*
X189100Y158500D01*
X216500D01*
X247000Y117000D02*
X261400D01*
X245400Y118600D02*
X247000Y117000D01*
X245400Y118600D02*
Y129300D01*
X242424Y132276D02*
X245400Y129300D01*
X223746Y132276D02*
X242424D01*
X219800Y136222D02*
X223746Y132276D01*
X230140Y107000D02*
Y117000D01*
X220302Y112600D02*
X224235Y116533D01*
X219800Y112600D02*
X220302D01*
X224235Y116533D02*
X229673D01*
X230140Y117000D01*
X201600Y121000D02*
X203500Y122900D01*
X169700Y121000D02*
X201600D01*
X203500Y122900D02*
Y134700D01*
X208884Y136227D02*
X209011Y136100D01*
X205027Y136227D02*
X208884D01*
X203500Y134700D02*
X205027Y136227D01*
X216253Y127000D02*
X230140D01*
X214000Y129253D02*
X216253Y127000D01*
X214000Y129253D02*
Y134500D01*
X212400Y136100D02*
X214000Y134500D01*
X209011Y136100D02*
X212400D01*
X220000Y146100D02*
X220010Y146110D01*
X223848D02*
X223886Y146149D01*
X230008Y147132D02*
X230140Y147000D01*
X224610Y146149D02*
X225593Y147132D01*
X220010Y146110D02*
X223848D01*
X223886Y146149D02*
X224610D01*
X225593Y147132D02*
X230008D01*
X261812Y127412D02*
X265403D01*
X266556Y140536D02*
X267709Y141689D01*
X266556Y128565D02*
Y140536D01*
X261400Y127000D02*
X261812Y127412D01*
X265403D02*
X266556Y128565D01*
X267709Y141689D02*
X270589D01*
X271100Y142200D01*
X282800D01*
X261400Y117000D02*
X267800D01*
X271100Y120300D01*
Y132711D01*
X289135Y132622D02*
X294800Y126957D01*
X282900Y132622D02*
X289135D01*
X198497Y166142D02*
X202065Y169711D01*
X197000Y166142D02*
X198497D01*
X202065Y169711D02*
X208600D01*
X208606Y169717D02*
X219994D01*
X208600Y169711D02*
X208606Y169717D01*
X219994D02*
X220000Y169722D01*
X230140Y167000D02*
Y171940D01*
X231296Y173096D01*
X281504D01*
X230140Y157000D02*
Y167000D01*
X281504Y173096D02*
X282800Y171800D01*
Y165822D02*
Y171800D01*
X262465Y107000D02*
X264554Y109089D01*
X271100D01*
X261400Y107000D02*
X262465D01*
X271145Y109045D02*
X282856D01*
X282900Y109000D01*
X271100Y109089D02*
X271145Y109045D01*
X220800Y21200D02*
X225400Y25800D01*
X202700Y21200D02*
X220800D01*
X225400Y25800D02*
Y30437D01*
X196500Y27400D02*
Y41200D01*
Y27400D02*
X202700Y21200D01*
X225400Y30437D02*
X225763Y30800D01*
X181100Y47600D02*
X190100D01*
X196500Y41200D01*
X184400Y14200D02*
X188400Y18200D01*
Y34700D01*
X185700Y37400D02*
X188400Y34700D01*
X181300Y37400D02*
X185700D01*
X181100Y37600D02*
X181300Y37400D01*
X234903Y68642D02*
X236400D01*
X223100Y71211D02*
X232335D01*
X234903Y68642D01*
X208355Y71156D02*
X223044D01*
X223100Y71211D01*
X208300Y71100D02*
X208355Y71156D01*
X169800Y34300D02*
X173100Y37600D01*
X181100D01*
X169800Y27772D02*
Y34300D01*
X157200Y22400D02*
X162572Y27772D01*
X169800D01*
X157200Y16289D02*
Y22400D01*
X172600Y47600D02*
X181100D01*
X169800Y50400D02*
X172600Y47600D01*
X169800Y50400D02*
Y57300D01*
X168300Y71100D02*
X176700D01*
X181100Y57600D02*
Y66700D01*
X176700Y71100D02*
X181100Y66700D01*
X160400Y57300D02*
X169800D01*
X157400Y47089D02*
Y54300D01*
X160400Y57300D01*
X157595Y70906D02*
X168105D01*
X157400Y70711D02*
X157595Y70906D01*
X168105D02*
X168300Y71100D01*
X168200Y71200D02*
Y79500D01*
X168100Y79600D02*
X168200Y79500D01*
Y71200D02*
X168300Y71100D01*
X208300D02*
Y79600D01*
X133858Y124820D02*
Y152380D01*
X111800Y103200D02*
X117691D01*
X111800Y103200D02*
X111800Y103200D01*
Y112700D02*
X117691D01*
X111800Y112700D02*
X111800Y112700D01*
X129109Y103200D02*
Y112700D01*
X132200Y122142D02*
Y124500D01*
X129109Y119051D02*
X132200Y122142D01*
X129109Y112700D02*
Y119051D01*
X10186Y152386D02*
Y162614D01*
X10100Y162700D02*
X10186Y162614D01*
Y152386D02*
X10272Y152300D01*
X20115D02*
X20157Y152342D01*
Y163149D02*
X20200Y163191D01*
X20157Y152342D02*
Y163149D01*
X30004Y152346D02*
Y163195D01*
X29958Y152300D02*
X30004Y152346D01*
Y163195D02*
X30050Y163241D01*
X39750Y152350D02*
Y162941D01*
X39700Y162991D02*
X39750Y162941D01*
Y152350D02*
X39800Y152300D01*
X49621Y152321D02*
Y162570D01*
Y152321D02*
X49643Y152300D01*
X49600Y162591D02*
X49621Y162570D01*
X59485Y152300D02*
X59492Y152307D01*
Y162584D02*
X59500Y162591D01*
X59492Y152307D02*
Y162584D01*
X69364Y152336D02*
Y162555D01*
X69328Y152300D02*
X69364Y152336D01*
Y162555D02*
X69400Y162591D01*
X79185Y152315D02*
Y162576D01*
X79170Y152300D02*
X79185Y152315D01*
Y162576D02*
X79200Y162591D01*
X88956Y152356D02*
Y162644D01*
Y152356D02*
X89013Y152300D01*
X88900Y162700D02*
X88956Y162644D01*
X98878Y152322D02*
Y162569D01*
X98855Y152300D02*
X98878Y152322D01*
Y162569D02*
X98900Y162591D01*
X29984Y179017D02*
X30134Y178867D01*
Y174184D02*
Y178867D01*
Y174184D02*
X30284Y174034D01*
X98700Y179000D02*
X98800Y178900D01*
Y174109D02*
Y178900D01*
Y174109D02*
X98900Y174009D01*
X88900Y174117D02*
Y178900D01*
X88800Y179000D02*
X88900Y178900D01*
Y174117D02*
X89000Y174017D01*
X10100Y174117D02*
Y178900D01*
Y174117D02*
X10200Y174017D01*
X10000Y179000D02*
X10100Y178900D01*
X20011Y179167D02*
X20111Y179067D01*
Y174284D02*
X20211Y174184D01*
X20111Y174284D02*
Y179067D01*
X39796Y178946D02*
X39896Y178846D01*
Y174063D02*
X39996Y173963D01*
X39896Y174063D02*
Y178846D01*
X49500Y179000D02*
X49550Y178950D01*
Y174059D02*
X49600Y174009D01*
X49550Y174059D02*
Y178950D01*
X59400Y179000D02*
X59450Y178950D01*
Y174059D02*
X59500Y174009D01*
X59450Y174059D02*
Y178950D01*
X69300Y179000D02*
X69350Y178950D01*
Y174059D02*
X69400Y174009D01*
X69350Y174059D02*
Y178950D01*
X79050Y174159D02*
Y178850D01*
X78900Y179000D02*
X79050Y178850D01*
Y174159D02*
X79200Y174009D01*
D62*
X112658Y46588D02*
Y52864D01*
X113650Y45597D02*
X117402D01*
X112658Y46588D02*
X113650Y45597D01*
X117402D02*
X117422Y45576D01*
X120024D01*
X121400Y44200D01*
X115594Y21400D02*
Y22680D01*
X121400Y27206D02*
Y44200D01*
X115594Y22680D02*
X117012Y24097D01*
X118291D01*
X121400Y27206D01*
X226140Y141000D02*
X230140Y137000D01*
X213689Y141000D02*
X226140D01*
X208600Y146089D02*
X213689Y141000D01*
X112652Y52870D02*
X112658Y52864D01*
D63*
X21981Y76897D02*
X29003D01*
X31400Y36300D02*
Y74500D01*
X29003Y76897D02*
X31400Y74500D01*
X33800Y33900D02*
X96500D01*
X31400Y36300D02*
X33800Y33900D01*
D64*
X367689Y71400D02*
D03*
X391311D02*
D03*
X326600Y140589D02*
D03*
Y164211D02*
D03*
X335400Y140589D02*
D03*
Y164211D02*
D03*
Y109989D02*
D03*
Y133611D02*
D03*
X326500D02*
D03*
Y109989D02*
D03*
X421200Y124089D02*
D03*
Y147711D02*
D03*
X288900Y50489D02*
D03*
Y74111D02*
D03*
Y42511D02*
D03*
Y18889D02*
D03*
X279100Y42611D02*
D03*
Y18989D02*
D03*
X278900Y74211D02*
D03*
Y50589D02*
D03*
X350400Y9600D02*
D03*
Y33222D02*
D03*
X220000Y146100D02*
D03*
Y169722D02*
D03*
X209000Y112489D02*
D03*
Y136111D02*
D03*
X208600Y146089D02*
D03*
Y169711D02*
D03*
X196500Y112489D02*
D03*
Y136111D02*
D03*
X282900Y109000D02*
D03*
Y132622D02*
D03*
X271100Y165822D02*
D03*
Y142200D02*
D03*
Y109089D02*
D03*
Y132711D02*
D03*
X282800Y142200D02*
D03*
Y165822D02*
D03*
X219800Y136222D02*
D03*
Y112600D02*
D03*
X184400Y14200D02*
D03*
X208022D02*
D03*
X223100Y71211D02*
D03*
Y47589D02*
D03*
X157200Y39911D02*
D03*
Y16289D02*
D03*
X157400Y70711D02*
D03*
Y47089D02*
D03*
D65*
X394959Y80100D02*
D03*
X364841D02*
D03*
X368500Y160500D02*
D03*
X408500D02*
D03*
X316000Y60500D02*
D03*
X326000Y80500D02*
D03*
X336000Y60500D02*
D03*
X261400Y167000D02*
D03*
Y157000D02*
D03*
Y147000D02*
D03*
Y137000D02*
D03*
Y127000D02*
D03*
Y117000D02*
D03*
Y107000D02*
D03*
X230140D02*
D03*
Y117000D02*
D03*
Y127000D02*
D03*
Y137000D02*
D03*
Y147000D02*
D03*
Y157000D02*
D03*
X168300Y71100D02*
D03*
X208300D02*
D03*
D66*
X357340Y114906D02*
D03*
X349860D02*
D03*
D67*
X182500Y165100D02*
D03*
X157900Y165000D02*
D03*
X299800Y23200D02*
D03*
X16600Y35100D02*
D03*
Y20600D02*
D03*
D68*
X348500Y129800D02*
D03*
Y149485D02*
D03*
X359600Y129858D02*
D03*
Y149542D02*
D03*
X315500Y146343D02*
D03*
Y126657D02*
D03*
X410400Y126357D02*
D03*
Y146043D02*
D03*
X299500Y36858D02*
D03*
Y56542D02*
D03*
X362300Y11457D02*
D03*
Y31143D02*
D03*
X197000Y146458D02*
D03*
Y166142D02*
D03*
X294800Y146642D02*
D03*
Y126957D02*
D03*
X236400Y68642D02*
D03*
Y48957D02*
D03*
D69*
X371000Y147500D02*
D03*
X311300Y42000D02*
D03*
X181100Y57600D02*
D03*
D70*
X371000Y137500D02*
D03*
Y127500D02*
D03*
Y117500D02*
D03*
X399800D02*
D03*
Y127500D02*
D03*
Y137500D02*
D03*
Y147500D02*
D03*
X311300Y32000D02*
D03*
Y22000D02*
D03*
Y12000D02*
D03*
X340100D02*
D03*
Y22000D02*
D03*
Y32000D02*
D03*
Y42000D02*
D03*
X181100Y47600D02*
D03*
Y37600D02*
D03*
Y27600D02*
D03*
X209900D02*
D03*
Y37600D02*
D03*
Y47600D02*
D03*
Y57600D02*
D03*
D71*
X357400Y52700D02*
D03*
X262600Y53300D02*
D03*
Y31663D02*
D03*
X233637Y30800D02*
D03*
D72*
X357400Y60574D02*
D03*
X262600Y61174D02*
D03*
Y39537D02*
D03*
D73*
X6152Y91838D02*
D03*
Y51680D02*
D03*
X20719D02*
D03*
Y91838D02*
D03*
D74*
X230140Y167000D02*
D03*
D75*
X169700Y141000D02*
D03*
X159700Y131000D02*
D03*
X169700Y121000D02*
D03*
D76*
X225763Y30800D02*
D03*
D77*
X169800Y27772D02*
D03*
Y57300D02*
D03*
X49643Y152300D02*
D03*
X59485D02*
D03*
X69328D02*
D03*
X79170D02*
D03*
X89013D02*
D03*
X98855D02*
D03*
X29958D02*
D03*
X39800D02*
D03*
X10272D02*
D03*
X20115D02*
D03*
X59485Y122300D02*
D03*
X49643D02*
D03*
X39800D02*
D03*
X29958D02*
D03*
X20115D02*
D03*
X10272D02*
D03*
X79170D02*
D03*
X69328D02*
D03*
X98855D02*
D03*
X89013D02*
D03*
D78*
X116142Y152380D02*
D03*
X133858D02*
D03*
X116142Y124820D02*
D03*
X133858D02*
D03*
D79*
X136200Y53000D02*
D03*
Y63000D02*
D03*
Y73000D02*
D03*
D80*
X132306Y12200D02*
D03*
X110000Y16600D02*
D03*
X38700Y14400D02*
D03*
X101529Y41750D02*
D03*
X27407Y70302D02*
D03*
X27200Y66700D02*
D03*
X27408Y74038D02*
D03*
X108900Y48100D02*
D03*
X104225Y45100D02*
D03*
X132205Y21600D02*
D03*
X132200Y30900D02*
D03*
X132100Y40400D02*
D03*
X111800Y103200D02*
D03*
Y112700D02*
D03*
X97700Y47700D02*
D03*
X27500Y81100D02*
D03*
X27300Y62600D02*
D03*
X29984Y179017D02*
D03*
X98700Y179000D02*
D03*
X88800D02*
D03*
X26000Y8400D02*
D03*
X99300Y58600D02*
D03*
X10000Y179000D02*
D03*
X20011Y179167D02*
D03*
X39796Y178946D02*
D03*
X49500Y179000D02*
D03*
X59400D02*
D03*
X69300D02*
D03*
X78900D02*
D03*
X79000Y29300D02*
D03*
X35200Y29400D02*
D03*
M02*
