G04*
G04 #@! TF.GenerationSoftware,Altium Limited,Altium Designer,21.4.1 (30)*
G04*
G04 Layer_Physical_Order=2*
G04 Layer_Color=16711680*
%FSLAX25Y25*%
%MOIN*%
G70*
G04*
G04 #@! TF.SameCoordinates,4B32E59A-19CF-40ED-AED0-984A1E0E73E4*
G04*
G04*
G04 #@! TF.FilePolarity,Positive*
G04*
G01*
G75*
%ADD17C,0.01181*%
%ADD61C,0.01968*%
%ADD64C,0.05118*%
%ADD65C,0.05906*%
%ADD66O,0.05512X0.06299*%
%ADD67C,0.11811*%
%ADD68C,0.07500*%
G04:AMPARAMS|DCode=69|XSize=62.99mil|YSize=62.99mil|CornerRadius=7.87mil|HoleSize=0mil|Usage=FLASHONLY|Rotation=0.000|XOffset=0mil|YOffset=0mil|HoleType=Round|Shape=RoundedRectangle|*
%AMROUNDEDRECTD69*
21,1,0.06299,0.04724,0,0,0.0*
21,1,0.04724,0.06299,0,0,0.0*
1,1,0.01575,0.02362,-0.02362*
1,1,0.01575,-0.02362,-0.02362*
1,1,0.01575,-0.02362,0.02362*
1,1,0.01575,0.02362,0.02362*
%
%ADD69ROUNDEDRECTD69*%
%ADD70C,0.06299*%
%ADD71C,0.05600*%
G04:AMPARAMS|DCode=72|XSize=56mil|YSize=56mil|CornerRadius=7mil|HoleSize=0mil|Usage=FLASHONLY|Rotation=270.000|XOffset=0mil|YOffset=0mil|HoleType=Round|Shape=RoundedRectangle|*
%AMROUNDEDRECTD72*
21,1,0.05600,0.04200,0,0,270.0*
21,1,0.04200,0.05600,0,0,270.0*
1,1,0.01400,-0.02100,-0.02100*
1,1,0.01400,-0.02100,0.02100*
1,1,0.01400,0.02100,0.02100*
1,1,0.01400,0.02100,-0.02100*
%
%ADD72ROUNDEDRECTD72*%
G04:AMPARAMS|DCode=73|XSize=94.49mil|YSize=62.99mil|CornerRadius=15.75mil|HoleSize=0mil|Usage=FLASHONLY|Rotation=0.000|XOffset=0mil|YOffset=0mil|HoleType=Round|Shape=RoundedRectangle|*
%AMROUNDEDRECTD73*
21,1,0.09449,0.03150,0,0,0.0*
21,1,0.06299,0.06299,0,0,0.0*
1,1,0.03150,0.03150,-0.01575*
1,1,0.03150,-0.03150,-0.01575*
1,1,0.03150,-0.03150,0.01575*
1,1,0.03150,0.03150,0.01575*
%
%ADD73ROUNDEDRECTD73*%
G04:AMPARAMS|DCode=74|XSize=59.06mil|YSize=59.06mil|CornerRadius=14.76mil|HoleSize=0mil|Usage=FLASHONLY|Rotation=0.000|XOffset=0mil|YOffset=0mil|HoleType=Round|Shape=RoundedRectangle|*
%AMROUNDEDRECTD74*
21,1,0.05906,0.02953,0,0,0.0*
21,1,0.02953,0.05906,0,0,0.0*
1,1,0.02953,0.01476,-0.01476*
1,1,0.02953,-0.01476,-0.01476*
1,1,0.02953,-0.01476,0.01476*
1,1,0.02953,0.01476,0.01476*
%
%ADD74ROUNDEDRECTD74*%
%ADD75C,0.05130*%
G04:AMPARAMS|DCode=76|XSize=56mil|YSize=56mil|CornerRadius=7mil|HoleSize=0mil|Usage=FLASHONLY|Rotation=0.000|XOffset=0mil|YOffset=0mil|HoleType=Round|Shape=RoundedRectangle|*
%AMROUNDEDRECTD76*
21,1,0.05600,0.04200,0,0,0.0*
21,1,0.04200,0.05600,0,0,0.0*
1,1,0.01400,0.02100,-0.02100*
1,1,0.01400,-0.02100,-0.02100*
1,1,0.01400,-0.02100,0.02100*
1,1,0.01400,0.02100,0.02100*
%
%ADD76ROUNDEDRECTD76*%
%ADD77C,0.04724*%
G04:AMPARAMS|DCode=78|XSize=118.11mil|YSize=82.68mil|CornerRadius=20.67mil|HoleSize=0mil|Usage=FLASHONLY|Rotation=90.000|XOffset=0mil|YOffset=0mil|HoleType=Round|Shape=RoundedRectangle|*
%AMROUNDEDRECTD78*
21,1,0.11811,0.04134,0,0,90.0*
21,1,0.07677,0.08268,0,0,90.0*
1,1,0.04134,0.02067,0.03839*
1,1,0.04134,0.02067,-0.03839*
1,1,0.04134,-0.02067,-0.03839*
1,1,0.04134,-0.02067,0.03839*
%
%ADD78ROUNDEDRECTD78*%
%ADD79C,0.06890*%
%ADD80C,0.02756*%
%ADD81C,0.02756*%
%ADD82C,0.03150*%
%ADD83C,0.10000*%
G36*
X424392Y185801D02*
X425131D01*
X426580Y185512D01*
X427946Y184947D01*
X429175Y184126D01*
X430221Y183080D01*
X431042Y181851D01*
X431607Y180485D01*
X431896Y179036D01*
Y178297D01*
X431901Y7005D01*
Y6434D01*
X431678Y5313D01*
X431241Y4257D01*
X430606Y3307D01*
X429798Y2499D01*
X428848Y1864D01*
X427792Y1427D01*
X426673Y1204D01*
X426103Y1206D01*
X426102Y1206D01*
X426100Y1206D01*
X6983Y1322D01*
X6983Y1322D01*
X6982Y1322D01*
X6413D01*
X5297Y1544D01*
X4245Y1980D01*
X3299Y2612D01*
X2494Y3417D01*
X1862Y4364D01*
X1426Y5415D01*
X1204Y6532D01*
Y7101D01*
X1207Y55200D01*
X15110D01*
X15226Y55224D01*
X15345D01*
X15953Y55345D01*
X16063Y55390D01*
X16179Y55413D01*
X16752Y55651D01*
X16851Y55717D01*
X16961Y55762D01*
X17477Y56107D01*
X17560Y56190D01*
X17659Y56256D01*
X18098Y56695D01*
X18164Y56794D01*
X18248Y56877D01*
X18592Y57393D01*
X18638Y57503D01*
X18703Y57602D01*
X18941Y58175D01*
X18964Y58291D01*
X19010Y58401D01*
X19130Y59009D01*
Y59128D01*
X19154Y59244D01*
Y59554D01*
Y83964D01*
Y84274D01*
X19130Y84390D01*
Y84509D01*
X19010Y85117D01*
X18964Y85227D01*
X18941Y85343D01*
X18703Y85917D01*
X18638Y86015D01*
X18592Y86125D01*
X18248Y86641D01*
X18164Y86724D01*
X18098Y86823D01*
X17659Y87262D01*
X17560Y87328D01*
X17477Y87411D01*
X16961Y87756D01*
X16851Y87802D01*
X16752Y87867D01*
X16179Y88105D01*
X16063Y88128D01*
X15953Y88174D01*
X15345Y88295D01*
X15226D01*
X15110Y88318D01*
X1563D01*
X1209Y88671D01*
X1215Y179352D01*
X1215Y179352D01*
X1215Y179352D01*
Y179987D01*
X1463Y181234D01*
X1949Y182408D01*
X2655Y183465D01*
X3554Y184363D01*
X4611Y185069D01*
X5785Y185556D01*
X7031Y185804D01*
X7667D01*
X424392Y185801D01*
D02*
G37*
%LPC*%
G36*
X220441Y173068D02*
X219559D01*
X218708Y172840D01*
X217945Y172400D01*
X217322Y171777D01*
X216882Y171014D01*
X216653Y170163D01*
Y169281D01*
X216882Y168430D01*
X217322Y167667D01*
X217945Y167044D01*
X218708Y166604D01*
X219559Y166376D01*
X220441D01*
X221292Y166604D01*
X222055Y167044D01*
X222678Y167667D01*
X223118Y168430D01*
X223346Y169281D01*
Y170163D01*
X223118Y171014D01*
X222678Y171777D01*
X222055Y172400D01*
X221292Y172840D01*
X220441Y173068D01*
D02*
G37*
G36*
X209041Y173057D02*
X208159D01*
X207308Y172829D01*
X206545Y172389D01*
X205922Y171766D01*
X205482Y171003D01*
X205254Y170152D01*
Y169271D01*
X205482Y168419D01*
X205922Y167656D01*
X206545Y167033D01*
X207308Y166593D01*
X208159Y166365D01*
X209041D01*
X209892Y166593D01*
X210655Y167033D01*
X211278Y167656D01*
X211718Y168419D01*
X211947Y169271D01*
Y170152D01*
X211718Y171003D01*
X211278Y171766D01*
X210655Y172389D01*
X209892Y172829D01*
X209041Y173057D01*
D02*
G37*
G36*
X261892Y170740D02*
X260908D01*
X259956Y170485D01*
X259103Y169993D01*
X258407Y169297D01*
X257915Y168444D01*
X257660Y167492D01*
Y166508D01*
X257915Y165556D01*
X258407Y164704D01*
X259103Y164007D01*
X259956Y163515D01*
X260908Y163260D01*
X261892D01*
X262844Y163515D01*
X263697Y164007D01*
X264393Y164704D01*
X264885Y165556D01*
X265140Y166508D01*
Y167492D01*
X264885Y168444D01*
X264393Y169297D01*
X263697Y169993D01*
X262844Y170485D01*
X261892Y170740D01*
D02*
G37*
G36*
X231616Y170784D02*
X228664D01*
X227781Y170609D01*
X227032Y170108D01*
X226531Y169360D01*
X226356Y168476D01*
Y165524D01*
X226531Y164640D01*
X227032Y163891D01*
X227781Y163391D01*
X228664Y163215D01*
X231616D01*
X232500Y163391D01*
X233249Y163891D01*
X233749Y164640D01*
X233925Y165524D01*
Y168476D01*
X233749Y169360D01*
X233249Y170108D01*
X232500Y170609D01*
X231616Y170784D01*
D02*
G37*
G36*
X283241Y169168D02*
X282359D01*
X281508Y168940D01*
X280745Y168500D01*
X280122Y167877D01*
X279682Y167114D01*
X279453Y166263D01*
Y165382D01*
X279682Y164530D01*
X280122Y163767D01*
X280745Y163144D01*
X281508Y162704D01*
X282359Y162476D01*
X283241D01*
X284092Y162704D01*
X284855Y163144D01*
X285478Y163767D01*
X285918Y164530D01*
X286146Y165382D01*
Y166263D01*
X285918Y167114D01*
X285478Y167877D01*
X284855Y168500D01*
X284092Y168940D01*
X283241Y169168D01*
D02*
G37*
G36*
X335841Y167558D02*
X334959D01*
X334108Y167329D01*
X333345Y166889D01*
X332722Y166266D01*
X332282Y165503D01*
X332053Y164652D01*
Y163770D01*
X332282Y162919D01*
X332722Y162156D01*
X333345Y161533D01*
X334108Y161093D01*
X334959Y160865D01*
X335841D01*
X336692Y161093D01*
X337455Y161533D01*
X338078Y162156D01*
X338518Y162919D01*
X338747Y163770D01*
Y164652D01*
X338518Y165503D01*
X338078Y166266D01*
X337455Y166889D01*
X336692Y167329D01*
X335841Y167558D01*
D02*
G37*
G36*
X183159Y171793D02*
X181841D01*
X180548Y171536D01*
X179330Y171031D01*
X178234Y170299D01*
X177301Y169367D01*
X176569Y168270D01*
X176064Y167052D01*
X175807Y165759D01*
Y164441D01*
X176064Y163148D01*
X176569Y161930D01*
X177301Y160834D01*
X178234Y159901D01*
X179330Y159169D01*
X180548Y158664D01*
X181841Y158407D01*
X183159D01*
X184452Y158664D01*
X185670Y159169D01*
X186767Y159901D01*
X187699Y160834D01*
X188431Y161930D01*
X188936Y163148D01*
X189193Y164441D01*
Y165759D01*
X188936Y167052D01*
X188431Y168270D01*
X187699Y169367D01*
X186767Y170299D01*
X185670Y171031D01*
X184452Y171536D01*
X183159Y171793D01*
D02*
G37*
G36*
X408992Y164240D02*
X408008D01*
X407056Y163985D01*
X406204Y163493D01*
X405507Y162796D01*
X405015Y161944D01*
X404760Y160992D01*
Y160008D01*
X405015Y159056D01*
X405507Y158203D01*
X406204Y157507D01*
X407056Y157015D01*
X408008Y156760D01*
X408992D01*
X409944Y157015D01*
X410796Y157507D01*
X411493Y158203D01*
X411985Y159056D01*
X412240Y160008D01*
Y160992D01*
X411985Y161944D01*
X411493Y162796D01*
X410796Y163493D01*
X409944Y163985D01*
X408992Y164240D01*
D02*
G37*
G36*
X261892Y160740D02*
X260908D01*
X259956Y160485D01*
X259103Y159993D01*
X258407Y159297D01*
X257915Y158444D01*
X257660Y157492D01*
Y156508D01*
X257915Y155556D01*
X258407Y154703D01*
X259103Y154007D01*
X259956Y153515D01*
X260908Y153260D01*
X261892D01*
X262844Y153515D01*
X263697Y154007D01*
X264393Y154703D01*
X264885Y155556D01*
X265140Y156508D01*
Y157492D01*
X264885Y158444D01*
X264393Y159297D01*
X263697Y159993D01*
X262844Y160485D01*
X261892Y160740D01*
D02*
G37*
G36*
X230633D02*
X229648D01*
X228696Y160485D01*
X227844Y159993D01*
X227147Y159297D01*
X226655Y158444D01*
X226400Y157492D01*
Y156508D01*
X226655Y155556D01*
X227147Y154703D01*
X227844Y154007D01*
X228696Y153515D01*
X229648Y153260D01*
X230633D01*
X231584Y153515D01*
X232437Y154007D01*
X233133Y154703D01*
X233625Y155556D01*
X233880Y156508D01*
Y157492D01*
X233625Y158444D01*
X233133Y159297D01*
X232437Y159993D01*
X231584Y160485D01*
X230633Y160740D01*
D02*
G37*
G36*
X99270Y155450D02*
X98440D01*
X97639Y155235D01*
X96921Y154820D01*
X96335Y154234D01*
X95920Y153516D01*
X95705Y152715D01*
Y151885D01*
X95920Y151084D01*
X96335Y150366D01*
X96921Y149780D01*
X97639Y149365D01*
X98440Y149150D01*
X99270D01*
X100071Y149365D01*
X100789Y149780D01*
X101375Y150366D01*
X101790Y151084D01*
X102005Y151885D01*
Y152715D01*
X101790Y153516D01*
X101375Y154234D01*
X100789Y154820D01*
X100071Y155235D01*
X99270Y155450D01*
D02*
G37*
G36*
X89427D02*
X88598D01*
X87797Y155235D01*
X87079Y154820D01*
X86492Y154234D01*
X86078Y153516D01*
X85863Y152715D01*
Y151885D01*
X86078Y151084D01*
X86492Y150366D01*
X87079Y149780D01*
X87797Y149365D01*
X88598Y149150D01*
X89427D01*
X90228Y149365D01*
X90947Y149780D01*
X91533Y150366D01*
X91948Y151084D01*
X92162Y151885D01*
Y152715D01*
X91948Y153516D01*
X91533Y154234D01*
X90947Y154820D01*
X90228Y155235D01*
X89427Y155450D01*
D02*
G37*
G36*
X79585D02*
X78755D01*
X77954Y155235D01*
X77236Y154820D01*
X76650Y154234D01*
X76235Y153516D01*
X76020Y152715D01*
Y151885D01*
X76235Y151084D01*
X76650Y150366D01*
X77236Y149780D01*
X77954Y149365D01*
X78755Y149150D01*
X79585D01*
X80386Y149365D01*
X81104Y149780D01*
X81690Y150366D01*
X82105Y151084D01*
X82320Y151885D01*
Y152715D01*
X82105Y153516D01*
X81690Y154234D01*
X81104Y154820D01*
X80386Y155235D01*
X79585Y155450D01*
D02*
G37*
G36*
X69742D02*
X68913D01*
X68112Y155235D01*
X67394Y154820D01*
X66807Y154234D01*
X66393Y153516D01*
X66178Y152715D01*
Y151885D01*
X66393Y151084D01*
X66807Y150366D01*
X67394Y149780D01*
X68112Y149365D01*
X68913Y149150D01*
X69742D01*
X70543Y149365D01*
X71262Y149780D01*
X71848Y150366D01*
X72263Y151084D01*
X72477Y151885D01*
Y152715D01*
X72263Y153516D01*
X71848Y154234D01*
X71262Y154820D01*
X70543Y155235D01*
X69742Y155450D01*
D02*
G37*
G36*
X59900D02*
X59070D01*
X58269Y155235D01*
X57551Y154820D01*
X56965Y154234D01*
X56550Y153516D01*
X56335Y152715D01*
Y151885D01*
X56550Y151084D01*
X56965Y150366D01*
X57551Y149780D01*
X58269Y149365D01*
X59070Y149150D01*
X59900D01*
X60701Y149365D01*
X61419Y149780D01*
X62005Y150366D01*
X62420Y151084D01*
X62635Y151885D01*
Y152715D01*
X62420Y153516D01*
X62005Y154234D01*
X61419Y154820D01*
X60701Y155235D01*
X59900Y155450D01*
D02*
G37*
G36*
X50057D02*
X49228D01*
X48427Y155235D01*
X47709Y154820D01*
X47122Y154234D01*
X46708Y153516D01*
X46493Y152715D01*
Y151885D01*
X46708Y151084D01*
X47122Y150366D01*
X47709Y149780D01*
X48427Y149365D01*
X49228Y149150D01*
X50057D01*
X50858Y149365D01*
X51576Y149780D01*
X52163Y150366D01*
X52578Y151084D01*
X52792Y151885D01*
Y152715D01*
X52578Y153516D01*
X52163Y154234D01*
X51576Y154820D01*
X50858Y155235D01*
X50057Y155450D01*
D02*
G37*
G36*
X40215D02*
X39385D01*
X38584Y155235D01*
X37866Y154820D01*
X37280Y154234D01*
X36865Y153516D01*
X36650Y152715D01*
Y151885D01*
X36865Y151084D01*
X37280Y150366D01*
X37866Y149780D01*
X38584Y149365D01*
X39385Y149150D01*
X40215D01*
X41016Y149365D01*
X41734Y149780D01*
X42320Y150366D01*
X42735Y151084D01*
X42950Y151885D01*
Y152715D01*
X42735Y153516D01*
X42320Y154234D01*
X41734Y154820D01*
X41016Y155235D01*
X40215Y155450D01*
D02*
G37*
G36*
X30372D02*
X29543D01*
X28742Y155235D01*
X28024Y154820D01*
X27437Y154234D01*
X27022Y153516D01*
X26808Y152715D01*
Y151885D01*
X27022Y151084D01*
X27437Y150366D01*
X28024Y149780D01*
X28742Y149365D01*
X29543Y149150D01*
X30372D01*
X31173Y149365D01*
X31891Y149780D01*
X32478Y150366D01*
X32892Y151084D01*
X33107Y151885D01*
Y152715D01*
X32892Y153516D01*
X32478Y154234D01*
X31891Y154820D01*
X31173Y155235D01*
X30372Y155450D01*
D02*
G37*
G36*
X20530D02*
X19700D01*
X18899Y155235D01*
X18181Y154820D01*
X17595Y154234D01*
X17180Y153516D01*
X16965Y152715D01*
Y151885D01*
X17180Y151084D01*
X17595Y150366D01*
X18181Y149780D01*
X18899Y149365D01*
X19700Y149150D01*
X20530D01*
X21331Y149365D01*
X22049Y149780D01*
X22635Y150366D01*
X23050Y151084D01*
X23265Y151885D01*
Y152715D01*
X23050Y153516D01*
X22635Y154234D01*
X22049Y154820D01*
X21331Y155235D01*
X20530Y155450D01*
D02*
G37*
G36*
X10687D02*
X9858D01*
X9057Y155235D01*
X8338Y154820D01*
X7752Y154234D01*
X7338Y153516D01*
X7123Y152715D01*
Y151885D01*
X7338Y151084D01*
X7752Y150366D01*
X8338Y149780D01*
X9057Y149365D01*
X9858Y149150D01*
X10687D01*
X11488Y149365D01*
X12206Y149780D01*
X12793Y150366D01*
X13207Y151084D01*
X13422Y151885D01*
Y152715D01*
X13207Y153516D01*
X12793Y154234D01*
X12206Y154820D01*
X11488Y155235D01*
X10687Y155450D01*
D02*
G37*
G36*
X135925Y159097D02*
X131791D01*
X131046Y158999D01*
X130352Y158711D01*
X129756Y158254D01*
X129298Y157658D01*
X129010Y156963D01*
X128912Y156218D01*
Y148541D01*
X129010Y147796D01*
X129298Y147101D01*
X129756Y146505D01*
X130352Y146048D01*
X131046Y145760D01*
X131791Y145662D01*
X135925D01*
X136670Y145760D01*
X137365Y146048D01*
X137961Y146505D01*
X138418Y147101D01*
X138706Y147796D01*
X138804Y148541D01*
Y156218D01*
X138706Y156963D01*
X138418Y157658D01*
X137961Y158254D01*
X137365Y158711D01*
X136670Y158999D01*
X135925Y159097D01*
D02*
G37*
G36*
X360197Y154080D02*
X359003D01*
X357849Y153771D01*
X356814Y153173D01*
X355969Y152329D01*
X355372Y151294D01*
X355063Y150140D01*
Y148945D01*
X355372Y147791D01*
X355969Y146756D01*
X356814Y145912D01*
X357849Y145314D01*
X359003Y145005D01*
X360197D01*
X361351Y145314D01*
X362386Y145912D01*
X363231Y146756D01*
X363828Y147791D01*
X364137Y148945D01*
Y150140D01*
X363828Y151294D01*
X363231Y152329D01*
X362386Y153173D01*
X361351Y153771D01*
X360197Y154080D01*
D02*
G37*
G36*
X349097Y154022D02*
X347903D01*
X346749Y153713D01*
X345714Y153116D01*
X344869Y152271D01*
X344272Y151236D01*
X343963Y150082D01*
Y148888D01*
X344272Y147734D01*
X344869Y146699D01*
X345714Y145854D01*
X346749Y145257D01*
X347903Y144948D01*
X349097D01*
X350251Y145257D01*
X351286Y145854D01*
X352131Y146699D01*
X352728Y147734D01*
X353037Y148888D01*
Y150082D01*
X352728Y151236D01*
X352131Y152271D01*
X351286Y153116D01*
X350251Y153713D01*
X349097Y154022D01*
D02*
G37*
G36*
X327041Y167558D02*
X326159D01*
X325308Y167329D01*
X324545Y166889D01*
X323922Y166266D01*
X323482Y165503D01*
X323253Y164652D01*
Y163770D01*
X323482Y162919D01*
X323922Y162156D01*
X324545Y161533D01*
X324794Y161390D01*
Y148600D01*
X324931Y147909D01*
X325323Y147323D01*
X328861Y143785D01*
X328850Y143731D01*
X328290Y143477D01*
X327892Y143707D01*
X327041Y143935D01*
X326159D01*
X325308Y143707D01*
X324545Y143267D01*
X323922Y142644D01*
X323482Y141881D01*
X323253Y141030D01*
Y140148D01*
X323482Y139297D01*
X323922Y138534D01*
X324545Y137911D01*
X325308Y137471D01*
X326159Y137242D01*
X327041D01*
X327892Y137471D01*
X328655Y137911D01*
X328715Y137971D01*
X329238Y137787D01*
X329331Y137320D01*
X329723Y136734D01*
X332128Y134329D01*
X332053Y134052D01*
Y133170D01*
X332282Y132319D01*
X332722Y131556D01*
X333192Y131086D01*
Y124314D01*
X327986Y119108D01*
X321200D01*
X320355Y118940D01*
X319639Y118461D01*
X313239Y112061D01*
X312760Y111345D01*
X312592Y110500D01*
Y100814D01*
X310486Y98708D01*
X249915D01*
X247108Y101514D01*
Y131500D01*
X246940Y132345D01*
X246461Y133061D01*
X240961Y138561D01*
X240245Y139040D01*
X239400Y139208D01*
X233184D01*
X233133Y139296D01*
X232437Y139993D01*
X231584Y140485D01*
X230633Y140740D01*
X229648D01*
X228696Y140485D01*
X227844Y139993D01*
X227147Y139296D01*
X226655Y138444D01*
X226400Y137492D01*
Y136508D01*
X226655Y135556D01*
X227147Y134704D01*
X227844Y134007D01*
X228696Y133515D01*
X229648Y133260D01*
X230633D01*
X231584Y133515D01*
X232437Y134007D01*
X233133Y134704D01*
X233184Y134792D01*
X238486D01*
X242692Y130586D01*
Y100600D01*
X242860Y99755D01*
X243339Y99039D01*
X247439Y94939D01*
X248155Y94460D01*
X249000Y94292D01*
X311400D01*
X312245Y94460D01*
X312961Y94939D01*
X316361Y98339D01*
X316840Y99055D01*
X317008Y99900D01*
Y109585D01*
X322114Y114692D01*
X328900D01*
X329745Y114860D01*
X330461Y115339D01*
X336961Y121839D01*
X337440Y122555D01*
X337608Y123400D01*
Y131086D01*
X338078Y131556D01*
X338221Y131804D01*
X339297D01*
X340142Y131972D01*
X340859Y132451D01*
X342473Y134065D01*
X342951Y134781D01*
X343120Y135626D01*
Y152917D01*
X345140Y154937D01*
X361684D01*
X363994Y152626D01*
X364710Y152148D01*
X365555Y151980D01*
X375705D01*
X381746Y145939D01*
X382462Y145460D01*
X383307Y145292D01*
X396529D01*
X396650Y145083D01*
X397383Y144350D01*
X398280Y143831D01*
X399282Y143563D01*
X400318D01*
X401320Y143831D01*
X402217Y144350D01*
X402950Y145083D01*
X403469Y145980D01*
X403737Y146982D01*
Y148018D01*
X403469Y149020D01*
X402950Y149917D01*
X402217Y150650D01*
X401320Y151169D01*
X400318Y151437D01*
X399282D01*
X398280Y151169D01*
X397383Y150650D01*
X396650Y149917D01*
X396529Y149708D01*
X384221D01*
X378180Y155748D01*
X377464Y156227D01*
X376619Y156395D01*
X369563D01*
X369497Y156895D01*
X369944Y157015D01*
X370796Y157507D01*
X371493Y158203D01*
X371985Y159056D01*
X372240Y160008D01*
Y160992D01*
X371985Y161944D01*
X371493Y162796D01*
X370796Y163493D01*
X369944Y163985D01*
X368992Y164240D01*
X368008D01*
X367056Y163985D01*
X366203Y163493D01*
X365507Y162796D01*
X365015Y161944D01*
X364760Y160992D01*
Y160008D01*
X365015Y159056D01*
X365507Y158203D01*
X366203Y157507D01*
X367056Y157015D01*
X367503Y156895D01*
X367437Y156395D01*
X366470D01*
X364159Y158705D01*
X363443Y159184D01*
X362598Y159352D01*
X344225D01*
X343380Y159184D01*
X342664Y158705D01*
X339351Y155392D01*
X338872Y154676D01*
X338704Y153831D01*
Y142559D01*
X338204Y142425D01*
X338078Y142644D01*
X337455Y143267D01*
X336692Y143707D01*
X335841Y143935D01*
X334959D01*
X334108Y143707D01*
X333345Y143267D01*
X333268Y143190D01*
X332806Y143381D01*
Y144200D01*
X332669Y144891D01*
X332277Y145477D01*
X328406Y149348D01*
Y161390D01*
X328655Y161533D01*
X329278Y162156D01*
X329718Y162919D01*
X329946Y163770D01*
Y164652D01*
X329718Y165503D01*
X329278Y166266D01*
X328655Y166889D01*
X327892Y167329D01*
X327041Y167558D01*
D02*
G37*
G36*
X373362Y151468D02*
X368638D01*
X368023Y151346D01*
X367502Y150998D01*
X367154Y150477D01*
X367032Y149862D01*
Y145138D01*
X367154Y144523D01*
X367502Y144002D01*
X368023Y143654D01*
X368638Y143532D01*
X373362D01*
X373977Y143654D01*
X374498Y144002D01*
X374846Y144523D01*
X374968Y145138D01*
Y149862D01*
X374846Y150477D01*
X374498Y150998D01*
X373977Y151346D01*
X373362Y151468D01*
D02*
G37*
G36*
X261892Y150740D02*
X260908D01*
X259956Y150485D01*
X259103Y149993D01*
X258407Y149296D01*
X257915Y148444D01*
X257660Y147492D01*
Y146508D01*
X257915Y145556D01*
X258407Y144703D01*
X259103Y144007D01*
X259956Y143515D01*
X260908Y143260D01*
X261892D01*
X262844Y143515D01*
X263697Y144007D01*
X264393Y144703D01*
X264885Y145556D01*
X265140Y146508D01*
Y147492D01*
X264885Y148444D01*
X264393Y149296D01*
X263697Y149993D01*
X262844Y150485D01*
X261892Y150740D01*
D02*
G37*
G36*
X230633D02*
X229648D01*
X228696Y150485D01*
X227844Y149993D01*
X227147Y149296D01*
X226655Y148444D01*
X226400Y147492D01*
Y146508D01*
X226655Y145556D01*
X227147Y144703D01*
X227844Y144007D01*
X228696Y143515D01*
X229648Y143260D01*
X230633D01*
X231584Y143515D01*
X232437Y144007D01*
X233133Y144703D01*
X233625Y145556D01*
X233880Y146508D01*
Y147492D01*
X233625Y148444D01*
X233133Y149296D01*
X232437Y149993D01*
X231584Y150485D01*
X230633Y150740D01*
D02*
G37*
G36*
X220441Y149446D02*
X219559D01*
X218708Y149218D01*
X217945Y148778D01*
X217322Y148155D01*
X216882Y147392D01*
X216653Y146541D01*
Y145659D01*
X216882Y144808D01*
X217322Y144045D01*
X217945Y143422D01*
X218708Y142982D01*
X219559Y142754D01*
X220441D01*
X221292Y142982D01*
X222055Y143422D01*
X222678Y144045D01*
X223118Y144808D01*
X223346Y145659D01*
Y146541D01*
X223118Y147392D01*
X222678Y148155D01*
X222055Y148778D01*
X221292Y149218D01*
X220441Y149446D01*
D02*
G37*
G36*
X283241Y145546D02*
X282359D01*
X281508Y145318D01*
X280745Y144878D01*
X280122Y144255D01*
X279682Y143492D01*
X279453Y142641D01*
Y141759D01*
X279682Y140908D01*
X280122Y140145D01*
X280745Y139522D01*
X281508Y139082D01*
X282359Y138854D01*
X283241D01*
X284092Y139082D01*
X284855Y139522D01*
X285478Y140145D01*
X285918Y140908D01*
X286146Y141759D01*
Y142641D01*
X285918Y143492D01*
X285478Y144255D01*
X284855Y144878D01*
X284092Y145318D01*
X283241Y145546D01*
D02*
G37*
G36*
X271541D02*
X270659D01*
X269808Y145318D01*
X269045Y144878D01*
X268422Y144255D01*
X267982Y143492D01*
X267754Y142641D01*
Y141759D01*
X267982Y140908D01*
X268422Y140145D01*
X269045Y139522D01*
X269808Y139082D01*
X270659Y138854D01*
X271541D01*
X272392Y139082D01*
X273155Y139522D01*
X273778Y140145D01*
X274218Y140908D01*
X274447Y141759D01*
Y142641D01*
X274218Y143492D01*
X273778Y144255D01*
X273155Y144878D01*
X272392Y145318D01*
X271541Y145546D01*
D02*
G37*
G36*
X170141Y144352D02*
X169259D01*
X168406Y144124D01*
X167642Y143683D01*
X167017Y143058D01*
X166576Y142294D01*
X166348Y141441D01*
Y140559D01*
X166576Y139706D01*
X167017Y138942D01*
X167642Y138317D01*
X168406Y137876D01*
X169259Y137648D01*
X170141D01*
X170994Y137876D01*
X171758Y138317D01*
X172383Y138942D01*
X172824Y139706D01*
X173052Y140559D01*
Y141441D01*
X172824Y142294D01*
X172383Y143058D01*
X171758Y143683D01*
X170994Y144124D01*
X170141Y144352D01*
D02*
G37*
G36*
X400318Y141437D02*
X399282D01*
X398280Y141169D01*
X397383Y140650D01*
X396650Y139917D01*
X396131Y139020D01*
X395863Y138018D01*
Y136982D01*
X396131Y135980D01*
X396650Y135083D01*
X397383Y134350D01*
X398280Y133831D01*
X399282Y133563D01*
X400318D01*
X401320Y133831D01*
X402217Y134350D01*
X402950Y135083D01*
X403469Y135980D01*
X403737Y136982D01*
Y138018D01*
X403469Y139020D01*
X402950Y139917D01*
X402217Y140650D01*
X401320Y141169D01*
X400318Y141437D01*
D02*
G37*
G36*
X371518D02*
X370482D01*
X369480Y141169D01*
X368583Y140650D01*
X367850Y139917D01*
X367331Y139020D01*
X367063Y138018D01*
Y136982D01*
X367331Y135980D01*
X367850Y135083D01*
X368583Y134350D01*
X369480Y133831D01*
X370482Y133563D01*
X371518D01*
X372520Y133831D01*
X373417Y134350D01*
X374150Y135083D01*
X374669Y135980D01*
X374937Y136982D01*
Y138018D01*
X374669Y139020D01*
X374150Y139917D01*
X373417Y140650D01*
X372520Y141169D01*
X371518Y141437D01*
D02*
G37*
G36*
X197597Y170680D02*
X196403D01*
X195249Y170371D01*
X194214Y169773D01*
X193369Y168929D01*
X192772Y167894D01*
X192463Y166740D01*
Y165545D01*
X192772Y164391D01*
X193369Y163356D01*
X194214Y162512D01*
X195249Y161914D01*
X196403Y161605D01*
X197597D01*
X198690Y161898D01*
X201894Y158694D01*
Y118748D01*
X198401Y115256D01*
X197792Y115607D01*
X196941Y115835D01*
X196059D01*
X195208Y115607D01*
X194445Y115167D01*
X193822Y114544D01*
X193382Y113781D01*
X193154Y112929D01*
Y112048D01*
X193382Y111197D01*
X193822Y110434D01*
X194445Y109811D01*
X195208Y109371D01*
X196059Y109142D01*
X196941D01*
X197792Y109371D01*
X198555Y109811D01*
X199178Y110434D01*
X199618Y111197D01*
X199722Y111582D01*
X200069Y111814D01*
X204977Y116723D01*
X205369Y117309D01*
X205506Y118000D01*
Y134469D01*
X206006Y134603D01*
X206322Y134056D01*
X206945Y133433D01*
X207708Y132993D01*
X208559Y132765D01*
X209441D01*
X210292Y132993D01*
X211055Y133433D01*
X211678Y134056D01*
X211791Y134253D01*
X212292Y134119D01*
Y114481D01*
X211791Y114347D01*
X211678Y114544D01*
X211055Y115167D01*
X210292Y115607D01*
X209441Y115835D01*
X208559D01*
X207708Y115607D01*
X206945Y115167D01*
X206322Y114544D01*
X205882Y113781D01*
X205654Y112929D01*
Y112048D01*
X205882Y111197D01*
X206322Y110434D01*
X206945Y109811D01*
X207708Y109371D01*
X208559Y109142D01*
X209441D01*
X210292Y109371D01*
X211055Y109811D01*
X211678Y110434D01*
X211791Y110631D01*
X212292Y110497D01*
Y100498D01*
X208502Y96709D01*
X154000D01*
X153078Y96525D01*
X152297Y96003D01*
X145797Y89503D01*
X145275Y88722D01*
X145091Y87800D01*
Y24898D01*
X139202Y19008D01*
X110000D01*
X109078Y18825D01*
X108297Y18303D01*
X107775Y17522D01*
X107591Y16600D01*
X107775Y15678D01*
X108297Y14897D01*
X109078Y14375D01*
X110000Y14191D01*
X140200D01*
X141122Y14375D01*
X141903Y14897D01*
X149203Y22197D01*
X149725Y22978D01*
X149908Y23900D01*
Y86802D01*
X154998Y91891D01*
X209500D01*
X210422Y92075D01*
X211203Y92597D01*
X216403Y97797D01*
X216925Y98578D01*
X217108Y99500D01*
Y109852D01*
X217608Y110059D01*
X217745Y109922D01*
X218508Y109482D01*
X219359Y109254D01*
X220241D01*
X221092Y109482D01*
X221855Y109922D01*
X222478Y110545D01*
X222918Y111308D01*
X223147Y112159D01*
Y113041D01*
X222918Y113892D01*
X222478Y114655D01*
X221855Y115278D01*
X221092Y115718D01*
X220241Y115946D01*
X219359D01*
X218508Y115718D01*
X217745Y115278D01*
X217608Y115141D01*
X217108Y115348D01*
Y133474D01*
X217608Y133681D01*
X217745Y133544D01*
X218508Y133104D01*
X219359Y132876D01*
X220241D01*
X221092Y133104D01*
X221855Y133544D01*
X222478Y134167D01*
X222918Y134930D01*
X223147Y135782D01*
Y136663D01*
X222918Y137514D01*
X222478Y138277D01*
X221855Y138900D01*
X221092Y139340D01*
X220241Y139568D01*
X219359D01*
X218508Y139340D01*
X217745Y138900D01*
X217608Y138763D01*
X217108Y138970D01*
Y140301D01*
X216925Y141222D01*
X216403Y142004D01*
X211947Y146460D01*
Y146529D01*
X211718Y147381D01*
X211278Y148144D01*
X210655Y148767D01*
X209892Y149207D01*
X209041Y149435D01*
X208159D01*
X207308Y149207D01*
X206545Y148767D01*
X206006Y148228D01*
X205506Y148347D01*
Y159442D01*
X205369Y160134D01*
X204977Y160720D01*
X201245Y164453D01*
X201537Y165545D01*
Y166740D01*
X201228Y167894D01*
X200631Y168929D01*
X199786Y169773D01*
X198751Y170371D01*
X197597Y170680D01*
D02*
G37*
G36*
X271541Y136057D02*
X270659D01*
X269808Y135829D01*
X269045Y135389D01*
X268422Y134766D01*
X267982Y134003D01*
X267754Y133152D01*
Y132271D01*
X267982Y131419D01*
X268422Y130656D01*
X269045Y130033D01*
X269808Y129593D01*
X270659Y129365D01*
X271541D01*
X272392Y129593D01*
X273155Y130033D01*
X273778Y130656D01*
X274218Y131419D01*
X274447Y132271D01*
Y133152D01*
X274218Y134003D01*
X273778Y134766D01*
X273155Y135389D01*
X272392Y135829D01*
X271541Y136057D01*
D02*
G37*
G36*
X283341Y135968D02*
X282459D01*
X281608Y135740D01*
X280845Y135300D01*
X280222Y134677D01*
X279782Y133914D01*
X279554Y133063D01*
Y132182D01*
X279782Y131330D01*
X280222Y130567D01*
X280845Y129944D01*
X281608Y129504D01*
X282459Y129276D01*
X283341D01*
X284192Y129504D01*
X284955Y129944D01*
X285578Y130567D01*
X286018Y131330D01*
X286246Y132182D01*
Y133063D01*
X286018Y133914D01*
X285578Y134677D01*
X284955Y135300D01*
X284192Y135740D01*
X283341Y135968D01*
D02*
G37*
G36*
X360197Y134395D02*
X359003D01*
X357849Y134086D01*
X356814Y133488D01*
X355969Y132643D01*
X355372Y131609D01*
X355063Y130455D01*
Y129260D01*
X355372Y128106D01*
X355969Y127071D01*
X356814Y126227D01*
X357849Y125629D01*
X359003Y125320D01*
X360197D01*
X361351Y125629D01*
X362386Y126227D01*
X363231Y127071D01*
X363828Y128106D01*
X364137Y129260D01*
Y130455D01*
X363828Y131609D01*
X363231Y132643D01*
X362386Y133488D01*
X361351Y134086D01*
X360197Y134395D01*
D02*
G37*
G36*
X349097Y134337D02*
X347903D01*
X346749Y134028D01*
X345714Y133431D01*
X344869Y132586D01*
X344272Y131551D01*
X343963Y130397D01*
Y129203D01*
X344272Y128049D01*
X344869Y127014D01*
X345714Y126169D01*
X346749Y125572D01*
X347903Y125263D01*
X349097D01*
X350251Y125572D01*
X351286Y126169D01*
X352131Y127014D01*
X352728Y128049D01*
X353037Y129203D01*
Y130397D01*
X352728Y131551D01*
X352131Y132586D01*
X351286Y133431D01*
X350251Y134028D01*
X349097Y134337D01*
D02*
G37*
G36*
X400318Y131437D02*
X399282D01*
X398280Y131169D01*
X397383Y130650D01*
X396650Y129917D01*
X396131Y129020D01*
X395863Y128018D01*
Y126982D01*
X396131Y125980D01*
X396650Y125083D01*
X397383Y124350D01*
X398280Y123831D01*
X399282Y123563D01*
X400318D01*
X401320Y123831D01*
X402217Y124350D01*
X402950Y125083D01*
X403469Y125980D01*
X403737Y126982D01*
Y128018D01*
X403469Y129020D01*
X402950Y129917D01*
X402217Y130650D01*
X401320Y131169D01*
X400318Y131437D01*
D02*
G37*
G36*
X371518D02*
X370482D01*
X369480Y131169D01*
X368583Y130650D01*
X367850Y129917D01*
X367331Y129020D01*
X367063Y128018D01*
Y126982D01*
X367331Y125980D01*
X367850Y125083D01*
X368583Y124350D01*
X369480Y123831D01*
X370482Y123563D01*
X371518D01*
X372520Y123831D01*
X373417Y124350D01*
X374150Y125083D01*
X374669Y125980D01*
X374937Y126982D01*
Y128018D01*
X374669Y129020D01*
X374150Y129917D01*
X373417Y130650D01*
X372520Y131169D01*
X371518Y131437D01*
D02*
G37*
G36*
X261892Y130740D02*
X260908D01*
X259956Y130485D01*
X259103Y129993D01*
X258407Y129297D01*
X257915Y128444D01*
X257660Y127492D01*
Y126508D01*
X257915Y125556D01*
X258407Y124704D01*
X259103Y124007D01*
X259956Y123515D01*
X260908Y123260D01*
X261892D01*
X262844Y123515D01*
X263697Y124007D01*
X264393Y124704D01*
X264885Y125556D01*
X265140Y126508D01*
Y127492D01*
X264885Y128444D01*
X264393Y129297D01*
X263697Y129993D01*
X262844Y130485D01*
X261892Y130740D01*
D02*
G37*
G36*
X230633D02*
X229648D01*
X228696Y130485D01*
X227844Y129993D01*
X227147Y129297D01*
X226655Y128444D01*
X226400Y127492D01*
Y126508D01*
X226655Y125556D01*
X227147Y124704D01*
X227844Y124007D01*
X228696Y123515D01*
X229648Y123260D01*
X230633D01*
X231584Y123515D01*
X232437Y124007D01*
X233133Y124704D01*
X233625Y125556D01*
X233880Y126508D01*
Y127492D01*
X233625Y128444D01*
X233133Y129297D01*
X232437Y129993D01*
X231584Y130485D01*
X230633Y130740D01*
D02*
G37*
G36*
X295397Y131495D02*
X294203D01*
X293049Y131186D01*
X292014Y130588D01*
X291169Y129744D01*
X290572Y128709D01*
X290263Y127555D01*
Y126360D01*
X290572Y125206D01*
X291169Y124171D01*
X292014Y123327D01*
X293049Y122729D01*
X294203Y122420D01*
X295397D01*
X296551Y122729D01*
X297586Y123327D01*
X298431Y124171D01*
X299028Y125206D01*
X299337Y126360D01*
Y127555D01*
X299028Y128709D01*
X298431Y129744D01*
X297586Y130588D01*
X296551Y131186D01*
X295397Y131495D01*
D02*
G37*
G36*
X316097Y131195D02*
X314903D01*
X313749Y130886D01*
X312714Y130288D01*
X311869Y129444D01*
X311272Y128409D01*
X310963Y127255D01*
Y126060D01*
X311272Y124906D01*
X311869Y123872D01*
X312714Y123027D01*
X313749Y122429D01*
X314903Y122120D01*
X316097D01*
X317251Y122429D01*
X318286Y123027D01*
X319131Y123872D01*
X319728Y124906D01*
X320037Y126060D01*
Y127255D01*
X319728Y128409D01*
X319131Y129444D01*
X318286Y130288D01*
X317251Y130886D01*
X316097Y131195D01*
D02*
G37*
G36*
X410997Y130895D02*
X409803D01*
X408649Y130586D01*
X407614Y129988D01*
X406769Y129144D01*
X406172Y128109D01*
X405863Y126955D01*
Y125760D01*
X406172Y124606D01*
X406769Y123572D01*
X407614Y122727D01*
X408649Y122129D01*
X409803Y121820D01*
X410997D01*
X412151Y122129D01*
X413186Y122727D01*
X414031Y123572D01*
X414628Y124606D01*
X414937Y125760D01*
Y126955D01*
X414628Y128109D01*
X414031Y129144D01*
X413186Y129988D01*
X412151Y130586D01*
X410997Y130895D01*
D02*
G37*
G36*
X421641Y127435D02*
X420759D01*
X419908Y127207D01*
X419145Y126767D01*
X418522Y126144D01*
X418082Y125381D01*
X417853Y124530D01*
Y123648D01*
X418082Y122797D01*
X418522Y122034D01*
X419145Y121411D01*
X419908Y120971D01*
X420759Y120742D01*
X421641D01*
X422492Y120971D01*
X423255Y121411D01*
X423878Y122034D01*
X424318Y122797D01*
X424546Y123648D01*
Y124530D01*
X424318Y125381D01*
X423878Y126144D01*
X423255Y126767D01*
X422492Y127207D01*
X421641Y127435D01*
D02*
G37*
G36*
X99270Y125450D02*
X98440D01*
X97639Y125235D01*
X96921Y124820D01*
X96335Y124234D01*
X95920Y123516D01*
X95705Y122715D01*
Y121885D01*
X95920Y121084D01*
X96335Y120366D01*
X96921Y119780D01*
X97639Y119365D01*
X98440Y119150D01*
X99270D01*
X100071Y119365D01*
X100789Y119780D01*
X101375Y120366D01*
X101790Y121084D01*
X102005Y121885D01*
Y122715D01*
X101790Y123516D01*
X101375Y124234D01*
X100789Y124820D01*
X100071Y125235D01*
X99270Y125450D01*
D02*
G37*
G36*
X89427D02*
X88598D01*
X87797Y125235D01*
X87079Y124820D01*
X86492Y124234D01*
X86078Y123516D01*
X85863Y122715D01*
Y121885D01*
X86078Y121084D01*
X86492Y120366D01*
X87079Y119780D01*
X87797Y119365D01*
X88598Y119150D01*
X89427D01*
X90228Y119365D01*
X90947Y119780D01*
X91533Y120366D01*
X91948Y121084D01*
X92162Y121885D01*
Y122715D01*
X91948Y123516D01*
X91533Y124234D01*
X90947Y124820D01*
X90228Y125235D01*
X89427Y125450D01*
D02*
G37*
G36*
X79585D02*
X78755D01*
X77954Y125235D01*
X77236Y124820D01*
X76650Y124234D01*
X76235Y123516D01*
X76020Y122715D01*
Y121885D01*
X76235Y121084D01*
X76650Y120366D01*
X77236Y119780D01*
X77954Y119365D01*
X78755Y119150D01*
X79585D01*
X80386Y119365D01*
X81104Y119780D01*
X81690Y120366D01*
X82105Y121084D01*
X82320Y121885D01*
Y122715D01*
X82105Y123516D01*
X81690Y124234D01*
X81104Y124820D01*
X80386Y125235D01*
X79585Y125450D01*
D02*
G37*
G36*
X69742D02*
X68913D01*
X68112Y125235D01*
X67394Y124820D01*
X66807Y124234D01*
X66393Y123516D01*
X66178Y122715D01*
Y121885D01*
X66393Y121084D01*
X66807Y120366D01*
X67394Y119780D01*
X68112Y119365D01*
X68913Y119150D01*
X69742D01*
X70543Y119365D01*
X71262Y119780D01*
X71848Y120366D01*
X72263Y121084D01*
X72477Y121885D01*
Y122715D01*
X72263Y123516D01*
X71848Y124234D01*
X71262Y124820D01*
X70543Y125235D01*
X69742Y125450D01*
D02*
G37*
G36*
X59900D02*
X59070D01*
X58269Y125235D01*
X57551Y124820D01*
X56965Y124234D01*
X56550Y123516D01*
X56335Y122715D01*
Y121885D01*
X56550Y121084D01*
X56965Y120366D01*
X57551Y119780D01*
X58269Y119365D01*
X59070Y119150D01*
X59900D01*
X60701Y119365D01*
X61419Y119780D01*
X62005Y120366D01*
X62420Y121084D01*
X62635Y121885D01*
Y122715D01*
X62420Y123516D01*
X62005Y124234D01*
X61419Y124820D01*
X60701Y125235D01*
X59900Y125450D01*
D02*
G37*
G36*
X50057D02*
X49228D01*
X48427Y125235D01*
X47709Y124820D01*
X47122Y124234D01*
X46708Y123516D01*
X46493Y122715D01*
Y121885D01*
X46708Y121084D01*
X47122Y120366D01*
X47709Y119780D01*
X48427Y119365D01*
X49228Y119150D01*
X50057D01*
X50858Y119365D01*
X51576Y119780D01*
X52163Y120366D01*
X52578Y121084D01*
X52792Y121885D01*
Y122715D01*
X52578Y123516D01*
X52163Y124234D01*
X51576Y124820D01*
X50858Y125235D01*
X50057Y125450D01*
D02*
G37*
G36*
X40215D02*
X39385D01*
X38584Y125235D01*
X37866Y124820D01*
X37280Y124234D01*
X36865Y123516D01*
X36650Y122715D01*
Y121885D01*
X36865Y121084D01*
X37280Y120366D01*
X37866Y119780D01*
X38584Y119365D01*
X39385Y119150D01*
X40215D01*
X41016Y119365D01*
X41734Y119780D01*
X42320Y120366D01*
X42735Y121084D01*
X42950Y121885D01*
Y122715D01*
X42735Y123516D01*
X42320Y124234D01*
X41734Y124820D01*
X41016Y125235D01*
X40215Y125450D01*
D02*
G37*
G36*
X30372D02*
X29543D01*
X28742Y125235D01*
X28024Y124820D01*
X27437Y124234D01*
X27022Y123516D01*
X26808Y122715D01*
Y121885D01*
X27022Y121084D01*
X27437Y120366D01*
X28024Y119780D01*
X28742Y119365D01*
X29543Y119150D01*
X30372D01*
X31173Y119365D01*
X31891Y119780D01*
X32478Y120366D01*
X32892Y121084D01*
X33107Y121885D01*
Y122715D01*
X32892Y123516D01*
X32478Y124234D01*
X31891Y124820D01*
X31173Y125235D01*
X30372Y125450D01*
D02*
G37*
G36*
X20530D02*
X19700D01*
X18899Y125235D01*
X18181Y124820D01*
X17595Y124234D01*
X17180Y123516D01*
X16965Y122715D01*
Y121885D01*
X17180Y121084D01*
X17595Y120366D01*
X18181Y119780D01*
X18899Y119365D01*
X19700Y119150D01*
X20530D01*
X21331Y119365D01*
X22049Y119780D01*
X22635Y120366D01*
X23050Y121084D01*
X23265Y121885D01*
Y122715D01*
X23050Y123516D01*
X22635Y124234D01*
X22049Y124820D01*
X21331Y125235D01*
X20530Y125450D01*
D02*
G37*
G36*
X10687D02*
X9858D01*
X9057Y125235D01*
X8338Y124820D01*
X7752Y124234D01*
X7338Y123516D01*
X7123Y122715D01*
Y121885D01*
X7338Y121084D01*
X7752Y120366D01*
X8338Y119780D01*
X9057Y119365D01*
X9858Y119150D01*
X10687D01*
X11488Y119365D01*
X12206Y119780D01*
X12793Y120366D01*
X13207Y121084D01*
X13422Y121885D01*
Y122715D01*
X13207Y123516D01*
X12793Y124234D01*
X12206Y124820D01*
X11488Y125235D01*
X10687Y125450D01*
D02*
G37*
G36*
X135925Y131538D02*
X131791D01*
X131046Y131440D01*
X130352Y131152D01*
X129756Y130695D01*
X129298Y130098D01*
X129010Y129404D01*
X128912Y128659D01*
Y120982D01*
X129010Y120237D01*
X129298Y119542D01*
X129756Y118946D01*
X130352Y118489D01*
X131046Y118201D01*
X131791Y118103D01*
X135925D01*
X136670Y118201D01*
X137365Y118489D01*
X137961Y118946D01*
X138418Y119542D01*
X138706Y120237D01*
X138804Y120982D01*
Y128659D01*
X138706Y129404D01*
X138418Y130098D01*
X137961Y130695D01*
X137365Y131152D01*
X136670Y131440D01*
X135925Y131538D01*
D02*
G37*
G36*
X170141Y124352D02*
X169259D01*
X168406Y124124D01*
X167642Y123683D01*
X167017Y123058D01*
X166576Y122294D01*
X166348Y121441D01*
Y120559D01*
X166576Y119706D01*
X167017Y118942D01*
X167642Y118317D01*
X168406Y117876D01*
X169259Y117648D01*
X170141D01*
X170994Y117876D01*
X171758Y118317D01*
X172383Y118942D01*
X172824Y119706D01*
X173052Y120559D01*
Y121441D01*
X172824Y122294D01*
X172383Y123058D01*
X171758Y123683D01*
X170994Y124124D01*
X170141Y124352D01*
D02*
G37*
G36*
X400318Y121437D02*
X399282D01*
X398280Y121169D01*
X397383Y120650D01*
X396650Y119917D01*
X396131Y119020D01*
X395863Y118018D01*
Y116982D01*
X396131Y115980D01*
X396650Y115083D01*
X397383Y114350D01*
X398280Y113831D01*
X399282Y113563D01*
X400318D01*
X401320Y113831D01*
X402217Y114350D01*
X402950Y115083D01*
X403469Y115980D01*
X403737Y116982D01*
Y118018D01*
X403469Y119020D01*
X402950Y119917D01*
X402217Y120650D01*
X401320Y121169D01*
X400318Y121437D01*
D02*
G37*
G36*
X261892Y120740D02*
X260908D01*
X259956Y120485D01*
X259103Y119993D01*
X258407Y119297D01*
X257915Y118444D01*
X257660Y117492D01*
Y116508D01*
X257915Y115556D01*
X258407Y114704D01*
X259103Y114007D01*
X259956Y113515D01*
X260908Y113260D01*
X261892D01*
X262844Y113515D01*
X263697Y114007D01*
X264393Y114704D01*
X264885Y115556D01*
X265140Y116508D01*
Y117492D01*
X264885Y118444D01*
X264393Y119297D01*
X263697Y119993D01*
X262844Y120485D01*
X261892Y120740D01*
D02*
G37*
G36*
X230633D02*
X229648D01*
X228696Y120485D01*
X227844Y119993D01*
X227147Y119297D01*
X226655Y118444D01*
X226400Y117492D01*
Y116508D01*
X226655Y115556D01*
X227147Y114704D01*
X227844Y114007D01*
X228696Y113515D01*
X229648Y113260D01*
X230633D01*
X231584Y113515D01*
X232437Y114007D01*
X233133Y114704D01*
X233625Y115556D01*
X233880Y116508D01*
Y117492D01*
X233625Y118444D01*
X233133Y119297D01*
X232437Y119993D01*
X231584Y120485D01*
X230633Y120740D01*
D02*
G37*
G36*
X349860Y118873D02*
X348935Y118751D01*
X348073Y118394D01*
X347333Y117826D01*
X346765Y117086D01*
X346408Y116224D01*
X346286Y115299D01*
Y114512D01*
X346408Y113587D01*
X346765Y112725D01*
X347333Y111985D01*
X348073Y111417D01*
X348935Y111060D01*
X349860Y110938D01*
X350785Y111060D01*
X351647Y111417D01*
X352387Y111985D01*
X352955Y112725D01*
X353312Y113587D01*
X353434Y114512D01*
Y115299D01*
X353312Y116224D01*
X352955Y117086D01*
X352387Y117826D01*
X351647Y118394D01*
X350785Y118751D01*
X349860Y118873D01*
D02*
G37*
G36*
X335841Y113335D02*
X334959D01*
X334108Y113107D01*
X333345Y112667D01*
X332722Y112044D01*
X332282Y111281D01*
X332053Y110430D01*
Y109548D01*
X332282Y108697D01*
X332722Y107934D01*
X333345Y107311D01*
X334108Y106871D01*
X334959Y106642D01*
X335841D01*
X336692Y106871D01*
X337455Y107311D01*
X338078Y107934D01*
X338518Y108697D01*
X338747Y109548D01*
Y110430D01*
X338518Y111281D01*
X338078Y112044D01*
X337455Y112667D01*
X336692Y113107D01*
X335841Y113335D01*
D02*
G37*
G36*
X326941D02*
X326059D01*
X325208Y113107D01*
X324445Y112667D01*
X323822Y112044D01*
X323382Y111281D01*
X323153Y110430D01*
Y109548D01*
X323382Y108697D01*
X323822Y107934D01*
X324445Y107311D01*
X325208Y106871D01*
X326059Y106642D01*
X326941D01*
X327792Y106871D01*
X328555Y107311D01*
X329178Y107934D01*
X329618Y108697D01*
X329847Y109548D01*
Y110430D01*
X329618Y111281D01*
X329178Y112044D01*
X328555Y112667D01*
X327792Y113107D01*
X326941Y113335D01*
D02*
G37*
G36*
X271541Y112435D02*
X270659D01*
X269808Y112207D01*
X269045Y111767D01*
X268422Y111144D01*
X267982Y110381D01*
X267754Y109529D01*
Y108648D01*
X267982Y107797D01*
X268422Y107034D01*
X269045Y106411D01*
X269808Y105971D01*
X270659Y105743D01*
X271541D01*
X272392Y105971D01*
X273155Y106411D01*
X273778Y107034D01*
X274218Y107797D01*
X274447Y108648D01*
Y109529D01*
X274218Y110381D01*
X273778Y111144D01*
X273155Y111767D01*
X272392Y112207D01*
X271541Y112435D01*
D02*
G37*
G36*
X283341Y112346D02*
X282459D01*
X281608Y112118D01*
X280845Y111678D01*
X280222Y111055D01*
X279782Y110292D01*
X279554Y109441D01*
Y108559D01*
X279782Y107708D01*
X280222Y106945D01*
X280845Y106322D01*
X281608Y105882D01*
X282459Y105654D01*
X283341D01*
X284192Y105882D01*
X284955Y106322D01*
X285578Y106945D01*
X286018Y107708D01*
X286246Y108559D01*
Y109441D01*
X286018Y110292D01*
X285578Y111055D01*
X284955Y111678D01*
X284192Y112118D01*
X283341Y112346D01*
D02*
G37*
G36*
X112231Y114865D02*
X111369D01*
X110573Y114536D01*
X109964Y113927D01*
X109635Y113131D01*
Y112269D01*
X109964Y111473D01*
X110573Y110864D01*
X111369Y110535D01*
X112231D01*
X112341Y110580D01*
X113995Y108926D01*
Y104766D01*
X113495Y104567D01*
X113027Y105036D01*
X112231Y105365D01*
X111369D01*
X110573Y105036D01*
X109964Y104427D01*
X109635Y103631D01*
Y103022D01*
X104806Y98193D01*
X104502Y97738D01*
X104395Y97200D01*
Y65682D01*
X99478Y60765D01*
X98869D01*
X98073Y60436D01*
X97464Y59827D01*
X97135Y59031D01*
Y58169D01*
X97464Y57373D01*
X98073Y56764D01*
X98869Y56435D01*
X99731D01*
X100527Y56764D01*
X101136Y57373D01*
X101465Y58169D01*
Y58778D01*
X106793Y64107D01*
X106995Y64408D01*
X107495Y64257D01*
Y49757D01*
X107064Y49327D01*
X106735Y48531D01*
Y47669D01*
X107064Y46873D01*
X107673Y46264D01*
X108469Y45935D01*
X109331D01*
X110127Y46264D01*
X110736Y46873D01*
X111065Y47669D01*
Y48531D01*
X110736Y49327D01*
X110305Y49757D01*
Y94418D01*
X116393Y100507D01*
X116698Y100962D01*
X116805Y101500D01*
Y109508D01*
X116698Y110046D01*
X116393Y110502D01*
X113965Y112930D01*
Y113131D01*
X113636Y113927D01*
X113027Y114536D01*
X112231Y114865D01*
D02*
G37*
G36*
X261892Y110740D02*
X260908D01*
X259956Y110485D01*
X259103Y109993D01*
X258407Y109297D01*
X257915Y108444D01*
X257660Y107492D01*
Y106508D01*
X257915Y105556D01*
X258407Y104703D01*
X259103Y104007D01*
X259956Y103515D01*
X260908Y103260D01*
X261892D01*
X262844Y103515D01*
X263697Y104007D01*
X264393Y104703D01*
X264885Y105556D01*
X265140Y106508D01*
Y107492D01*
X264885Y108444D01*
X264393Y109297D01*
X263697Y109993D01*
X262844Y110485D01*
X261892Y110740D01*
D02*
G37*
G36*
X230633D02*
X229648D01*
X228696Y110485D01*
X227844Y109993D01*
X227147Y109297D01*
X226655Y108444D01*
X226400Y107492D01*
Y106508D01*
X226655Y105556D01*
X227147Y104703D01*
X227844Y104007D01*
X228696Y103515D01*
X229648Y103260D01*
X230633D01*
X231584Y103515D01*
X232437Y104007D01*
X233133Y104703D01*
X233625Y105556D01*
X233880Y106508D01*
Y107492D01*
X233625Y108444D01*
X233133Y109297D01*
X232437Y109993D01*
X231584Y110485D01*
X230633Y110740D01*
D02*
G37*
G36*
X326492Y84240D02*
X325508D01*
X324556Y83985D01*
X323704Y83493D01*
X323007Y82797D01*
X322515Y81944D01*
X322260Y80992D01*
Y80008D01*
X322515Y79056D01*
X323007Y78203D01*
X323704Y77507D01*
X324556Y77015D01*
X325508Y76760D01*
X326492D01*
X327444Y77015D01*
X328296Y77507D01*
X328993Y78203D01*
X329485Y79056D01*
X329740Y80008D01*
Y80992D01*
X329485Y81944D01*
X328993Y82797D01*
X328296Y83493D01*
X327444Y83985D01*
X326492Y84240D01*
D02*
G37*
G36*
X395451Y83840D02*
X394467D01*
X393515Y83585D01*
X392663Y83093D01*
X391966Y82397D01*
X391474Y81544D01*
X391219Y80592D01*
Y79608D01*
X391474Y78656D01*
X391966Y77803D01*
X392663Y77107D01*
X393515Y76615D01*
X394467Y76360D01*
X395451D01*
X396403Y76615D01*
X397256Y77107D01*
X397952Y77803D01*
X398444Y78656D01*
X398699Y79608D01*
Y80592D01*
X398444Y81544D01*
X397952Y82397D01*
X397256Y83093D01*
X396403Y83585D01*
X395451Y83840D01*
D02*
G37*
G36*
X289341Y77457D02*
X288459D01*
X287608Y77229D01*
X286845Y76789D01*
X286222Y76166D01*
X285782Y75403D01*
X285554Y74552D01*
Y73671D01*
X285782Y72819D01*
X286222Y72056D01*
X286845Y71433D01*
X287608Y70993D01*
X288459Y70765D01*
X289341D01*
X290192Y70993D01*
X290955Y71433D01*
X291578Y72056D01*
X292018Y72819D01*
X292247Y73671D01*
Y74552D01*
X292018Y75403D01*
X291578Y76166D01*
X290955Y76789D01*
X290192Y77229D01*
X289341Y77457D01*
D02*
G37*
G36*
X391752Y74747D02*
X390870D01*
X390019Y74518D01*
X389256Y74078D01*
X388633Y73455D01*
X388193Y72692D01*
X387965Y71841D01*
Y70959D01*
X388193Y70108D01*
X388633Y69345D01*
X389256Y68722D01*
X390019Y68282D01*
X390870Y68054D01*
X391752D01*
X392603Y68282D01*
X393366Y68722D01*
X393989Y69345D01*
X394429Y70108D01*
X394657Y70959D01*
Y71841D01*
X394429Y72692D01*
X393989Y73455D01*
X393366Y74078D01*
X392603Y74518D01*
X391752Y74747D01*
D02*
G37*
G36*
X368130D02*
X367248D01*
X366397Y74518D01*
X365634Y74078D01*
X365011Y73455D01*
X364571Y72692D01*
X364342Y71841D01*
Y70959D01*
X364571Y70108D01*
X365011Y69345D01*
X365634Y68722D01*
X366397Y68282D01*
X367248Y68054D01*
X368130D01*
X368981Y68282D01*
X369744Y68722D01*
X370367Y69345D01*
X370807Y70108D01*
X371035Y70959D01*
Y71841D01*
X370807Y72692D01*
X370367Y73455D01*
X369744Y74078D01*
X368981Y74518D01*
X368130Y74747D01*
D02*
G37*
G36*
X223541Y74558D02*
X222659D01*
X221808Y74329D01*
X221045Y73889D01*
X220422Y73266D01*
X219982Y72503D01*
X219754Y71652D01*
Y70771D01*
X219982Y69919D01*
X220422Y69156D01*
X221045Y68533D01*
X221808Y68093D01*
X222659Y67865D01*
X223541D01*
X224392Y68093D01*
X225155Y68533D01*
X225778Y69156D01*
X226218Y69919D01*
X226447Y70771D01*
Y71652D01*
X226218Y72503D01*
X225778Y73266D01*
X225155Y73889D01*
X224392Y74329D01*
X223541Y74558D01*
D02*
G37*
G36*
X157841Y74058D02*
X156959D01*
X156108Y73829D01*
X155345Y73389D01*
X154722Y72766D01*
X154282Y72003D01*
X154053Y71152D01*
Y70271D01*
X154282Y69419D01*
X154722Y68656D01*
X155345Y68033D01*
X156108Y67593D01*
X156959Y67365D01*
X157841D01*
X158692Y67593D01*
X159455Y68033D01*
X160078Y68656D01*
X160518Y69419D01*
X160747Y70271D01*
Y71152D01*
X160518Y72003D01*
X160078Y72766D01*
X159455Y73389D01*
X158692Y73829D01*
X157841Y74058D01*
D02*
G37*
G36*
X208792Y74840D02*
X207808D01*
X206856Y74585D01*
X206003Y74093D01*
X205307Y73396D01*
X204815Y72544D01*
X204560Y71592D01*
Y70608D01*
X204815Y69656D01*
X205307Y68804D01*
X206003Y68107D01*
X206856Y67615D01*
X207808Y67360D01*
X208792D01*
X209744Y67615D01*
X210596Y68107D01*
X211293Y68804D01*
X211785Y69656D01*
X212040Y70608D01*
Y71592D01*
X211785Y72544D01*
X211293Y73396D01*
X210596Y74093D01*
X209744Y74585D01*
X208792Y74840D01*
D02*
G37*
G36*
X168792D02*
X167808D01*
X166856Y74585D01*
X166004Y74093D01*
X165307Y73396D01*
X164815Y72544D01*
X164560Y71592D01*
Y70608D01*
X164815Y69656D01*
X165307Y68804D01*
X166004Y68107D01*
X166856Y67615D01*
X167808Y67360D01*
X168792D01*
X169744Y67615D01*
X170597Y68107D01*
X171293Y68804D01*
X171785Y69656D01*
X172040Y70608D01*
Y71592D01*
X171785Y72544D01*
X171293Y73396D01*
X170597Y74093D01*
X169744Y74585D01*
X168792Y74840D01*
D02*
G37*
G36*
X236997Y73180D02*
X235803D01*
X234649Y72871D01*
X233614Y72273D01*
X232769Y71429D01*
X232172Y70394D01*
X231863Y69240D01*
Y68045D01*
X232172Y66891D01*
X232769Y65856D01*
X233614Y65012D01*
X234649Y64414D01*
X235803Y64105D01*
X236997D01*
X238151Y64414D01*
X239186Y65012D01*
X240031Y65856D01*
X240628Y66891D01*
X240937Y68045D01*
Y69240D01*
X240628Y70394D01*
X240031Y71429D01*
X239186Y72273D01*
X238151Y72871D01*
X236997Y73180D01*
D02*
G37*
G36*
X264700Y64791D02*
X260500D01*
X259920Y64675D01*
X259428Y64346D01*
X259099Y63854D01*
X259010Y63408D01*
X252300D01*
X251455Y63240D01*
X250739Y62761D01*
X247785Y59808D01*
X213171D01*
X213050Y60017D01*
X212317Y60750D01*
X211420Y61269D01*
X210418Y61537D01*
X209382D01*
X208380Y61269D01*
X207483Y60750D01*
X206750Y60017D01*
X206231Y59120D01*
X206194Y58979D01*
X203853D01*
X203008Y58811D01*
X202292Y58333D01*
X201139Y57179D01*
X200660Y56463D01*
X200492Y55618D01*
Y15956D01*
X200660Y15111D01*
X201139Y14395D01*
X202292Y13241D01*
X203008Y12763D01*
X203853Y12595D01*
X205085D01*
X205344Y12145D01*
X205814Y11675D01*
Y10137D01*
X202385Y6708D01*
X43415D01*
X40908Y9215D01*
Y14400D01*
X40865Y14613D01*
Y14831D01*
X40782Y15032D01*
X40740Y15245D01*
X40619Y15426D01*
X40536Y15627D01*
X40382Y15780D01*
X40261Y15961D01*
X40080Y16082D01*
X39927Y16236D01*
X39726Y16319D01*
X39545Y16440D01*
X39332Y16482D01*
X39131Y16565D01*
X38913D01*
X38700Y16608D01*
X38487Y16565D01*
X38269D01*
X38068Y16482D01*
X37855Y16440D01*
X37674Y16319D01*
X37473Y16236D01*
X37320Y16082D01*
X37139Y15961D01*
X37018Y15780D01*
X36864Y15627D01*
X36781Y15426D01*
X36660Y15245D01*
X36618Y15032D01*
X36535Y14831D01*
Y14613D01*
X36492Y14400D01*
Y8300D01*
X36660Y7455D01*
X37139Y6739D01*
X40939Y2939D01*
X41655Y2460D01*
X42500Y2292D01*
X203300D01*
X204145Y2460D01*
X204861Y2939D01*
X209583Y7661D01*
X210062Y8377D01*
X210230Y9222D01*
Y11675D01*
X210700Y12145D01*
X211140Y12908D01*
X211368Y13759D01*
Y14641D01*
X211140Y15492D01*
X210700Y16255D01*
X210077Y16878D01*
X209314Y17318D01*
X208463Y17546D01*
X207581D01*
X206730Y17318D01*
X206197Y17010D01*
X204908D01*
Y54564D01*
X207369D01*
X207483Y54450D01*
X208380Y53931D01*
X209382Y53663D01*
X210418D01*
X211420Y53931D01*
X212317Y54450D01*
X213050Y55183D01*
X213171Y55392D01*
X248700D01*
X249545Y55560D01*
X250261Y56039D01*
X253215Y58992D01*
X259000D01*
X259099Y58494D01*
X259428Y58002D01*
X259920Y57673D01*
X260500Y57557D01*
X264700D01*
X265280Y57673D01*
X265772Y58002D01*
X266101Y58494D01*
X266216Y59074D01*
Y63274D01*
X266101Y63854D01*
X265772Y64346D01*
X265280Y64675D01*
X264700Y64791D01*
D02*
G37*
G36*
X136757Y67232D02*
X135643D01*
X134566Y66944D01*
X133601Y66387D01*
X132813Y65599D01*
X132256Y64634D01*
X131968Y63557D01*
Y62443D01*
X132256Y61366D01*
X132813Y60401D01*
X133601Y59613D01*
X134566Y59056D01*
X135643Y58768D01*
X136757D01*
X137834Y59056D01*
X138799Y59613D01*
X139587Y60401D01*
X140144Y61366D01*
X140432Y62443D01*
Y63557D01*
X140144Y64634D01*
X139587Y65599D01*
X138799Y66387D01*
X137834Y66944D01*
X136757Y67232D01*
D02*
G37*
G36*
X359500Y64191D02*
X355300D01*
X354720Y64075D01*
X354228Y63746D01*
X353899Y63254D01*
X353783Y62674D01*
Y58474D01*
X353899Y57894D01*
X354228Y57402D01*
X354720Y57073D01*
X355300Y56958D01*
X359500D01*
X360080Y57073D01*
X360572Y57402D01*
X360901Y57894D01*
X361017Y58474D01*
Y62674D01*
X360901Y63254D01*
X360572Y63746D01*
X360080Y64075D01*
X359500Y64191D01*
D02*
G37*
G36*
X336492Y64240D02*
X335508D01*
X334556Y63985D01*
X333703Y63493D01*
X333007Y62796D01*
X332515Y61944D01*
X332260Y60992D01*
Y60008D01*
X332515Y59056D01*
X333007Y58204D01*
X333703Y57507D01*
X334556Y57015D01*
X335508Y56760D01*
X336492D01*
X337444Y57015D01*
X338297Y57507D01*
X338993Y58204D01*
X339485Y59056D01*
X339740Y60008D01*
Y60992D01*
X339485Y61944D01*
X338993Y62796D01*
X338297Y63493D01*
X337444Y63985D01*
X336492Y64240D01*
D02*
G37*
G36*
X170215Y60450D02*
X169385D01*
X168584Y60235D01*
X167866Y59820D01*
X167280Y59234D01*
X166865Y58516D01*
X166650Y57715D01*
Y56885D01*
X166865Y56084D01*
X167280Y55366D01*
X167866Y54780D01*
X168584Y54365D01*
X169385Y54150D01*
X170215D01*
X171016Y54365D01*
X171734Y54780D01*
X172320Y55366D01*
X172735Y56084D01*
X172950Y56885D01*
Y57715D01*
X172735Y58516D01*
X172320Y59234D01*
X171734Y59820D01*
X171016Y60235D01*
X170215Y60450D01*
D02*
G37*
G36*
X183462Y61568D02*
X178738D01*
X178123Y61446D01*
X177602Y61098D01*
X177254Y60577D01*
X177132Y59962D01*
Y55238D01*
X177254Y54623D01*
X177602Y54102D01*
X178123Y53754D01*
X178738Y53632D01*
X183462D01*
X184077Y53754D01*
X184598Y54102D01*
X184946Y54623D01*
X185068Y55238D01*
Y59962D01*
X184946Y60577D01*
X184598Y61098D01*
X184077Y61446D01*
X183462Y61568D01*
D02*
G37*
G36*
X300097Y61080D02*
X298903D01*
X297749Y60771D01*
X296714Y60173D01*
X295869Y59329D01*
X295272Y58294D01*
X294963Y57140D01*
Y55945D01*
X295272Y54791D01*
X295869Y53756D01*
X296714Y52912D01*
X297749Y52314D01*
X298903Y52005D01*
X300097D01*
X301251Y52314D01*
X302286Y52912D01*
X303131Y53756D01*
X303728Y54791D01*
X304037Y55945D01*
Y57140D01*
X303728Y58294D01*
X303131Y59329D01*
X302286Y60173D01*
X301251Y60771D01*
X300097Y61080D01*
D02*
G37*
G36*
X263072Y56887D02*
X262128D01*
X261215Y56643D01*
X260397Y56171D01*
X259729Y55503D01*
X259257Y54685D01*
X259013Y53772D01*
Y52828D01*
X259257Y51915D01*
X259729Y51097D01*
X260397Y50429D01*
X261215Y49957D01*
X262128Y49713D01*
X263072D01*
X263985Y49957D01*
X264803Y50429D01*
X265471Y51097D01*
X265943Y51915D01*
X266187Y52828D01*
Y53772D01*
X265943Y54685D01*
X265471Y55503D01*
X264803Y56171D01*
X263985Y56643D01*
X263072Y56887D01*
D02*
G37*
G36*
X136757Y57232D02*
X135643D01*
X134566Y56944D01*
X133601Y56387D01*
X132813Y55599D01*
X132256Y54634D01*
X131968Y53557D01*
Y52443D01*
X132256Y51366D01*
X132813Y50401D01*
X133601Y49613D01*
X134566Y49056D01*
X135643Y48768D01*
X136757D01*
X137834Y49056D01*
X138799Y49613D01*
X139587Y50401D01*
X140144Y51366D01*
X140432Y52443D01*
Y53557D01*
X140144Y54634D01*
X139587Y55599D01*
X138799Y56387D01*
X137834Y56944D01*
X136757Y57232D01*
D02*
G37*
G36*
X279341Y53935D02*
X278459D01*
X277608Y53707D01*
X276845Y53267D01*
X276222Y52644D01*
X275782Y51881D01*
X275553Y51030D01*
Y50148D01*
X275782Y49297D01*
X276222Y48534D01*
X276845Y47911D01*
X277608Y47471D01*
X278459Y47243D01*
X279341D01*
X280192Y47471D01*
X280955Y47911D01*
X281578Y48534D01*
X282018Y49297D01*
X282246Y50148D01*
Y51030D01*
X282018Y51881D01*
X281578Y52644D01*
X280955Y53267D01*
X280192Y53707D01*
X279341Y53935D01*
D02*
G37*
G36*
X289341Y53835D02*
X288459D01*
X287608Y53607D01*
X286845Y53167D01*
X286222Y52544D01*
X285782Y51781D01*
X285554Y50930D01*
Y50048D01*
X285782Y49197D01*
X286222Y48434D01*
X286845Y47811D01*
X287608Y47371D01*
X288459Y47142D01*
X289341D01*
X290192Y47371D01*
X290955Y47811D01*
X291578Y48434D01*
X292018Y49197D01*
X292247Y50048D01*
Y50930D01*
X292018Y51781D01*
X291578Y52544D01*
X290955Y53167D01*
X290192Y53607D01*
X289341Y53835D01*
D02*
G37*
G36*
X390862Y57487D02*
X389338D01*
X387866Y57093D01*
X386546Y56331D01*
X385469Y55253D01*
X384707Y53934D01*
X384313Y52462D01*
Y50938D01*
X384707Y49466D01*
X385469Y48146D01*
X386546Y47069D01*
X387866Y46307D01*
X389338Y45913D01*
X390862D01*
X392334Y46307D01*
X393653Y47069D01*
X394731Y48146D01*
X395493Y49466D01*
X395887Y50938D01*
Y52462D01*
X395493Y53934D01*
X394731Y55253D01*
X393653Y56331D01*
X392334Y57093D01*
X390862Y57487D01*
D02*
G37*
G36*
X157841Y50435D02*
X156959D01*
X156108Y50207D01*
X155345Y49767D01*
X154722Y49144D01*
X154282Y48381D01*
X154053Y47530D01*
Y46648D01*
X154282Y45797D01*
X154722Y45034D01*
X155345Y44411D01*
X156108Y43971D01*
X156959Y43742D01*
X157841D01*
X158692Y43971D01*
X159455Y44411D01*
X160078Y45034D01*
X160518Y45797D01*
X160747Y46648D01*
Y47530D01*
X160518Y48381D01*
X160078Y49144D01*
X159455Y49767D01*
X158692Y50207D01*
X157841Y50435D01*
D02*
G37*
G36*
X210418Y51537D02*
X209382D01*
X208380Y51269D01*
X207483Y50750D01*
X206750Y50017D01*
X206231Y49120D01*
X205963Y48118D01*
Y47082D01*
X206231Y46080D01*
X206750Y45183D01*
X207483Y44450D01*
X208380Y43931D01*
X209382Y43663D01*
X210418D01*
X211420Y43931D01*
X212317Y44450D01*
X213050Y45183D01*
X213569Y46080D01*
X213837Y47082D01*
Y48118D01*
X213569Y49120D01*
X213050Y50017D01*
X212317Y50750D01*
X211420Y51269D01*
X210418Y51537D01*
D02*
G37*
G36*
X181618D02*
X180582D01*
X179580Y51269D01*
X178683Y50750D01*
X177950Y50017D01*
X177431Y49120D01*
X177163Y48118D01*
Y47082D01*
X177431Y46080D01*
X177950Y45183D01*
X178683Y44450D01*
X179580Y43931D01*
X180582Y43663D01*
X181618D01*
X182620Y43931D01*
X183517Y44450D01*
X184250Y45183D01*
X184769Y46080D01*
X185037Y47082D01*
Y48118D01*
X184769Y49120D01*
X184250Y50017D01*
X183517Y50750D01*
X182620Y51269D01*
X181618Y51537D01*
D02*
G37*
G36*
X27839Y76204D02*
X26977D01*
X26181Y75874D01*
X25572Y75265D01*
X25243Y74469D01*
Y73607D01*
X25572Y72812D01*
X25887Y72497D01*
X26155Y72170D01*
X25887Y71844D01*
X25572Y71529D01*
X25242Y70733D01*
Y69872D01*
X25572Y69076D01*
X26181Y68467D01*
X26977Y68137D01*
X27838D01*
X28634Y68467D01*
X28894Y68727D01*
X30335D01*
X30873Y68834D01*
X31329Y69138D01*
X31817Y69626D01*
X33195D01*
Y53500D01*
X33302Y52962D01*
X33606Y52507D01*
X45272Y40841D01*
X45728Y40537D01*
X46265Y40430D01*
X99787D01*
X100303Y39914D01*
X101099Y39584D01*
X101960D01*
X102756Y39914D01*
X103365Y40523D01*
X103695Y41319D01*
Y42180D01*
X103568Y42487D01*
X103646Y42641D01*
X103923Y42935D01*
X104656D01*
X105452Y43264D01*
X106061Y43873D01*
X106391Y44669D01*
Y45531D01*
X106061Y46327D01*
X105452Y46936D01*
X104656Y47265D01*
X103795D01*
X102999Y46936D01*
X102568Y46505D01*
X101039D01*
X100501Y46398D01*
X100045Y46093D01*
X99357Y45405D01*
X47466D01*
X37973Y54897D01*
Y71332D01*
X37867Y71869D01*
X37562Y72325D01*
X35893Y73993D01*
X35438Y74298D01*
X34900Y74405D01*
X31531D01*
X30843Y75093D01*
X30387Y75398D01*
X29849Y75505D01*
X29004D01*
X28635Y75874D01*
X27839Y76204D01*
D02*
G37*
G36*
X279541Y45957D02*
X278659D01*
X277808Y45729D01*
X277045Y45289D01*
X276422Y44666D01*
X275982Y43903D01*
X275753Y43052D01*
Y42170D01*
X275982Y41319D01*
X276422Y40556D01*
X277045Y39933D01*
X277808Y39493D01*
X278659Y39265D01*
X279541D01*
X280392Y39493D01*
X281155Y39933D01*
X281778Y40556D01*
X282218Y41319D01*
X282447Y42170D01*
Y43052D01*
X282218Y43903D01*
X281778Y44666D01*
X281155Y45289D01*
X280392Y45729D01*
X279541Y45957D01*
D02*
G37*
G36*
X289341Y45858D02*
X288459D01*
X287608Y45629D01*
X286845Y45189D01*
X286222Y44566D01*
X285782Y43803D01*
X285554Y42952D01*
Y42070D01*
X285782Y41219D01*
X286222Y40456D01*
X286845Y39833D01*
X287608Y39393D01*
X288459Y39165D01*
X289341D01*
X290192Y39393D01*
X290955Y39833D01*
X291578Y40456D01*
X292018Y41219D01*
X292247Y42070D01*
Y42952D01*
X292018Y43803D01*
X291578Y44566D01*
X290955Y45189D01*
X290192Y45629D01*
X289341Y45858D01*
D02*
G37*
G36*
X340618Y45937D02*
X339582D01*
X338580Y45669D01*
X337683Y45150D01*
X336950Y44417D01*
X336431Y43520D01*
X336163Y42518D01*
Y41482D01*
X336431Y40480D01*
X336950Y39583D01*
X337683Y38850D01*
X338580Y38331D01*
X339582Y38063D01*
X340618D01*
X341620Y38331D01*
X342517Y38850D01*
X343250Y39583D01*
X343769Y40480D01*
X344037Y41482D01*
Y42518D01*
X343769Y43520D01*
X343250Y44417D01*
X342517Y45150D01*
X341620Y45669D01*
X340618Y45937D01*
D02*
G37*
G36*
X313662Y45968D02*
X308938D01*
X308323Y45846D01*
X307802Y45498D01*
X307454Y44977D01*
X307332Y44362D01*
Y39638D01*
X307454Y39023D01*
X307802Y38502D01*
X308323Y38154D01*
X308938Y38032D01*
X313662D01*
X314277Y38154D01*
X314798Y38502D01*
X315146Y39023D01*
X315268Y39638D01*
Y44362D01*
X315146Y44977D01*
X314798Y45498D01*
X314277Y45846D01*
X313662Y45968D01*
D02*
G37*
G36*
X264700Y43154D02*
X260500D01*
X259920Y43038D01*
X259428Y42709D01*
X259099Y42217D01*
X258983Y41637D01*
Y37437D01*
X259099Y36857D01*
X259428Y36365D01*
X259920Y36036D01*
X260500Y35921D01*
X264700D01*
X265280Y36036D01*
X265772Y36365D01*
X266101Y36857D01*
X266216Y37437D01*
Y41637D01*
X266101Y42217D01*
X265772Y42709D01*
X265280Y43038D01*
X264700Y43154D01*
D02*
G37*
G36*
X210418Y41537D02*
X209382D01*
X208380Y41269D01*
X207483Y40750D01*
X206750Y40017D01*
X206231Y39120D01*
X205963Y38118D01*
Y37082D01*
X206231Y36080D01*
X206750Y35183D01*
X207483Y34450D01*
X208380Y33931D01*
X209382Y33663D01*
X210418D01*
X211420Y33931D01*
X212317Y34450D01*
X213050Y35183D01*
X213569Y36080D01*
X213837Y37082D01*
Y38118D01*
X213569Y39120D01*
X213050Y40017D01*
X212317Y40750D01*
X211420Y41269D01*
X210418Y41537D01*
D02*
G37*
G36*
X181618D02*
X180582D01*
X179580Y41269D01*
X178683Y40750D01*
X177950Y40017D01*
X177431Y39120D01*
X177163Y38118D01*
Y37082D01*
X177431Y36080D01*
X177950Y35183D01*
X178683Y34450D01*
X179580Y33931D01*
X180582Y33663D01*
X181618D01*
X182620Y33931D01*
X183517Y34450D01*
X184250Y35183D01*
X184769Y36080D01*
X185037Y37082D01*
Y38118D01*
X184769Y39120D01*
X184250Y40017D01*
X183517Y40750D01*
X182620Y41269D01*
X181618Y41537D01*
D02*
G37*
G36*
X300097Y41395D02*
X298903D01*
X297749Y41086D01*
X296714Y40488D01*
X295869Y39643D01*
X295272Y38609D01*
X294963Y37455D01*
Y36260D01*
X295272Y35106D01*
X295869Y34071D01*
X296714Y33227D01*
X297749Y32629D01*
X298903Y32320D01*
X300097D01*
X301251Y32629D01*
X302286Y33227D01*
X303131Y34071D01*
X303728Y35106D01*
X304037Y36260D01*
Y37455D01*
X303728Y38609D01*
X303131Y39643D01*
X302286Y40488D01*
X301251Y41086D01*
X300097Y41395D01*
D02*
G37*
G36*
X350841Y36568D02*
X349959D01*
X349108Y36340D01*
X348345Y35900D01*
X347722Y35277D01*
X347282Y34514D01*
X347054Y33663D01*
Y32781D01*
X347282Y31930D01*
X347722Y31167D01*
X348345Y30544D01*
X349108Y30104D01*
X349959Y29876D01*
X350841D01*
X351692Y30104D01*
X352455Y30544D01*
X353078Y31167D01*
X353518Y31930D01*
X353747Y32781D01*
Y33663D01*
X353518Y34514D01*
X353078Y35277D01*
X352455Y35900D01*
X351692Y36340D01*
X350841Y36568D01*
D02*
G37*
G36*
X279341Y77557D02*
X278459D01*
X277608Y77329D01*
X276845Y76889D01*
X276222Y76266D01*
X275782Y75503D01*
X275553Y74652D01*
Y73770D01*
X275782Y72919D01*
X276222Y72156D01*
X276845Y71533D01*
X277295Y71274D01*
Y69497D01*
X277463Y68652D01*
X277941Y67936D01*
X281139Y64739D01*
X281855Y64260D01*
X282700Y64092D01*
X313742D01*
X313876Y63592D01*
X313703Y63493D01*
X313007Y62796D01*
X312515Y61944D01*
X312260Y60992D01*
Y60008D01*
X312515Y59056D01*
X313007Y58204D01*
X313703Y57507D01*
X314556Y57015D01*
X315508Y56760D01*
X316492D01*
X317444Y57015D01*
X318297Y57507D01*
X318993Y58204D01*
X319485Y59056D01*
X319740Y60008D01*
Y60992D01*
X319485Y61944D01*
X318993Y62796D01*
X318297Y63493D01*
X318124Y63592D01*
X318258Y64092D01*
X320885D01*
X323492Y61485D01*
Y36700D01*
X323660Y35855D01*
X324139Y35139D01*
X328142Y31135D01*
X328859Y30657D01*
X329703Y30489D01*
X336429D01*
X336431Y30480D01*
X336950Y29583D01*
X337683Y28850D01*
X338580Y28331D01*
X339582Y28063D01*
X340618D01*
X341620Y28331D01*
X342517Y28850D01*
X343250Y29583D01*
X343769Y30480D01*
X344037Y31482D01*
Y32518D01*
X343769Y33520D01*
X343250Y34417D01*
X342517Y35150D01*
X341620Y35669D01*
X340618Y35937D01*
X339582D01*
X338580Y35669D01*
X337683Y35150D01*
X337437Y34904D01*
X330618D01*
X327908Y37615D01*
Y62400D01*
X327740Y63245D01*
X327261Y63961D01*
X323361Y67861D01*
X322645Y68340D01*
X321800Y68508D01*
X283614D01*
X281710Y70412D01*
Y72386D01*
X282018Y72919D01*
X282246Y73770D01*
Y74652D01*
X282018Y75503D01*
X281578Y76266D01*
X280955Y76889D01*
X280192Y77329D01*
X279341Y77557D01*
D02*
G37*
G36*
X311818Y35937D02*
X310782D01*
X309780Y35669D01*
X308883Y35150D01*
X308150Y34417D01*
X307631Y33520D01*
X307363Y32518D01*
Y31482D01*
X307631Y30480D01*
X308150Y29583D01*
X308883Y28850D01*
X309780Y28331D01*
X310782Y28063D01*
X311818D01*
X312820Y28331D01*
X313717Y28850D01*
X314450Y29583D01*
X314969Y30480D01*
X315237Y31482D01*
Y32518D01*
X314969Y33520D01*
X314450Y34417D01*
X313717Y35150D01*
X312820Y35669D01*
X311818Y35937D01*
D02*
G37*
G36*
X227863Y34416D02*
X223663D01*
X223083Y34301D01*
X222591Y33972D01*
X222262Y33480D01*
X222147Y32900D01*
Y28700D01*
X222262Y28120D01*
X222591Y27628D01*
X223083Y27299D01*
X223663Y27183D01*
X227863D01*
X228443Y27299D01*
X228935Y27628D01*
X229264Y28120D01*
X229380Y28700D01*
Y32900D01*
X229264Y33480D01*
X228935Y33972D01*
X228443Y34301D01*
X227863Y34416D01*
D02*
G37*
G36*
X362897Y35680D02*
X361703D01*
X360549Y35371D01*
X359514Y34773D01*
X358669Y33929D01*
X358072Y32894D01*
X357763Y31740D01*
Y30545D01*
X358072Y29391D01*
X358669Y28357D01*
X359514Y27512D01*
X360549Y26914D01*
X361703Y26605D01*
X362897D01*
X364051Y26914D01*
X365086Y27512D01*
X365931Y28357D01*
X366528Y29391D01*
X366837Y30545D01*
Y31740D01*
X366528Y32894D01*
X365931Y33929D01*
X365086Y34773D01*
X364051Y35371D01*
X362897Y35680D01*
D02*
G37*
G36*
X170215Y30922D02*
X169385D01*
X168584Y30707D01*
X167866Y30293D01*
X167280Y29706D01*
X166865Y28988D01*
X166650Y28187D01*
Y27358D01*
X166865Y26557D01*
X167280Y25839D01*
X167866Y25252D01*
X168584Y24837D01*
X169385Y24623D01*
X170215D01*
X171016Y24837D01*
X171734Y25252D01*
X172320Y25839D01*
X172735Y26557D01*
X172950Y27358D01*
Y28187D01*
X172735Y28988D01*
X172320Y29706D01*
X171734Y30293D01*
X171016Y30707D01*
X170215Y30922D01*
D02*
G37*
G36*
X210418Y31537D02*
X209382D01*
X208380Y31269D01*
X207483Y30750D01*
X206750Y30017D01*
X206231Y29120D01*
X205963Y28118D01*
Y27082D01*
X206231Y26080D01*
X206750Y25183D01*
X207483Y24450D01*
X208380Y23931D01*
X209382Y23663D01*
X210418D01*
X211420Y23931D01*
X212317Y24450D01*
X213050Y25183D01*
X213569Y26080D01*
X213837Y27082D01*
Y28118D01*
X213569Y29120D01*
X213050Y30017D01*
X212317Y30750D01*
X211420Y31269D01*
X210418Y31537D01*
D02*
G37*
G36*
X340618Y25937D02*
X339582D01*
X338580Y25669D01*
X337683Y25150D01*
X336950Y24417D01*
X336431Y23520D01*
X336163Y22518D01*
Y21482D01*
X336431Y20480D01*
X336950Y19583D01*
X337683Y18850D01*
X338580Y18331D01*
X339582Y18063D01*
X340618D01*
X341620Y18331D01*
X342517Y18850D01*
X343250Y19583D01*
X343769Y20480D01*
X344037Y21482D01*
Y22518D01*
X343769Y23520D01*
X343250Y24417D01*
X342517Y25150D01*
X341620Y25669D01*
X340618Y25937D01*
D02*
G37*
G36*
X311818D02*
X310782D01*
X309780Y25669D01*
X308883Y25150D01*
X308150Y24417D01*
X307631Y23520D01*
X307363Y22518D01*
Y21482D01*
X307631Y20480D01*
X308150Y19583D01*
X308883Y18850D01*
X309780Y18331D01*
X310782Y18063D01*
X311818D01*
X312820Y18331D01*
X313717Y18850D01*
X314450Y19583D01*
X314969Y20480D01*
X315237Y21482D01*
Y22518D01*
X314969Y23520D01*
X314450Y24417D01*
X313717Y25150D01*
X312820Y25669D01*
X311818Y25937D01*
D02*
G37*
G36*
X300459Y29893D02*
X299141D01*
X297848Y29636D01*
X296630Y29131D01*
X295533Y28399D01*
X294601Y27466D01*
X293869Y26370D01*
X293364Y25152D01*
X293107Y23859D01*
Y22541D01*
X293364Y21248D01*
X293869Y20030D01*
X294601Y18934D01*
X295533Y18001D01*
X296630Y17269D01*
X297848Y16764D01*
X299141Y16507D01*
X300459D01*
X301752Y16764D01*
X302970Y17269D01*
X304066Y18001D01*
X304999Y18934D01*
X305731Y20030D01*
X306236Y21248D01*
X306493Y22541D01*
Y23859D01*
X306236Y25152D01*
X305731Y26370D01*
X304999Y27466D01*
X304066Y28399D01*
X302970Y29131D01*
X301752Y29636D01*
X300459Y29893D01*
D02*
G37*
G36*
X289341Y22235D02*
X288459D01*
X287608Y22007D01*
X286845Y21567D01*
X286222Y20944D01*
X285782Y20181D01*
X285554Y19330D01*
Y18448D01*
X285782Y17597D01*
X286222Y16834D01*
X286845Y16211D01*
X287608Y15771D01*
X288459Y15542D01*
X289341D01*
X290192Y15771D01*
X290955Y16211D01*
X291578Y16834D01*
X292018Y17597D01*
X292247Y18448D01*
Y19330D01*
X292018Y20181D01*
X291578Y20944D01*
X290955Y21567D01*
X290192Y22007D01*
X289341Y22235D01*
D02*
G37*
G36*
X17259Y27293D02*
X15941D01*
X14648Y27036D01*
X13430Y26531D01*
X12333Y25799D01*
X11401Y24867D01*
X10669Y23770D01*
X10164Y22552D01*
X9907Y21259D01*
Y19941D01*
X10164Y18648D01*
X10669Y17430D01*
X11401Y16333D01*
X12333Y15401D01*
X13430Y14669D01*
X14648Y14164D01*
X15941Y13907D01*
X17259D01*
X18552Y14164D01*
X19770Y14669D01*
X20866Y15401D01*
X21799Y16333D01*
X22531Y17430D01*
X23036Y18648D01*
X23293Y19941D01*
Y21259D01*
X23036Y22552D01*
X22531Y23770D01*
X21799Y24867D01*
X20866Y25799D01*
X19770Y26531D01*
X18552Y27036D01*
X17259Y27293D01*
D02*
G37*
G36*
X390862Y17487D02*
X389338D01*
X387866Y17093D01*
X386546Y16331D01*
X385469Y15254D01*
X384707Y13934D01*
X384579Y13456D01*
X381194D01*
X381093Y13834D01*
X380331Y15154D01*
X379254Y16231D01*
X377934Y16993D01*
X376462Y17387D01*
X374938D01*
X373466Y16993D01*
X372147Y16231D01*
X371069Y15154D01*
X370307Y13834D01*
X370173Y13335D01*
X366455D01*
X365931Y14243D01*
X365086Y15088D01*
X364051Y15686D01*
X362897Y15995D01*
X361703D01*
X360549Y15686D01*
X359514Y15088D01*
X358669Y14243D01*
X358072Y13209D01*
X357763Y12055D01*
Y10860D01*
X358072Y9706D01*
X358669Y8671D01*
X359514Y7827D01*
X360549Y7229D01*
X361703Y6920D01*
X362897D01*
X364051Y7229D01*
X365086Y7827D01*
X365931Y8671D01*
X366528Y9706D01*
X366532Y9722D01*
X370212D01*
X370307Y9366D01*
X371069Y8046D01*
X372147Y6969D01*
X373466Y6207D01*
X374938Y5813D01*
X376462D01*
X377934Y6207D01*
X379254Y6969D01*
X380331Y8046D01*
X381093Y9366D01*
X381221Y9844D01*
X384606D01*
X384707Y9466D01*
X385469Y8146D01*
X386546Y7069D01*
X387866Y6307D01*
X389338Y5913D01*
X390862D01*
X392334Y6307D01*
X393653Y7069D01*
X394731Y8146D01*
X395493Y9466D01*
X395887Y10938D01*
Y12462D01*
X395493Y13934D01*
X394731Y15254D01*
X393653Y16331D01*
X392334Y17093D01*
X390862Y17487D01*
D02*
G37*
G36*
X157641Y19635D02*
X156759D01*
X155908Y19407D01*
X155145Y18967D01*
X154522Y18344D01*
X154082Y17581D01*
X153853Y16730D01*
Y15848D01*
X154082Y14997D01*
X154522Y14234D01*
X155145Y13611D01*
X155908Y13171D01*
X156759Y12943D01*
X157641D01*
X158492Y13171D01*
X159255Y13611D01*
X159878Y14234D01*
X160318Y14997D01*
X160547Y15848D01*
Y16730D01*
X160318Y17581D01*
X159878Y18344D01*
X159255Y18967D01*
X158492Y19407D01*
X157641Y19635D01*
D02*
G37*
G36*
X184841Y17546D02*
X183959D01*
X183108Y17318D01*
X182345Y16878D01*
X181722Y16255D01*
X181282Y15492D01*
X181053Y14641D01*
Y13759D01*
X181282Y12908D01*
X181722Y12145D01*
X182345Y11522D01*
X183108Y11082D01*
X183959Y10853D01*
X184841D01*
X185692Y11082D01*
X186455Y11522D01*
X187078Y12145D01*
X187518Y12908D01*
X187747Y13759D01*
Y14641D01*
X187518Y15492D01*
X187078Y16255D01*
X186455Y16878D01*
X185692Y17318D01*
X184841Y17546D01*
D02*
G37*
G36*
X340618Y15937D02*
X339582D01*
X338580Y15669D01*
X337683Y15150D01*
X336950Y14417D01*
X336431Y13520D01*
X336163Y12518D01*
Y11482D01*
X336431Y10480D01*
X336950Y9583D01*
X337683Y8850D01*
X338580Y8331D01*
X339582Y8063D01*
X340618D01*
X341620Y8331D01*
X342517Y8850D01*
X343250Y9583D01*
X343769Y10480D01*
X344037Y11482D01*
Y12518D01*
X343769Y13520D01*
X343250Y14417D01*
X342517Y15150D01*
X341620Y15669D01*
X340618Y15937D01*
D02*
G37*
G36*
X350841Y12946D02*
X349959D01*
X349108Y12718D01*
X348345Y12278D01*
X347722Y11655D01*
X347282Y10892D01*
X347054Y10041D01*
Y9159D01*
X347282Y8308D01*
X347722Y7545D01*
X348345Y6922D01*
X349108Y6482D01*
X349959Y6254D01*
X350841D01*
X351692Y6482D01*
X352455Y6922D01*
X353078Y7545D01*
X353518Y8308D01*
X353747Y9159D01*
Y10041D01*
X353518Y10892D01*
X353078Y11655D01*
X352455Y12278D01*
X351692Y12718D01*
X350841Y12946D01*
D02*
G37*
%LPD*%
D17*
X46265Y41835D02*
X101444D01*
X99939Y44000D02*
X101039Y45100D01*
X46884Y44000D02*
X99939D01*
X101039Y45100D02*
X104225D01*
X101444Y41835D02*
X101529Y41750D01*
X31235Y71031D02*
X33908D01*
X34600Y53500D02*
Y70340D01*
X33908Y71031D02*
X34600Y70340D01*
X30335Y70132D02*
X31235Y71031D01*
X27470Y74100D02*
X29849D01*
X30949Y73000D01*
X34900D02*
X36568Y71332D01*
X27408Y74038D02*
X27470Y74100D01*
X30949Y73000D02*
X34900D01*
X36568Y54315D02*
Y71332D01*
X27407Y70302D02*
X27578Y70132D01*
X30335D01*
X34600Y53500D02*
X46265Y41835D01*
X36568Y54315D02*
X46884Y44000D01*
X108900Y95000D02*
X115400Y101500D01*
Y109508D01*
X112208Y112700D02*
X115400Y109508D01*
X108900Y48100D02*
Y95000D01*
X111800Y112700D02*
X112208D01*
X105800Y65100D02*
Y97200D01*
X111800Y103200D01*
X99300Y58600D02*
X105800Y65100D01*
D61*
X326600Y148600D02*
X331000Y144200D01*
Y138011D02*
Y144200D01*
X326600Y148600D02*
Y164211D01*
X331000Y138011D02*
X335400Y133611D01*
X362300Y11457D02*
X362371Y11529D01*
X375629D02*
X375700Y11600D01*
X362371Y11529D02*
X375629D01*
X375750Y11650D02*
X390050D01*
X375700Y11600D02*
X375750Y11650D01*
X390050D02*
X390100Y11700D01*
X196500Y112489D02*
X197103Y113092D01*
X203700Y118000D02*
Y159442D01*
X197103Y113092D02*
X198792D01*
X203700Y118000D01*
X197000Y166142D02*
X203700Y159442D01*
D64*
X367689Y71400D02*
D03*
X391311D02*
D03*
X326600Y140589D02*
D03*
Y164211D02*
D03*
X335400Y140589D02*
D03*
Y164211D02*
D03*
Y109989D02*
D03*
Y133611D02*
D03*
X326500D02*
D03*
Y109989D02*
D03*
X421200Y124089D02*
D03*
Y147711D02*
D03*
X288900Y50489D02*
D03*
Y74111D02*
D03*
Y42511D02*
D03*
Y18889D02*
D03*
X279100Y42611D02*
D03*
Y18989D02*
D03*
X278900Y74211D02*
D03*
Y50589D02*
D03*
X350400Y9600D02*
D03*
Y33222D02*
D03*
X220000Y146100D02*
D03*
Y169722D02*
D03*
X209000Y112489D02*
D03*
Y136111D02*
D03*
X208600Y146089D02*
D03*
Y169711D02*
D03*
X196500Y112489D02*
D03*
Y136111D02*
D03*
X282900Y109000D02*
D03*
Y132622D02*
D03*
X271100Y165822D02*
D03*
Y142200D02*
D03*
Y109089D02*
D03*
Y132711D02*
D03*
X282800Y142200D02*
D03*
Y165822D02*
D03*
X219800Y136222D02*
D03*
Y112600D02*
D03*
X184400Y14200D02*
D03*
X208022D02*
D03*
X223100Y71211D02*
D03*
Y47589D02*
D03*
X157200Y39911D02*
D03*
Y16289D02*
D03*
X157400Y70711D02*
D03*
Y47089D02*
D03*
D65*
X394959Y80100D02*
D03*
X364841D02*
D03*
X368500Y160500D02*
D03*
X408500D02*
D03*
X316000Y60500D02*
D03*
X326000Y80500D02*
D03*
X336000Y60500D02*
D03*
X261400Y167000D02*
D03*
Y157000D02*
D03*
Y147000D02*
D03*
Y137000D02*
D03*
Y127000D02*
D03*
Y117000D02*
D03*
Y107000D02*
D03*
X230140D02*
D03*
Y117000D02*
D03*
Y127000D02*
D03*
Y137000D02*
D03*
Y147000D02*
D03*
Y157000D02*
D03*
X168300Y71100D02*
D03*
X208300D02*
D03*
D66*
X357340Y114906D02*
D03*
X349860D02*
D03*
D67*
X182500Y165100D02*
D03*
X157900Y165000D02*
D03*
X299800Y23200D02*
D03*
X16600Y35100D02*
D03*
Y20600D02*
D03*
D68*
X348500Y129800D02*
D03*
Y149485D02*
D03*
X359600Y129858D02*
D03*
Y149542D02*
D03*
X315500Y146343D02*
D03*
Y126657D02*
D03*
X410400Y126357D02*
D03*
Y146043D02*
D03*
X299500Y36858D02*
D03*
Y56542D02*
D03*
X362300Y11457D02*
D03*
Y31143D02*
D03*
X197000Y146458D02*
D03*
Y166142D02*
D03*
X294800Y146642D02*
D03*
Y126957D02*
D03*
X236400Y68642D02*
D03*
Y48957D02*
D03*
D69*
X371000Y147500D02*
D03*
X311300Y42000D02*
D03*
X181100Y57600D02*
D03*
D70*
X371000Y137500D02*
D03*
Y127500D02*
D03*
Y117500D02*
D03*
X399800D02*
D03*
Y127500D02*
D03*
Y137500D02*
D03*
Y147500D02*
D03*
X311300Y32000D02*
D03*
Y22000D02*
D03*
Y12000D02*
D03*
X340100D02*
D03*
Y22000D02*
D03*
Y32000D02*
D03*
Y42000D02*
D03*
X181100Y47600D02*
D03*
Y37600D02*
D03*
Y27600D02*
D03*
X209900D02*
D03*
Y37600D02*
D03*
Y47600D02*
D03*
Y57600D02*
D03*
D71*
X357400Y52700D02*
D03*
X262600Y53300D02*
D03*
Y31663D02*
D03*
X233637Y30800D02*
D03*
D72*
X357400Y60574D02*
D03*
X262600Y61174D02*
D03*
Y39537D02*
D03*
D73*
X6152Y91838D02*
D03*
Y51680D02*
D03*
X20719D02*
D03*
Y91838D02*
D03*
D74*
X230140Y167000D02*
D03*
D75*
X169700Y141000D02*
D03*
X159700Y131000D02*
D03*
X169700Y121000D02*
D03*
D76*
X225763Y30800D02*
D03*
D77*
X169800Y27772D02*
D03*
Y57300D02*
D03*
X49643Y152300D02*
D03*
X59485D02*
D03*
X69328D02*
D03*
X79170D02*
D03*
X89013D02*
D03*
X98855D02*
D03*
X29958D02*
D03*
X39800D02*
D03*
X10272D02*
D03*
X20115D02*
D03*
X59485Y122300D02*
D03*
X49643D02*
D03*
X39800D02*
D03*
X29958D02*
D03*
X20115D02*
D03*
X10272D02*
D03*
X79170D02*
D03*
X69328D02*
D03*
X98855D02*
D03*
X89013D02*
D03*
D78*
X116142Y152380D02*
D03*
X133858D02*
D03*
X116142Y124820D02*
D03*
X133858D02*
D03*
D79*
X136200Y53000D02*
D03*
Y63000D02*
D03*
Y73000D02*
D03*
D80*
X132306Y12200D02*
D03*
X110000Y16600D02*
D03*
X38700Y14400D02*
D03*
X101529Y41750D02*
D03*
X27407Y70302D02*
D03*
X27200Y66700D02*
D03*
X27408Y74038D02*
D03*
X108900Y48100D02*
D03*
X104225Y45100D02*
D03*
X132205Y21600D02*
D03*
X132200Y30900D02*
D03*
X132100Y40400D02*
D03*
X111800Y103200D02*
D03*
Y112700D02*
D03*
X97700Y47700D02*
D03*
X27500Y81100D02*
D03*
X27300Y62600D02*
D03*
X29984Y179017D02*
D03*
X98700Y179000D02*
D03*
X88800D02*
D03*
X26000Y8400D02*
D03*
X99300Y58600D02*
D03*
X10000Y179000D02*
D03*
X20011Y179167D02*
D03*
X39796Y178946D02*
D03*
X49500Y179000D02*
D03*
X59400D02*
D03*
X69300D02*
D03*
X78900D02*
D03*
X79000Y29300D02*
D03*
X35200Y29400D02*
D03*
D81*
X376619Y154187D02*
X383307Y147500D01*
X365555Y154187D02*
X376619D01*
X383307Y147500D02*
X399800D01*
X344225Y157144D02*
X362598D01*
X340912Y153831D02*
X344225Y157144D01*
X340912Y135626D02*
Y153831D01*
X362598Y157144D02*
X365555Y154187D01*
X335801Y134012D02*
X339297D01*
X340912Y135626D01*
X335400Y133611D02*
X335801Y134012D01*
X314800Y110500D02*
X321200Y116900D01*
X328900D02*
X335400Y123400D01*
X321200Y116900D02*
X328900D01*
X335400Y123400D02*
Y133611D01*
X314800Y99900D02*
Y110500D01*
X311400Y96500D02*
X314800Y99900D01*
X249000Y96500D02*
X311400D01*
X244900Y100600D02*
X249000Y96500D01*
X244900Y100600D02*
Y131500D01*
X239400Y137000D02*
X244900Y131500D01*
X230140Y137000D02*
X239400D01*
X38700Y8300D02*
Y14400D01*
Y8300D02*
X42500Y4500D01*
X203300D02*
X208022Y9222D01*
Y14200D01*
X42500Y4500D02*
X203300D01*
X325700Y36700D02*
Y62400D01*
X321800Y66300D02*
X325700Y62400D01*
X282700Y66300D02*
X321800D01*
X325700Y36700D02*
X329703Y32697D01*
X339404D01*
X279503Y69497D02*
X282700Y66300D01*
X339404Y32697D02*
X340100Y32000D01*
X278900Y74211D02*
X279503Y73608D01*
Y69497D02*
Y73608D01*
X262574Y61200D02*
X262600Y61174D01*
X252300Y61200D02*
X262574D01*
X209900Y57600D02*
X248700D01*
X252300Y61200D01*
X202700Y55618D02*
X203853Y56771D01*
X209071D01*
X202700Y15956D02*
Y55618D01*
X203853Y14803D02*
X207419D01*
X202700Y15956D02*
X203853Y14803D01*
X207419D02*
X208022Y14200D01*
X209071Y56771D02*
X209900Y57600D01*
D82*
X154000Y94300D02*
X209500D01*
X147500Y87800D02*
X154000Y94300D01*
X147500Y23900D02*
Y87800D01*
X110000Y16600D02*
X140200D01*
X147500Y23900D01*
X214700Y99500D02*
Y140301D01*
X208600Y146089D02*
X208912D01*
X214700Y140301D01*
X209500Y94300D02*
X214700Y99500D01*
D83*
X390100Y11700D02*
D03*
Y51700D02*
D03*
X375700Y51600D02*
D03*
Y11600D02*
D03*
M02*
