G04*
G04 #@! TF.GenerationSoftware,Altium Limited,Altium Designer,21.4.1 (30)*
G04*
G04 Layer_Color=8388736*
%FSLAX25Y25*%
%MOIN*%
G70*
G04*
G04 #@! TF.SameCoordinates,4B32E59A-19CF-40ED-AED0-984A1E0E73E4*
G04*
G04*
G04 #@! TF.FilePolarity,Negative*
G04*
G01*
G75*
%ADD32R,0.06000X0.15000*%
G04:AMPARAMS|DCode=33|XSize=94.61mil|YSize=67.06mil|CornerRadius=11.38mil|HoleSize=0mil|Usage=FLASHONLY|Rotation=270.000|XOffset=0mil|YOffset=0mil|HoleType=Round|Shape=RoundedRectangle|*
%AMROUNDEDRECTD33*
21,1,0.09461,0.04429,0,0,270.0*
21,1,0.07185,0.06706,0,0,270.0*
1,1,0.02276,-0.02215,-0.03593*
1,1,0.02276,-0.02215,0.03593*
1,1,0.02276,0.02215,0.03593*
1,1,0.02276,0.02215,-0.03593*
%
%ADD33ROUNDEDRECTD33*%
%ADD34C,0.05800*%
G04:AMPARAMS|DCode=35|XSize=67.06mil|YSize=21.78mil|CornerRadius=5.38mil|HoleSize=0mil|Usage=FLASHONLY|Rotation=0.000|XOffset=0mil|YOffset=0mil|HoleType=Round|Shape=RoundedRectangle|*
%AMROUNDEDRECTD35*
21,1,0.06706,0.01102,0,0,0.0*
21,1,0.05630,0.02178,0,0,0.0*
1,1,0.01076,0.02815,-0.00551*
1,1,0.01076,-0.02815,-0.00551*
1,1,0.01076,-0.02815,0.00551*
1,1,0.01076,0.02815,0.00551*
%
%ADD35ROUNDEDRECTD35*%
G04:AMPARAMS|DCode=36|XSize=67.06mil|YSize=55.24mil|CornerRadius=8.72mil|HoleSize=0mil|Usage=FLASHONLY|Rotation=0.000|XOffset=0mil|YOffset=0mil|HoleType=Round|Shape=RoundedRectangle|*
%AMROUNDEDRECTD36*
21,1,0.06706,0.03780,0,0,0.0*
21,1,0.04961,0.05524,0,0,0.0*
1,1,0.01745,0.02480,-0.01890*
1,1,0.01745,-0.02480,-0.01890*
1,1,0.01745,-0.02480,0.01890*
1,1,0.01745,0.02480,0.01890*
%
%ADD36ROUNDEDRECTD36*%
G04:AMPARAMS|DCode=37|XSize=78.87mil|YSize=53.28mil|CornerRadius=9.66mil|HoleSize=0mil|Usage=FLASHONLY|Rotation=90.000|XOffset=0mil|YOffset=0mil|HoleType=Round|Shape=RoundedRectangle|*
%AMROUNDEDRECTD37*
21,1,0.07887,0.03396,0,0,90.0*
21,1,0.05955,0.05328,0,0,90.0*
1,1,0.01932,0.01698,0.02977*
1,1,0.01932,0.01698,-0.02977*
1,1,0.01932,-0.01698,-0.02977*
1,1,0.01932,-0.01698,0.02977*
%
%ADD37ROUNDEDRECTD37*%
G04:AMPARAMS|DCode=38|XSize=78.87mil|YSize=59.18mil|CornerRadius=10.4mil|HoleSize=0mil|Usage=FLASHONLY|Rotation=90.000|XOffset=0mil|YOffset=0mil|HoleType=Round|Shape=RoundedRectangle|*
%AMROUNDEDRECTD38*
21,1,0.07887,0.03839,0,0,90.0*
21,1,0.05807,0.05918,0,0,90.0*
1,1,0.02080,0.01919,0.02904*
1,1,0.02080,0.01919,-0.02904*
1,1,0.02080,-0.01919,-0.02904*
1,1,0.02080,-0.01919,0.02904*
%
%ADD38ROUNDEDRECTD38*%
%ADD39R,0.02513X0.06706*%
G04:AMPARAMS|DCode=40|XSize=78.87mil|YSize=59.18mil|CornerRadius=10.4mil|HoleSize=0mil|Usage=FLASHONLY|Rotation=0.000|XOffset=0mil|YOffset=0mil|HoleType=Round|Shape=RoundedRectangle|*
%AMROUNDEDRECTD40*
21,1,0.07887,0.03839,0,0,0.0*
21,1,0.05807,0.05918,0,0,0.0*
1,1,0.02080,0.02904,-0.01919*
1,1,0.02080,-0.02904,-0.01919*
1,1,0.02080,-0.02904,0.01919*
1,1,0.02080,0.02904,0.01919*
%
%ADD40ROUNDEDRECTD40*%
G04:AMPARAMS|DCode=41|XSize=488.31mil|YSize=391.86mil|CornerRadius=23.19mil|HoleSize=0mil|Usage=FLASHONLY|Rotation=0.000|XOffset=0mil|YOffset=0mil|HoleType=Round|Shape=RoundedRectangle|*
%AMROUNDEDRECTD41*
21,1,0.48831,0.34547,0,0,0.0*
21,1,0.44193,0.39186,0,0,0.0*
1,1,0.04639,0.22097,-0.17274*
1,1,0.04639,-0.22097,-0.17274*
1,1,0.04639,-0.22097,0.17274*
1,1,0.04639,0.22097,0.17274*
%
%ADD41ROUNDEDRECTD41*%
G04:AMPARAMS|DCode=42|XSize=145.8mil|YSize=70.99mil|CornerRadius=11.87mil|HoleSize=0mil|Usage=FLASHONLY|Rotation=270.000|XOffset=0mil|YOffset=0mil|HoleType=Round|Shape=RoundedRectangle|*
%AMROUNDEDRECTD42*
21,1,0.14580,0.04724,0,0,270.0*
21,1,0.12205,0.07099,0,0,270.0*
1,1,0.02375,-0.02362,-0.06102*
1,1,0.02375,-0.02362,0.06102*
1,1,0.02375,0.02362,0.06102*
1,1,0.02375,0.02362,-0.06102*
%
%ADD42ROUNDEDRECTD42*%
G04:AMPARAMS|DCode=43|XSize=78.87mil|YSize=53.28mil|CornerRadius=9.66mil|HoleSize=0mil|Usage=FLASHONLY|Rotation=180.000|XOffset=0mil|YOffset=0mil|HoleType=Round|Shape=RoundedRectangle|*
%AMROUNDEDRECTD43*
21,1,0.07887,0.03396,0,0,180.0*
21,1,0.05955,0.05328,0,0,180.0*
1,1,0.01932,-0.02977,0.01698*
1,1,0.01932,0.02977,0.01698*
1,1,0.01932,0.02977,-0.01698*
1,1,0.01932,-0.02977,-0.01698*
%
%ADD43ROUNDEDRECTD43*%
%ADD44C,0.05918*%
%ADD45C,0.06706*%
%ADD46O,0.06312X0.07099*%
%ADD47C,0.12611*%
%ADD48C,0.08300*%
G04:AMPARAMS|DCode=49|XSize=70.99mil|YSize=70.99mil|CornerRadius=11.87mil|HoleSize=0mil|Usage=FLASHONLY|Rotation=0.000|XOffset=0mil|YOffset=0mil|HoleType=Round|Shape=RoundedRectangle|*
%AMROUNDEDRECTD49*
21,1,0.07099,0.04724,0,0,0.0*
21,1,0.04724,0.07099,0,0,0.0*
1,1,0.02375,0.02362,-0.02362*
1,1,0.02375,-0.02362,-0.02362*
1,1,0.02375,-0.02362,0.02362*
1,1,0.02375,0.02362,0.02362*
%
%ADD49ROUNDEDRECTD49*%
%ADD50C,0.07099*%
%ADD51C,0.06400*%
G04:AMPARAMS|DCode=52|XSize=64mil|YSize=64mil|CornerRadius=11mil|HoleSize=0mil|Usage=FLASHONLY|Rotation=270.000|XOffset=0mil|YOffset=0mil|HoleType=Round|Shape=RoundedRectangle|*
%AMROUNDEDRECTD52*
21,1,0.06400,0.04200,0,0,270.0*
21,1,0.04200,0.06400,0,0,270.0*
1,1,0.02200,-0.02100,-0.02100*
1,1,0.02200,-0.02100,0.02100*
1,1,0.02200,0.02100,0.02100*
1,1,0.02200,0.02100,-0.02100*
%
%ADD52ROUNDEDRECTD52*%
%ADD53C,0.00800*%
G04:AMPARAMS|DCode=54|XSize=102.49mil|YSize=70.99mil|CornerRadius=19.75mil|HoleSize=0mil|Usage=FLASHONLY|Rotation=0.000|XOffset=0mil|YOffset=0mil|HoleType=Round|Shape=RoundedRectangle|*
%AMROUNDEDRECTD54*
21,1,0.10249,0.03150,0,0,0.0*
21,1,0.06299,0.07099,0,0,0.0*
1,1,0.03950,0.03150,-0.01575*
1,1,0.03950,-0.03150,-0.01575*
1,1,0.03950,-0.03150,0.01575*
1,1,0.03950,0.03150,0.01575*
%
%ADD54ROUNDEDRECTD54*%
G04:AMPARAMS|DCode=55|XSize=67.06mil|YSize=67.06mil|CornerRadius=18.76mil|HoleSize=0mil|Usage=FLASHONLY|Rotation=0.000|XOffset=0mil|YOffset=0mil|HoleType=Round|Shape=RoundedRectangle|*
%AMROUNDEDRECTD55*
21,1,0.06706,0.02953,0,0,0.0*
21,1,0.02953,0.06706,0,0,0.0*
1,1,0.03753,0.01476,-0.01476*
1,1,0.03753,-0.01476,-0.01476*
1,1,0.03753,-0.01476,0.01476*
1,1,0.03753,0.01476,0.01476*
%
%ADD55ROUNDEDRECTD55*%
%ADD56C,0.05930*%
G04:AMPARAMS|DCode=57|XSize=64mil|YSize=64mil|CornerRadius=11mil|HoleSize=0mil|Usage=FLASHONLY|Rotation=0.000|XOffset=0mil|YOffset=0mil|HoleType=Round|Shape=RoundedRectangle|*
%AMROUNDEDRECTD57*
21,1,0.06400,0.04200,0,0,0.0*
21,1,0.04200,0.06400,0,0,0.0*
1,1,0.02200,0.02100,-0.02100*
1,1,0.02200,-0.02100,-0.02100*
1,1,0.02200,-0.02100,0.02100*
1,1,0.02200,0.02100,0.02100*
%
%ADD57ROUNDEDRECTD57*%
%ADD58C,0.05524*%
G04:AMPARAMS|DCode=59|XSize=126.11mil|YSize=90.68mil|CornerRadius=24.67mil|HoleSize=0mil|Usage=FLASHONLY|Rotation=90.000|XOffset=0mil|YOffset=0mil|HoleType=Round|Shape=RoundedRectangle|*
%AMROUNDEDRECTD59*
21,1,0.12611,0.04134,0,0,90.0*
21,1,0.07677,0.09068,0,0,90.0*
1,1,0.04934,0.02067,0.03839*
1,1,0.04934,0.02067,-0.03839*
1,1,0.04934,-0.02067,-0.03839*
1,1,0.04934,-0.02067,0.03839*
%
%ADD59ROUNDEDRECTD59*%
%ADD60C,0.07690*%
D32*
X21853Y71762D02*
D03*
D33*
X96500Y17365D02*
D03*
Y33900D02*
D03*
D34*
X419500Y163000D02*
D03*
X354100Y164600D02*
D03*
X208300Y79600D02*
D03*
X168100D02*
D03*
X75800Y19200D02*
D03*
X38700Y19400D02*
D03*
X20300Y8500D02*
D03*
D35*
X21900Y66641D02*
D03*
Y69200D02*
D03*
Y71759D02*
D03*
Y74318D02*
D03*
Y76877D02*
D03*
D36*
Y62507D02*
D03*
Y81011D02*
D03*
D37*
X127511Y11900D02*
D03*
X115700D02*
D03*
X127406Y21400D02*
D03*
X115594D02*
D03*
X115589Y30800D02*
D03*
X127400D02*
D03*
X115489Y40300D02*
D03*
X127300D02*
D03*
D38*
X129109Y103200D02*
D03*
X117691D02*
D03*
X129109Y112700D02*
D03*
X117691D02*
D03*
D39*
X92652Y74130D02*
D03*
X95148D02*
D03*
X97652D02*
D03*
X100148D02*
D03*
X102652D02*
D03*
X105148D02*
D03*
X107652D02*
D03*
X110148D02*
D03*
X112652D02*
D03*
X115148D02*
D03*
X117652D02*
D03*
X120148D02*
D03*
Y52870D02*
D03*
X117652D02*
D03*
X115148D02*
D03*
X112652D02*
D03*
X110148D02*
D03*
X107652D02*
D03*
X105148D02*
D03*
X102652D02*
D03*
X100148D02*
D03*
X97652D02*
D03*
X95148D02*
D03*
X92652D02*
D03*
D40*
X79200Y174009D02*
D03*
Y162591D02*
D03*
X98900Y174009D02*
D03*
Y162591D02*
D03*
X10100Y174117D02*
D03*
Y162700D02*
D03*
X20211Y174184D02*
D03*
Y162767D02*
D03*
X88900Y162700D02*
D03*
Y174117D02*
D03*
X69400Y162591D02*
D03*
Y174009D02*
D03*
X59500Y162591D02*
D03*
Y174009D02*
D03*
X49600Y162591D02*
D03*
Y174009D02*
D03*
X39896Y162646D02*
D03*
Y174063D02*
D03*
X30134Y162767D02*
D03*
Y174184D02*
D03*
D41*
X57300Y59853D02*
D03*
D42*
X67300Y19400D02*
D03*
X47300D02*
D03*
D43*
X29100Y29406D02*
D03*
Y17594D02*
D03*
X85100Y29305D02*
D03*
Y17494D02*
D03*
D44*
X367689Y71400D02*
D03*
X391311D02*
D03*
X326600Y140589D02*
D03*
Y164211D02*
D03*
X335400Y140589D02*
D03*
Y164211D02*
D03*
Y109989D02*
D03*
Y133611D02*
D03*
X326500D02*
D03*
Y109989D02*
D03*
X421200Y124089D02*
D03*
Y147711D02*
D03*
X288900Y50489D02*
D03*
Y74111D02*
D03*
Y42511D02*
D03*
Y18889D02*
D03*
X279100Y42611D02*
D03*
Y18989D02*
D03*
X278900Y74211D02*
D03*
Y50589D02*
D03*
X350400Y9600D02*
D03*
Y33222D02*
D03*
X220000Y146100D02*
D03*
Y169722D02*
D03*
X209000Y112489D02*
D03*
Y136111D02*
D03*
X208600Y146089D02*
D03*
Y169711D02*
D03*
X196500Y112489D02*
D03*
Y136111D02*
D03*
X282900Y109000D02*
D03*
Y132622D02*
D03*
X271100Y165822D02*
D03*
Y142200D02*
D03*
Y109089D02*
D03*
Y132711D02*
D03*
X282800Y142200D02*
D03*
Y165822D02*
D03*
X219800Y136222D02*
D03*
Y112600D02*
D03*
X184400Y14200D02*
D03*
X208022D02*
D03*
X223100Y71211D02*
D03*
Y47589D02*
D03*
X157200Y39911D02*
D03*
Y16289D02*
D03*
X157400Y70711D02*
D03*
Y47089D02*
D03*
D45*
X394959Y80100D02*
D03*
X364841D02*
D03*
X368500Y160500D02*
D03*
X408500D02*
D03*
X316000Y60500D02*
D03*
X326000Y80500D02*
D03*
X336000Y60500D02*
D03*
X261400Y167000D02*
D03*
Y157000D02*
D03*
Y147000D02*
D03*
Y137000D02*
D03*
Y127000D02*
D03*
Y117000D02*
D03*
Y107000D02*
D03*
X230140D02*
D03*
Y117000D02*
D03*
Y127000D02*
D03*
Y137000D02*
D03*
Y147000D02*
D03*
Y157000D02*
D03*
X168300Y71100D02*
D03*
X208300D02*
D03*
D46*
X357340Y114906D02*
D03*
X349860D02*
D03*
D47*
X182500Y165100D02*
D03*
X157900Y165000D02*
D03*
X299800Y23200D02*
D03*
X16600Y35100D02*
D03*
Y20600D02*
D03*
D48*
X348500Y129800D02*
D03*
Y149485D02*
D03*
X359600Y129858D02*
D03*
Y149542D02*
D03*
X315500Y146343D02*
D03*
Y126657D02*
D03*
X410400Y126357D02*
D03*
Y146043D02*
D03*
X299500Y36858D02*
D03*
Y56542D02*
D03*
X362300Y11457D02*
D03*
Y31143D02*
D03*
X197000Y146458D02*
D03*
Y166142D02*
D03*
X294800Y146642D02*
D03*
Y126957D02*
D03*
X236400Y68642D02*
D03*
Y48957D02*
D03*
D49*
X371000Y147500D02*
D03*
X311300Y42000D02*
D03*
X181100Y57600D02*
D03*
D50*
X371000Y137500D02*
D03*
Y127500D02*
D03*
Y117500D02*
D03*
X399800D02*
D03*
Y127500D02*
D03*
Y137500D02*
D03*
Y147500D02*
D03*
X311300Y32000D02*
D03*
Y22000D02*
D03*
Y12000D02*
D03*
X340100D02*
D03*
Y22000D02*
D03*
Y32000D02*
D03*
Y42000D02*
D03*
X181100Y47600D02*
D03*
Y37600D02*
D03*
Y27600D02*
D03*
X209900D02*
D03*
Y37600D02*
D03*
Y47600D02*
D03*
Y57600D02*
D03*
D51*
X357400Y52700D02*
D03*
X262600Y53300D02*
D03*
Y31663D02*
D03*
X233637Y30800D02*
D03*
D52*
X357400Y60574D02*
D03*
X262600Y61174D02*
D03*
Y39537D02*
D03*
D53*
X390100Y11700D02*
D03*
Y51700D02*
D03*
X375700Y51600D02*
D03*
Y11600D02*
D03*
D54*
X6152Y91838D02*
D03*
Y51680D02*
D03*
X20719D02*
D03*
Y91838D02*
D03*
D55*
X230140Y167000D02*
D03*
D56*
X169700Y141000D02*
D03*
X159700Y131000D02*
D03*
X169700Y121000D02*
D03*
D57*
X225763Y30800D02*
D03*
D58*
X169800Y27772D02*
D03*
Y57300D02*
D03*
X49643Y152300D02*
D03*
X59485D02*
D03*
X69328D02*
D03*
X79170D02*
D03*
X89013D02*
D03*
X98855D02*
D03*
X29958D02*
D03*
X39800D02*
D03*
X10272D02*
D03*
X20115D02*
D03*
X59485Y122300D02*
D03*
X49643D02*
D03*
X39800D02*
D03*
X29958D02*
D03*
X20115D02*
D03*
X10272D02*
D03*
X79170D02*
D03*
X69328D02*
D03*
X98855D02*
D03*
X89013D02*
D03*
D59*
X116142Y152380D02*
D03*
X133858D02*
D03*
X116142Y124820D02*
D03*
X133858D02*
D03*
D60*
X136200Y53000D02*
D03*
Y63000D02*
D03*
Y73000D02*
D03*
M02*
