G04*
G04 #@! TF.GenerationSoftware,Altium Limited,Altium Designer,21.4.1 (30)*
G04*
G04 Layer_Color=65535*
%FSLAX25Y25*%
%MOIN*%
G70*
G04*
G04 #@! TF.SameCoordinates,4B32E59A-19CF-40ED-AED0-984A1E0E73E4*
G04*
G04*
G04 #@! TF.FilePolarity,Positive*
G04*
G01*
G75*
%ADD10C,0.01000*%
%ADD11C,0.00500*%
%ADD12C,0.00787*%
%ADD13C,0.00984*%
%ADD14C,0.00300*%
%ADD15C,0.00600*%
%ADD16C,0.00394*%
%ADD17C,0.01181*%
%ADD18C,0.00630*%
%ADD19R,0.01812X0.03937*%
%ADD20R,0.01712X0.03937*%
D10*
X365411Y110968D02*
G03*
X365411Y110968I-11811J0D01*
G01*
X77379Y30833D02*
Y37306D01*
X37221Y30833D02*
Y36876D01*
Y30833D02*
X77379D01*
D11*
X189587Y165100D02*
G03*
X189587Y165100I-7087J0D01*
G01*
X164987Y165000D02*
G03*
X164987Y165000I-7087J0D01*
G01*
X306887Y23200D02*
G03*
X306887Y23200I-7087J0D01*
G01*
X23687Y35100D02*
G03*
X23687Y35100I-7087J0D01*
G01*
Y20600D02*
G03*
X23687Y20600I-7087J0D01*
G01*
X422900Y163000D02*
G03*
X422900Y163000I-3400J0D01*
G01*
X357500Y164600D02*
G03*
X357500Y164600I-3400J0D01*
G01*
X383432Y150216D02*
G03*
X387368Y150216I1969J0D01*
G01*
X323731Y44717D02*
G03*
X327668Y44717I1969J0D01*
G01*
X211700Y79600D02*
G03*
X211700Y79600I-3400J0D01*
G01*
X171500D02*
G03*
X171500Y79600I-3400J0D01*
G01*
X193532Y60316D02*
G03*
X197468Y60316I1969J0D01*
G01*
X129866Y138557D02*
G03*
X129866Y138557I-4921J0D01*
G01*
X79200Y19200D02*
G03*
X79200Y19200I-3400J0D01*
G01*
X42100Y19400D02*
G03*
X42100Y19400I-3400J0D01*
G01*
X23700Y8500D02*
G03*
X23700Y8500I-3400J0D01*
G01*
X102012Y16577D02*
Y34687D01*
X90988Y16577D02*
Y34687D01*
X100438D02*
X102012D01*
X100400Y16577D02*
X102012D01*
X90988Y34687D02*
X92563D01*
X90988Y16577D02*
X92600D01*
X100400D02*
Y20514D01*
X92600Y16577D02*
Y20514D01*
X100400D02*
X102012D01*
X90988D02*
X92600D01*
X343500Y124643D02*
Y154642D01*
X353500D01*
Y124643D02*
Y154642D01*
X343500Y124643D02*
X353500D01*
X354600Y124700D02*
Y154700D01*
X364600D01*
Y124700D02*
Y154700D01*
X354600Y124700D02*
X364600D01*
X320500Y121500D02*
Y151500D01*
X310500Y121500D02*
X320500D01*
X310500D02*
Y151500D01*
X320500D01*
X405400Y121200D02*
Y151200D01*
X415400D01*
Y121200D02*
Y151200D01*
X405400Y121200D02*
X415400D01*
X375557Y150216D02*
X383432D01*
X387368D02*
X395243D01*
Y114784D02*
Y150216D01*
X375557Y114784D02*
X395243D01*
X375557D02*
Y150216D01*
X315858Y44717D02*
X323731D01*
X327668D02*
X335542D01*
Y9284D02*
Y44717D01*
X315858Y9284D02*
X335542D01*
X315858D02*
Y44717D01*
X294500Y61700D02*
X304500D01*
X294500Y31700D02*
Y61700D01*
Y31700D02*
X304500D01*
Y61700D01*
X357300Y36300D02*
X367300D01*
X357300Y6300D02*
Y36300D01*
Y6300D02*
X367300D01*
Y36300D01*
X192000Y171300D02*
X202000D01*
X192000Y141300D02*
Y171300D01*
Y141300D02*
X202000D01*
Y171300D01*
X289800Y121800D02*
X299800D01*
Y151800D01*
X289800D02*
X299800D01*
X289800Y121800D02*
Y151800D01*
X241400Y43800D02*
Y73800D01*
X231400Y43800D02*
X241400D01*
X231400D02*
Y73800D01*
X241400D01*
X185658Y60316D02*
X193532D01*
X197468D02*
X205343D01*
Y24883D02*
Y60316D01*
X185658Y24883D02*
X205343D01*
X185658D02*
Y60316D01*
X111000Y125859D02*
Y151341D01*
X139000Y125847D02*
Y151357D01*
X121457Y125214D02*
X128543D01*
X121457Y151986D02*
X128543D01*
X120031Y8450D02*
Y15350D01*
X123180Y8450D02*
Y15350D01*
X119925Y17950D02*
Y24850D01*
X123075Y17950D02*
Y24850D01*
X121500Y106700D02*
X125300D01*
X121400Y99700D02*
X125400D01*
X121500Y116200D02*
X125300D01*
X121400Y109200D02*
X125400D01*
X123069Y27350D02*
Y34250D01*
X119920Y27350D02*
Y34250D01*
X122969Y36850D02*
Y43750D01*
X119820Y36850D02*
Y43750D01*
X75700Y166300D02*
Y170300D01*
X82700Y166400D02*
Y170200D01*
X95400Y166300D02*
Y170300D01*
X102400Y166400D02*
Y170200D01*
X6600Y166409D02*
Y170409D01*
X13600Y166509D02*
Y170309D01*
X16712Y166475D02*
Y170475D01*
X23711Y166575D02*
Y170375D01*
X92400Y166509D02*
Y170309D01*
X85400Y166409D02*
Y170409D01*
X72900Y166400D02*
Y170200D01*
X65900Y166300D02*
Y170300D01*
X63000Y166400D02*
Y170200D01*
X56000Y166300D02*
Y170300D01*
X53100Y166400D02*
Y170200D01*
X46100Y166300D02*
Y170300D01*
X43396Y166455D02*
Y170255D01*
X36396Y166355D02*
Y170355D01*
X33634Y166575D02*
Y170375D01*
X26634Y166475D02*
Y170475D01*
X25650Y21925D02*
X32550D01*
X25650Y25075D02*
X32550D01*
X81650Y21825D02*
X88550D01*
X81650Y24975D02*
X88550D01*
D12*
X410655Y91078D02*
G03*
X404211Y84674I-76J-6369D01*
G01*
X403957Y8264D02*
G03*
X409529Y2657I5541J-66D01*
G01*
X425818Y2586D02*
G03*
X430994Y7730I61J5116D01*
G01*
X431240Y84825D02*
G03*
X425063Y91042I-6143J73D01*
G01*
X430576Y177181D02*
G03*
X423213Y184456I-7276J0D01*
G01*
X423222Y93516D02*
G03*
X430483Y100691I85J7174D01*
G01*
X312386Y184433D02*
G03*
X305241Y177373I-84J-7061D01*
G01*
X305285Y99791D02*
G03*
X311577Y93424I6292J-75D01*
G01*
X345843Y60894D02*
G03*
X345843Y60106I0J-394D01*
G01*
D02*
G03*
X345843Y60894I0J394D01*
G01*
X401667Y84273D02*
G03*
X394941Y91041I-6689J80D01*
G01*
X396000Y2606D02*
G03*
X401426Y7997I64J5362D01*
G01*
X249774Y7892D02*
G03*
X255200Y2500I5362J-30D01*
G01*
X257463Y90940D02*
G03*
X249440Y82820I0J-8024D01*
G01*
X244102Y176268D02*
G03*
X248039Y176268I1969J0D01*
G01*
X296523Y93524D02*
G03*
X302815Y99891I0J6292D01*
G01*
X302871Y177664D02*
G03*
X295900Y184553I-6889J0D01*
G01*
X153413Y184589D02*
G03*
X146442Y177700I-82J-6889D01*
G01*
X146500Y99926D02*
G03*
X152932Y93417I6432J-77D01*
G01*
X169700Y152417D02*
G03*
X169700Y152811I0J197D01*
G01*
D02*
G03*
X169700Y152417I0J-197D01*
G01*
D02*
G03*
X169700Y152811I0J197D01*
G01*
X247161Y83357D02*
G03*
X239689Y90918I-7472J89D01*
G01*
X152732Y90983D02*
G03*
X146300Y84474I0J-6432D01*
G01*
X144123Y177666D02*
G03*
X137152Y184555I-6889J0D01*
G01*
X9017Y184586D02*
G03*
X2642Y178286I-75J-6300D01*
G01*
X241700Y2779D02*
G03*
X247126Y8170I64J5362D01*
G01*
X146373Y8099D02*
G03*
X151800Y2707I5362J-30D01*
G01*
X138600Y2446D02*
G03*
X144027Y7808I64J5362D01*
G01*
X106999Y7829D02*
G03*
X112425Y2467I5362J0D01*
G01*
X106899Y38504D02*
G03*
X99405Y45998I-7494J0D01*
G01*
X87017Y50233D02*
G03*
X91259Y45990I4242J0D01*
G01*
X87041Y76930D02*
G03*
X79565Y84406I-7476J0D01*
G01*
X34997Y84400D02*
G03*
X27521Y76924I0J-7476D01*
G01*
X2342Y46273D02*
G03*
X4400Y45524I2058J2453D01*
G01*
X23264Y45515D02*
G03*
X27506Y49757I0J4242D01*
G01*
X84792Y49735D02*
G03*
X90698Y43830I5906J0D01*
G01*
X84792Y77260D02*
G03*
X79465Y82587I-5328J0D01*
G01*
X35400Y82582D02*
G03*
X29495Y76676I0J-5906D01*
G01*
X105085Y37923D02*
G03*
X99180Y43829I-5906J0D01*
G01*
X99180Y2400D02*
G03*
X105085Y8305I0J5906D01*
G01*
X23600Y43815D02*
G03*
X29506Y49720I0J5906D01*
G01*
X8400Y43806D02*
G03*
X2495Y37900I0J-5906D01*
G01*
Y8305D02*
G03*
X8400Y2400I5906J0D01*
G01*
X349761Y106638D02*
Y110575D01*
X347694Y108705D02*
X351927D01*
X409529Y2657D02*
X425818Y2586D01*
X410655Y91078D02*
X425063Y91042D01*
X403957Y8264D02*
X404211Y84674D01*
X430994Y7730D02*
X431240Y84825D01*
X312386Y184433D02*
X423213Y184456D01*
X430483Y100691D02*
X430576Y177181D01*
X309377Y93424D02*
X423222Y93516D01*
X305241Y177373D02*
X305285Y99791D01*
X401426Y7997D02*
X401667Y84273D01*
X349726Y60700D02*
X353026D01*
X351400Y59147D02*
Y62147D01*
X255200Y2500D02*
X396000Y2606D01*
X257463Y90940D02*
X394941Y91041D01*
X249440Y82820D02*
X249774Y7892D01*
X256824Y59547D02*
Y62547D01*
X255150Y61100D02*
X258450D01*
X256700Y37747D02*
Y40747D01*
X255026Y39300D02*
X258326D01*
X235070Y176268D02*
X244102D01*
X248039D02*
X257070D01*
X235070Y97748D02*
X257070D01*
X235070D02*
Y176252D01*
X257070Y97748D02*
Y176152D01*
X302815Y99891D02*
X302871Y177664D01*
X153413Y184589D02*
X295900Y184553D01*
X146442Y177700D02*
X146500Y99926D01*
X152932Y93417D02*
X296523Y93524D01*
X152732Y90983D02*
X239689Y90918D01*
X224064Y25194D02*
X227364D01*
X225738Y23640D02*
Y26640D01*
X146300Y84474D02*
X146373Y8099D01*
X247126Y8170D02*
X247161Y83357D01*
X151800Y2707D02*
X241700Y2779D01*
X151800Y2707D02*
X151800Y2707D01*
X164879Y22851D02*
Y62221D01*
X174721D01*
Y22851D02*
Y62221D01*
X164879Y22851D02*
X174721D01*
X2339Y97069D02*
X2642Y178286D01*
X9017Y184586D02*
X137152Y184555D01*
X144027Y7808D02*
X144123Y177666D01*
X106899Y38504D02*
X106999Y7829D01*
X112425Y2467D02*
X138600Y2446D01*
X14800Y97000D02*
Y115000D01*
Y97000D02*
X24600D01*
Y115191D01*
X35300D01*
Y97100D02*
Y115191D01*
Y97100D02*
X44700D01*
Y115100D01*
X54564D01*
Y97000D02*
Y115100D01*
Y97000D02*
X64300D01*
Y115100D01*
X74400D01*
Y97000D02*
Y115100D01*
Y97000D02*
X84200D01*
Y115100D01*
X94300Y97500D02*
Y115100D01*
X104564D01*
X4564Y97000D02*
Y115191D01*
Y97000D02*
X104564D01*
Y115191D01*
X4564D02*
X104564D01*
X90416Y49917D02*
Y55823D01*
X89372Y57201D02*
X123428D01*
Y69799D01*
X89372D02*
X123428D01*
X89372Y57201D02*
Y69799D01*
X91259Y45987D02*
X99405Y45998D01*
X87025Y50233D02*
X87041Y76930D01*
X34997Y84400D02*
X79565Y84406D01*
X27506Y51420D02*
X27521Y76924D01*
X27506Y49757D02*
Y51420D01*
X4400Y45524D02*
X23264Y45515D01*
X35400Y82582D02*
X79465Y82587D01*
X29506Y49720D02*
Y76676D01*
X84792Y49735D02*
Y77260D01*
X90698Y43826D02*
X99278D01*
X105082Y8353D02*
Y37923D01*
X2495Y8305D02*
Y37900D01*
X8400Y2400D02*
X99180Y2400D01*
X8400Y43806D02*
X23600D01*
X131200Y48000D02*
Y78000D01*
Y48000D02*
X141200D01*
X131200Y78000D02*
X141200D01*
Y48000D02*
Y78000D01*
D13*
X371492Y152800D02*
G03*
X371492Y152800I-492J0D01*
G01*
X311792Y47300D02*
G03*
X311792Y47300I-492J0D01*
G01*
X230762Y171900D02*
G03*
X230762Y171900I-492J0D01*
G01*
X181592Y62900D02*
G03*
X181592Y62900I-492J0D01*
G01*
D14*
X367636Y56637D02*
G03*
X367636Y56637I-10236J0D01*
G01*
X272836Y57237D02*
G03*
X272836Y57237I-10236J0D01*
G01*
Y35600D02*
G03*
X272836Y35600I-10236J0D01*
G01*
X239936Y30800D02*
G03*
X239936Y30800I-10236J0D01*
G01*
D15*
X384424Y77100D02*
X384424Y83000D01*
X372824Y83100D02*
X386624Y83100D01*
Y77100D02*
Y83100D01*
X372824Y77100D02*
X386624D01*
X372824D02*
Y83100D01*
X382900Y157500D02*
Y163500D01*
Y157500D02*
X396700D01*
Y163500D01*
X382900Y163500D02*
X396700Y163500D01*
X394500Y157500D02*
X394500Y163400D01*
X385100Y18700D02*
X395100D01*
Y44700D01*
X385100D02*
X395100D01*
X385100D02*
X385100Y18700D01*
X385100Y39700D02*
X395100D01*
X370700Y44600D02*
X380700D01*
X370700Y18600D02*
Y44600D01*
Y18600D02*
X380700D01*
X380700Y44600D02*
X380700Y18600D01*
X370700Y23600D02*
X380700D01*
X182700Y68100D02*
Y74100D01*
Y68100D02*
X196500D01*
Y74100D01*
X182700Y74100D02*
X196500Y74100D01*
X194300Y68100D02*
X194300Y74000D01*
D16*
X307240Y52193D02*
Y89713D01*
X344760D01*
Y52193D02*
Y89713D01*
X307240Y52193D02*
X344760D01*
X188519Y112240D02*
Y149760D01*
X150999D02*
X188519D01*
X150999Y112240D02*
Y149760D01*
Y112240D02*
X188519D01*
D17*
X4564Y118993D02*
Y157379D01*
Y118993D02*
X6237Y117320D01*
X104564D01*
X4564Y157379D02*
X104564D01*
Y117320D02*
Y157379D01*
D18*
X420222Y23330D02*
Y25429D01*
Y24379D01*
X423370D01*
X420222Y28578D02*
Y26478D01*
X423370D01*
Y28578D01*
X421796Y26478D02*
Y27528D01*
X420222Y29627D02*
X423370D01*
X421796D01*
Y31726D01*
X420222D01*
X423370D01*
Y32776D02*
X420222D01*
X423370Y34875D01*
X420222D01*
Y37499D02*
Y36449D01*
X420746Y35924D01*
X422845D01*
X423370Y36449D01*
Y37499D01*
X422845Y38023D01*
X420746D01*
X420222Y37499D01*
Y39073D02*
X423370D01*
Y41172D01*
X420222Y43796D02*
Y42746D01*
X420746Y42222D01*
X422845D01*
X423370Y42746D01*
Y43796D01*
X422845Y44320D01*
X420746D01*
X420222Y43796D01*
X420746Y47469D02*
X420222Y46944D01*
Y45895D01*
X420746Y45370D01*
X422845D01*
X423370Y45895D01*
Y46944D01*
X422845Y47469D01*
X421796D01*
Y46420D01*
X420222Y48519D02*
Y49568D01*
Y49043D01*
X423370D01*
Y48519D01*
Y49568D01*
X420222Y53241D02*
Y52192D01*
Y52717D01*
X422845D01*
X423370Y52192D01*
Y51667D01*
X422845Y51143D01*
X423370Y59539D02*
Y57440D01*
X421271Y59539D01*
X420746D01*
X420222Y59014D01*
Y57964D01*
X420746Y57440D01*
Y60588D02*
X420222Y61113D01*
Y62163D01*
X420746Y62687D01*
X422845D01*
X423370Y62163D01*
Y61113D01*
X422845Y60588D01*
X420746D01*
X423370Y65836D02*
Y63737D01*
X421271Y65836D01*
X420746D01*
X420222Y65311D01*
Y64262D01*
X420746Y63737D01*
X423370Y66885D02*
Y67935D01*
Y67410D01*
X420222D01*
X420746Y66885D01*
X416870Y8330D02*
X413722D01*
Y9904D01*
X414246Y10429D01*
X415296D01*
X415821Y9904D01*
Y8330D01*
X413722Y13053D02*
Y12003D01*
X414246Y11479D01*
X416345D01*
X416870Y12003D01*
Y13053D01*
X416345Y13578D01*
X414246D01*
X413722Y13053D01*
Y14627D02*
X416870D01*
Y16726D01*
X413722Y19875D02*
Y17776D01*
X416870D01*
Y19875D01*
X415296Y17776D02*
Y18825D01*
X413722Y20924D02*
Y23023D01*
Y21974D01*
X416870D01*
Y24073D02*
X413722D01*
X416870Y26172D01*
X413722D01*
Y27222D02*
Y28271D01*
Y27746D01*
X416870D01*
Y27222D01*
Y28271D01*
X413722Y32994D02*
Y35093D01*
Y34043D01*
X416870D01*
Y36143D02*
X414771D01*
X413722Y37192D01*
X414771Y38241D01*
X416870D01*
X415296D01*
Y36143D01*
X413722Y39291D02*
X416870D01*
Y40865D01*
X416345Y41390D01*
X415821D01*
X415296Y40865D01*
Y39291D01*
Y40865D01*
X414771Y41390D01*
X414246D01*
X413722Y40865D01*
Y39291D01*
Y44014D02*
Y42964D01*
X414246Y42440D01*
X416345D01*
X416870Y42964D01*
Y44014D01*
X416345Y44539D01*
X414246D01*
X413722Y44014D01*
X416870Y45588D02*
X413722D01*
Y47163D01*
X414246Y47687D01*
X415296D01*
X415821Y47163D01*
Y45588D01*
Y46638D02*
X416870Y47687D01*
X413722Y51885D02*
Y52935D01*
Y52410D01*
X416870D01*
Y51885D01*
Y52935D01*
Y54509D02*
X413722D01*
X416870Y56608D01*
X413722D01*
Y59232D02*
Y58183D01*
X414246Y57658D01*
X416345D01*
X416870Y58183D01*
Y59232D01*
X416345Y59757D01*
X414246D01*
X413722Y59232D01*
Y60806D02*
X415821D01*
X416870Y61856D01*
X415821Y62906D01*
X413722D01*
X416870Y63955D02*
X414771D01*
X413722Y65004D01*
X414771Y66054D01*
X416870D01*
X415296D01*
Y63955D01*
X413722Y67104D02*
Y69203D01*
Y68153D01*
X416870D01*
X413722Y70252D02*
Y71302D01*
Y70777D01*
X416870D01*
Y70252D01*
Y71302D01*
X413722Y72876D02*
X415821D01*
X416870Y73926D01*
X415821Y74975D01*
X413722D01*
X416870Y76025D02*
X413722D01*
X416870Y78124D01*
X413722D01*
Y79173D02*
Y80223D01*
Y79698D01*
X416870D01*
Y79173D01*
Y80223D01*
X413722Y81797D02*
X416870D01*
X415296D01*
Y83896D01*
X413722D01*
X416870D01*
X343030Y178230D02*
Y181378D01*
X344079Y180329D01*
X345129Y181378D01*
Y178230D01*
X348278Y181378D02*
X346179D01*
Y178230D01*
X348278D01*
X346179Y179804D02*
X347228D01*
X349327Y178230D02*
Y181378D01*
X350901D01*
X351426Y180854D01*
Y179804D01*
X350901Y179279D01*
X349327D01*
X350377D02*
X351426Y178230D01*
X352476Y181378D02*
X353525D01*
X353000D01*
Y178230D01*
X352476D01*
X353525D01*
X355100Y181378D02*
Y178230D01*
X357199D01*
X358248D02*
Y181378D01*
X360347Y178230D01*
Y181378D01*
X361397D02*
X362446D01*
X361922D01*
Y178230D01*
X361397D01*
X362446D01*
X364020Y181378D02*
Y178230D01*
Y179279D01*
X366120Y181378D01*
X364545Y179804D01*
X366120Y178230D01*
X372417Y180854D02*
X371892Y181378D01*
X370843D01*
X370318Y180854D01*
Y178755D01*
X370843Y178230D01*
X371892D01*
X372417Y178755D01*
Y179804D01*
X371367D01*
X373466Y181378D02*
Y178230D01*
X375565D01*
X376615D02*
Y180329D01*
X377664Y181378D01*
X378714Y180329D01*
Y178230D01*
Y179804D01*
X376615D01*
X381862Y180854D02*
X381338Y181378D01*
X380288D01*
X379764Y180854D01*
Y180329D01*
X380288Y179804D01*
X381338D01*
X381862Y179279D01*
Y178755D01*
X381338Y178230D01*
X380288D01*
X379764Y178755D01*
X382912Y178230D02*
Y181378D01*
X385011Y178230D01*
Y181378D01*
X387635D02*
X386585D01*
X386061Y180854D01*
Y178755D01*
X386585Y178230D01*
X387635D01*
X388160Y178755D01*
Y180854D01*
X387635Y181378D01*
X391308Y180854D02*
X390784Y181378D01*
X389734D01*
X389209Y180854D01*
Y180329D01*
X389734Y179804D01*
X390784D01*
X391308Y179279D01*
Y178755D01*
X390784Y178230D01*
X389734D01*
X389209Y178755D01*
X392358Y181378D02*
X394457D01*
X393407D01*
Y178230D01*
X395506Y181378D02*
X396556D01*
X396031D01*
Y178230D01*
X395506D01*
X396556D01*
X301529Y14479D02*
X299430D01*
Y11330D01*
X301529D01*
X299430Y12904D02*
X300479D01*
X255430Y7978D02*
Y4830D01*
X257004D01*
X257529Y5355D01*
Y7454D01*
X257004Y7978D01*
X255430D01*
X260678D02*
X258578D01*
Y4830D01*
X260678D01*
X258578Y6404D02*
X259628D01*
X261727Y7978D02*
X263826D01*
X262777D01*
Y4830D01*
X266975Y7978D02*
X264876D01*
Y4830D01*
X266975D01*
X264876Y6404D02*
X265925D01*
X268024Y7978D02*
Y4830D01*
Y5879D01*
X270123Y7978D01*
X268549Y6404D01*
X270123Y4830D01*
X271173Y7978D02*
X273272D01*
X272222D01*
Y4830D01*
X275896Y7978D02*
X274846D01*
X274322Y7454D01*
Y5355D01*
X274846Y4830D01*
X275896D01*
X276420Y5355D01*
Y7454D01*
X275896Y7978D01*
X277470Y4830D02*
Y7978D01*
X279044D01*
X279569Y7454D01*
Y6404D01*
X279044Y5879D01*
X277470D01*
X278520D02*
X279569Y4830D01*
X283767Y7978D02*
X285866D01*
Y7454D01*
X283767Y5355D01*
Y4830D01*
X285866D01*
X286916Y7978D02*
X287965D01*
X287441D01*
Y4830D01*
X286916D01*
X287965D01*
X291639Y7454D02*
X291114Y7978D01*
X290064D01*
X289540Y7454D01*
Y5355D01*
X290064Y4830D01*
X291114D01*
X291639Y5355D01*
X182629Y177578D02*
X180530D01*
Y174430D01*
X182629D01*
X180530Y176004D02*
X181579D01*
X183678D02*
X185778D01*
X184728Y177054D02*
Y174955D01*
X157529Y177578D02*
X155430D01*
Y174430D01*
X157529D01*
X155430Y176004D02*
X156479D01*
X158579D02*
X160678D01*
X154930Y100478D02*
Y97330D01*
X156504D01*
X157029Y97855D01*
Y99954D01*
X156504Y100478D01*
X154930D01*
X160178D02*
X158079D01*
Y97330D01*
X160178D01*
X158079Y98904D02*
X159128D01*
X161227Y100478D02*
X163326D01*
X162277D01*
Y97330D01*
X166475Y100478D02*
X164376D01*
Y97330D01*
X166475D01*
X164376Y98904D02*
X165425D01*
X167524Y100478D02*
Y97330D01*
Y98379D01*
X169623Y100478D01*
X168049Y98904D01*
X169623Y97330D01*
X170673Y100478D02*
X172772D01*
X171722D01*
Y97330D01*
X175396Y100478D02*
X174346D01*
X173821Y99954D01*
Y97855D01*
X174346Y97330D01*
X175396D01*
X175920Y97855D01*
Y99954D01*
X175396Y100478D01*
X176970Y97330D02*
Y100478D01*
X178544D01*
X179069Y99954D01*
Y98904D01*
X178544Y98379D01*
X176970D01*
X178020D02*
X179069Y97330D01*
X183267Y100478D02*
Y98379D01*
X184317Y97330D01*
X185366Y98379D01*
Y100478D01*
X186416D02*
Y97330D01*
X188515D01*
X189564D02*
Y99429D01*
X190614Y100478D01*
X191664Y99429D01*
Y97330D01*
Y98904D01*
X189564D01*
X194812Y99954D02*
X194287Y100478D01*
X193238D01*
X192713Y99954D01*
Y97855D01*
X193238Y97330D01*
X194287D01*
X194812Y97855D01*
Y98904D01*
X193763D01*
X197961Y100478D02*
X195862D01*
Y97330D01*
X197961D01*
X195862Y98904D02*
X196911D01*
X179647Y5011D02*
Y8160D01*
X181221D01*
X181746Y7635D01*
Y6586D01*
X181221Y6061D01*
X179647D01*
X180696D02*
X181746Y5011D01*
X184894Y8160D02*
X182795D01*
Y6586D01*
X183845D01*
X182795D01*
Y5011D01*
X189092Y8160D02*
Y5011D01*
X190667D01*
X191191Y5536D01*
Y7635D01*
X190667Y8160D01*
X189092D01*
X194340D02*
X192241D01*
Y5011D01*
X194340D01*
X192241Y6586D02*
X193290D01*
X195389Y8160D02*
X197488D01*
X196439D01*
Y5011D01*
X200637Y8160D02*
X198538D01*
Y5011D01*
X200637D01*
X198538Y6586D02*
X199588D01*
X201687Y8160D02*
Y5011D01*
Y6061D01*
X203786Y8160D01*
X202211Y6586D01*
X203786Y5011D01*
X204835Y8160D02*
X206934D01*
X205885D01*
Y5011D01*
X209558Y8160D02*
X208509D01*
X207984Y7635D01*
Y5536D01*
X208509Y5011D01*
X209558D01*
X210083Y5536D01*
Y7635D01*
X209558Y8160D01*
X211132Y5011D02*
Y8160D01*
X212707D01*
X213231Y7635D01*
Y6586D01*
X212707Y6061D01*
X211132D01*
X212182D02*
X213231Y5011D01*
X57895Y100887D02*
Y101937D01*
Y101412D01*
X61043D01*
Y100887D01*
Y101937D01*
Y103511D02*
X57895D01*
X61043Y105610D01*
X57895D01*
Y106660D02*
X61043D01*
Y108234D01*
X60519Y108759D01*
X58420D01*
X57895Y108234D01*
Y106660D01*
X61043Y111907D02*
Y109808D01*
X58944Y111907D01*
X58420D01*
X57895Y111383D01*
Y110333D01*
X58420Y109808D01*
X38221Y102230D02*
X40321D01*
X41370Y103279D01*
X40321Y104329D01*
X38221D01*
Y106953D02*
Y105903D01*
X38746Y105378D01*
X40845D01*
X41370Y105903D01*
Y106953D01*
X40845Y107478D01*
X38746D01*
X38221Y106953D01*
Y108527D02*
X41370D01*
Y110626D01*
X77684Y100796D02*
Y101845D01*
Y101321D01*
X80833D01*
Y100796D01*
Y101845D01*
Y103419D02*
X77684D01*
X80833Y105519D01*
X77684D01*
Y106568D02*
X80833D01*
Y108142D01*
X80308Y108667D01*
X78209D01*
X77684Y108142D01*
Y106568D01*
X80833Y111291D02*
X77684D01*
X79259Y109717D01*
Y111816D01*
X67667Y100796D02*
Y101845D01*
Y101320D01*
X70816D01*
Y100796D01*
Y101845D01*
Y103419D02*
X67667D01*
X70816Y105519D01*
X67667D01*
Y106568D02*
X70816D01*
Y108142D01*
X70291Y108667D01*
X68192D01*
X67667Y108142D01*
Y106568D01*
X68192Y109717D02*
X67667Y110241D01*
Y111291D01*
X68192Y111816D01*
X68717D01*
X69242Y111291D01*
Y110766D01*
Y111291D01*
X69766Y111816D01*
X70291D01*
X70816Y111291D01*
Y110241D01*
X70291Y109717D01*
X47969Y101101D02*
Y102151D01*
Y101626D01*
X51118D01*
Y101101D01*
Y102151D01*
Y103725D02*
X47969D01*
X51118Y105824D01*
X47969D01*
Y106874D02*
X51118D01*
Y108448D01*
X50593Y108973D01*
X48494D01*
X47969Y108448D01*
Y106874D01*
X51118Y110022D02*
Y111072D01*
Y110547D01*
X47969D01*
X48494Y110022D01*
X11819Y104552D02*
X8670D01*
Y106126D01*
X9195Y106651D01*
X10245D01*
X10769Y106126D01*
Y104552D01*
Y105602D02*
X11819Y106651D01*
X8670Y109800D02*
Y107701D01*
X10245D01*
Y108750D01*
Y107701D01*
X11819D01*
X129170Y57630D02*
X126022D01*
Y59204D01*
X126546Y59729D01*
X127596D01*
X128121Y59204D01*
Y57630D01*
X129170Y60778D02*
X126022D01*
Y62353D01*
X126546Y62878D01*
X127596D01*
X128121Y62353D01*
Y60778D01*
Y61828D02*
X129170Y62878D01*
X126022Y65501D02*
Y64452D01*
X126546Y63927D01*
X128645D01*
X129170Y64452D01*
Y65501D01*
X128645Y66026D01*
X126546D01*
X126022Y65501D01*
X126546Y69175D02*
X126022Y68650D01*
Y67601D01*
X126546Y67076D01*
X128645D01*
X129170Y67601D01*
Y68650D01*
X128645Y69175D01*
X127596D01*
Y68125D01*
X87396Y100826D02*
Y101876D01*
Y101351D01*
X90545D01*
Y100826D01*
Y101876D01*
Y103450D02*
X87396D01*
X90545Y105549D01*
X87396D01*
Y106599D02*
X90545D01*
Y108173D01*
X90020Y108698D01*
X87921D01*
X87396Y108173D01*
Y106599D01*
Y111846D02*
Y109747D01*
X88970D01*
X88446Y110797D01*
Y111322D01*
X88970Y111846D01*
X90020D01*
X90545Y111322D01*
Y110272D01*
X90020Y109747D01*
X97871Y100796D02*
Y101845D01*
Y101321D01*
X101020D01*
Y100796D01*
Y101845D01*
Y103419D02*
X97871D01*
X101020Y105519D01*
X97871D01*
Y106568D02*
X101020D01*
Y108142D01*
X100495Y108667D01*
X98396D01*
X97871Y108142D01*
Y106568D01*
Y111816D02*
X98396Y110766D01*
X99446Y109717D01*
X100495D01*
X101020Y110241D01*
Y111291D01*
X100495Y111816D01*
X99970D01*
X99446Y111291D01*
Y109717D01*
X28021Y98730D02*
X30121D01*
X31170Y99779D01*
X30121Y100829D01*
X28021D01*
Y101878D02*
X31170D01*
Y103978D01*
Y105027D02*
X29071D01*
X28021Y106077D01*
X29071Y107126D01*
X31170D01*
X29596D01*
Y105027D01*
X28546Y110275D02*
X28021Y109750D01*
Y108701D01*
X28546Y108176D01*
X30645D01*
X31170Y108701D01*
Y109750D01*
X30645Y110275D01*
X29596D01*
Y109225D01*
X31170Y111324D02*
X29071D01*
X28021Y112374D01*
X29071Y113423D01*
X31170D01*
X29596D01*
Y111324D01*
X18521Y101430D02*
Y103529D01*
X19046D01*
X21145Y101430D01*
X21670D01*
Y103529D01*
X18521Y104578D02*
Y105628D01*
Y105103D01*
X21670D01*
Y104578D01*
Y105628D01*
X19046Y109301D02*
X18521Y108777D01*
Y107727D01*
X19046Y107202D01*
X21145D01*
X21670Y107727D01*
Y108777D01*
X21145Y109301D01*
X18521Y112450D02*
Y110351D01*
X21670D01*
Y112450D01*
X20096Y110351D02*
Y111400D01*
X7454Y37071D02*
X7978Y37596D01*
Y38645D01*
X7454Y39170D01*
X5355D01*
X4830Y38645D01*
Y37596D01*
X5355Y37071D01*
X6404D01*
Y38120D01*
X4830Y36022D02*
X7978D01*
X4830Y33922D01*
X7978D01*
Y32873D02*
X4830D01*
Y31299D01*
X5355Y30774D01*
X7454D01*
X7978Y31299D01*
Y32873D01*
X6404Y25070D02*
Y22971D01*
X7454Y24021D02*
X5355D01*
Y21922D02*
X4830Y21397D01*
Y20347D01*
X5355Y19822D01*
X7454D01*
X7978Y20347D01*
Y21397D01*
X7454Y21922D01*
X6929D01*
X6404Y21397D01*
Y19822D01*
X7978Y18773D02*
X5879D01*
X4830Y17723D01*
X5879Y16674D01*
X7978D01*
X71930Y12304D02*
X74029D01*
X72979Y13354D02*
Y11255D01*
X77178Y13879D02*
X75078D01*
Y12304D01*
X76128Y12829D01*
X76653D01*
X77178Y12304D01*
Y11255D01*
X76653Y10730D01*
X75603D01*
X75078Y11255D01*
X78227Y13879D02*
Y11779D01*
X79277Y10730D01*
X80326Y11779D01*
Y13879D01*
X33430Y12604D02*
X35529D01*
X34479Y13654D02*
Y11555D01*
X36579D02*
X37103Y11030D01*
X38153D01*
X38678Y11555D01*
Y13654D01*
X38153Y14178D01*
X37103D01*
X36579Y13654D01*
Y13129D01*
X37103Y12604D01*
X38678D01*
X39727Y14178D02*
Y12079D01*
X40777Y11030D01*
X41826Y12079D01*
Y14178D01*
X28430Y4430D02*
Y7579D01*
X30529Y4430D01*
Y7579D01*
X31578Y4430D02*
Y6529D01*
X32628Y7579D01*
X33678Y6529D01*
Y4430D01*
Y6004D01*
X31578D01*
X34727Y4430D02*
Y7579D01*
X36301D01*
X36826Y7054D01*
Y6004D01*
X36301Y5479D01*
X34727D01*
X39975Y7579D02*
X37876D01*
Y4430D01*
X39975D01*
X37876Y6004D02*
X38925D01*
X41024Y7579D02*
X43123D01*
X42074D01*
Y4430D01*
X45747Y7579D02*
X44698D01*
X44173Y7054D01*
Y4955D01*
X44698Y4430D01*
X45747D01*
X46272Y4955D01*
Y7054D01*
X45747Y7579D01*
X49420Y7054D02*
X48896Y7579D01*
X47846D01*
X47322Y7054D01*
Y6529D01*
X47846Y6004D01*
X48896D01*
X49420Y5479D01*
Y4955D01*
X48896Y4430D01*
X47846D01*
X47322Y4955D01*
X50470Y7579D02*
X52569D01*
X51520D01*
Y4430D01*
X53619D02*
Y7579D01*
X55718Y4430D01*
Y7579D01*
X56767D02*
X57817D01*
X57292D01*
Y4430D01*
X56767D01*
X57817D01*
X62540D02*
Y7579D01*
X64114D01*
X64639Y7054D01*
Y6004D01*
X64114Y5479D01*
X62540D01*
X63589D02*
X64639Y4430D01*
X67787Y7579D02*
X65688D01*
Y4430D01*
X67787D01*
X65688Y6004D02*
X66738D01*
X70936Y7054D02*
X70411Y7579D01*
X69362D01*
X68837Y7054D01*
Y4955D01*
X69362Y4430D01*
X70411D01*
X70936Y4955D01*
Y6004D01*
X69886D01*
X71985Y7579D02*
Y4955D01*
X72510Y4430D01*
X73560D01*
X74085Y4955D01*
Y7579D01*
X75134D02*
Y4430D01*
X77233D01*
X78283D02*
Y6529D01*
X79332Y7579D01*
X80382Y6529D01*
Y4430D01*
Y6004D01*
X78283D01*
X81431Y7579D02*
X83530D01*
X82481D01*
Y4430D01*
X86154Y7579D02*
X85105D01*
X84580Y7054D01*
Y4955D01*
X85105Y4430D01*
X86154D01*
X86679Y4955D01*
Y7054D01*
X86154Y7579D01*
X87728Y4430D02*
Y7579D01*
X89303D01*
X89827Y7054D01*
Y6004D01*
X89303Y5479D01*
X87728D01*
X88778D02*
X89827Y4430D01*
X8629Y9554D02*
X8104Y10079D01*
X7055D01*
X6530Y9554D01*
Y7455D01*
X7055Y6930D01*
X8104D01*
X8629Y7455D01*
Y8504D01*
X7579D01*
X9679Y6930D02*
Y10079D01*
X11778Y6930D01*
Y10079D01*
X12827D02*
Y6930D01*
X14401D01*
X14926Y7455D01*
Y9554D01*
X14401Y10079D01*
X12827D01*
X98630Y86830D02*
Y89978D01*
X99679Y88929D01*
X100729Y89978D01*
Y86830D01*
X101778Y89978D02*
X102828D01*
X102303D01*
Y86830D01*
X101778D01*
X102828D01*
X104402Y89978D02*
Y86830D01*
Y87879D01*
X106501Y89978D01*
X104927Y88404D01*
X106501Y86830D01*
X107551D02*
Y89978D01*
X109125D01*
X109650Y89454D01*
Y88404D01*
X109125Y87879D01*
X107551D01*
X108600D02*
X109650Y86830D01*
X112274Y89978D02*
X111224D01*
X110699Y89454D01*
Y87355D01*
X111224Y86830D01*
X112274D01*
X112799Y87355D01*
Y89454D01*
X112274Y89978D01*
X113848D02*
Y86830D01*
Y87879D01*
X115947Y89978D01*
X114373Y88404D01*
X115947Y86830D01*
X116997D02*
Y89978D01*
X118571D01*
X119096Y89454D01*
Y88404D01*
X118571Y87879D01*
X116997D01*
X118046D02*
X119096Y86830D01*
X120145D02*
Y89978D01*
X121195Y88929D01*
X122244Y89978D01*
Y86830D01*
X123294Y89978D02*
X124343D01*
X123819D01*
Y86830D01*
X123294D01*
X124343D01*
X125918Y89978D02*
Y86830D01*
X128017D01*
X129066D02*
Y89978D01*
X131165Y86830D01*
Y89978D01*
X132215D02*
X133264D01*
X132740D01*
Y86830D01*
X132215D01*
X133264D01*
X134839Y89978D02*
Y86830D01*
Y87879D01*
X136938Y89978D01*
X135363Y88404D01*
X136938Y86830D01*
X376002Y62926D02*
Y66074D01*
X377576D01*
X378101Y65549D01*
Y64500D01*
X377576Y63975D01*
X376002D01*
X377051D02*
X378101Y62926D01*
X381249D02*
X379151D01*
X381249Y65025D01*
Y65549D01*
X380725Y66074D01*
X379675D01*
X379151Y65549D01*
X384398Y66074D02*
X382299D01*
Y64500D01*
X383349Y65025D01*
X383873D01*
X384398Y64500D01*
Y63450D01*
X383873Y62926D01*
X382824D01*
X382299Y63450D01*
X377276Y88974D02*
Y85826D01*
X378851D01*
X379375Y86351D01*
Y88450D01*
X378851Y88974D01*
X377276D01*
X382524D02*
X380425D01*
Y87400D01*
X381474Y87925D01*
X381999D01*
X382524Y87400D01*
Y86351D01*
X381999Y85826D01*
X380949D01*
X380425Y86351D01*
X364615Y99426D02*
Y102574D01*
X365664Y101525D01*
X366714Y102574D01*
Y99426D01*
X367763Y102574D02*
X368813D01*
X368288D01*
Y99426D01*
X367763D01*
X368813D01*
X372486Y102050D02*
X371961Y102574D01*
X370912D01*
X370387Y102050D01*
Y99950D01*
X370912Y99426D01*
X371961D01*
X372486Y99950D01*
X373536Y99426D02*
X374585D01*
X374061D01*
Y102574D01*
X373536Y102050D01*
X355163Y71549D02*
X354639Y72074D01*
X353589D01*
X353064Y71549D01*
Y69450D01*
X353589Y68926D01*
X354639D01*
X355163Y69450D01*
X356213Y68926D02*
X357262D01*
X356738D01*
Y72074D01*
X356213Y71549D01*
X358837Y72074D02*
X360936D01*
Y71549D01*
X358837Y69450D01*
Y68926D01*
X297763Y66049D02*
X297239Y66574D01*
X296189D01*
X295664Y66049D01*
Y63951D01*
X296189Y63426D01*
X297239D01*
X297763Y63951D01*
X298813Y63426D02*
X299862D01*
X299338D01*
Y66574D01*
X298813Y66049D01*
X303011Y63426D02*
Y66574D01*
X301437Y65000D01*
X303536D01*
X360663Y40549D02*
X360139Y41074D01*
X359089D01*
X358564Y40549D01*
Y38451D01*
X359089Y37926D01*
X360139D01*
X360663Y38451D01*
X361713Y37926D02*
X362762D01*
X362238D01*
Y41074D01*
X361713Y40549D01*
X366436Y41074D02*
X365386Y40549D01*
X364337Y39500D01*
Y38451D01*
X364861Y37926D01*
X365911D01*
X366436Y38451D01*
Y38975D01*
X365911Y39500D01*
X364337D01*
X242164Y181174D02*
X243214D01*
X242689D01*
Y178026D01*
X242164D01*
X243214D01*
X246887Y180649D02*
X246362Y181174D01*
X245313D01*
X244788Y180649D01*
Y178551D01*
X245313Y178026D01*
X246362D01*
X246887Y178551D01*
X249511Y178026D02*
Y181174D01*
X247937Y179600D01*
X250036D01*
X266802Y101526D02*
Y104674D01*
X268376D01*
X268901Y104149D01*
Y103100D01*
X268376Y102575D01*
X266802D01*
X267851D02*
X268901Y101526D01*
X269951Y104149D02*
X270475Y104674D01*
X271525D01*
X272049Y104149D01*
Y103625D01*
X271525Y103100D01*
X271000D01*
X271525D01*
X272049Y102575D01*
Y102050D01*
X271525Y101526D01*
X270475D01*
X269951Y102050D01*
X275198Y104674D02*
X274149Y104149D01*
X273099Y103100D01*
Y102050D01*
X273624Y101526D01*
X274673D01*
X275198Y102050D01*
Y102575D01*
X274673Y103100D01*
X273099D01*
X205227Y173726D02*
Y176874D01*
X206801D01*
X207326Y176349D01*
Y175300D01*
X206801Y174775D01*
X205227D01*
X206276D02*
X207326Y173726D01*
X208375Y176349D02*
X208900Y176874D01*
X209949D01*
X210474Y176349D01*
Y175825D01*
X209949Y175300D01*
X209425D01*
X209949D01*
X210474Y174775D01*
Y174250D01*
X209949Y173726D01*
X208900D01*
X208375Y174250D01*
X211524Y173726D02*
X212573D01*
X212049D01*
Y176874D01*
X211524Y176349D01*
X266702Y169926D02*
Y173074D01*
X268276D01*
X268801Y172549D01*
Y171500D01*
X268276Y170975D01*
X266702D01*
X267751D02*
X268801Y169926D01*
X269850Y172549D02*
X270375Y173074D01*
X271425D01*
X271950Y172549D01*
Y172025D01*
X271425Y171500D01*
X270900D01*
X271425D01*
X271950Y170975D01*
Y170450D01*
X271425Y169926D01*
X270375D01*
X269850Y170450D01*
X272999Y172549D02*
X273524Y173074D01*
X274573D01*
X275098Y172549D01*
Y170450D01*
X274573Y169926D01*
X273524D01*
X272999Y170450D01*
Y172549D01*
X204902Y104526D02*
Y107674D01*
X206476D01*
X207001Y107150D01*
Y106100D01*
X206476Y105575D01*
X204902D01*
X205951D02*
X207001Y104526D01*
X208050Y107150D02*
X208575Y107674D01*
X209625D01*
X210150Y107150D01*
Y106625D01*
X209625Y106100D01*
X209100D01*
X209625D01*
X210150Y105575D01*
Y105051D01*
X209625Y104526D01*
X208575D01*
X208050Y105051D01*
X213298Y107674D02*
X211199D01*
Y106100D01*
X212249Y106625D01*
X212773D01*
X213298Y106100D01*
Y105051D01*
X212773Y104526D01*
X211724D01*
X211199Y105051D01*
X216002Y104526D02*
Y107674D01*
X217576D01*
X218101Y107150D01*
Y106100D01*
X217576Y105575D01*
X216002D01*
X217051D02*
X218101Y104526D01*
X219150Y107150D02*
X219675Y107674D01*
X220725D01*
X221250Y107150D01*
Y106625D01*
X220725Y106100D01*
X220200D01*
X220725D01*
X221250Y105575D01*
Y105051D01*
X220725Y104526D01*
X219675D01*
X219150Y105051D01*
X222299Y107674D02*
X224398D01*
Y107150D01*
X222299Y105051D01*
Y104526D01*
X216002Y173826D02*
Y176974D01*
X217576D01*
X218101Y176450D01*
Y175400D01*
X217576Y174875D01*
X216002D01*
X217051D02*
X218101Y173826D01*
X219150Y176450D02*
X219675Y176974D01*
X220725D01*
X221250Y176450D01*
Y175925D01*
X220725Y175400D01*
X220200D01*
X220725D01*
X221250Y174875D01*
Y174351D01*
X220725Y173826D01*
X219675D01*
X219150Y174351D01*
X224398Y173826D02*
X222299D01*
X224398Y175925D01*
Y176450D01*
X223873Y176974D01*
X222824D01*
X222299Y176450D01*
X279102Y101726D02*
Y104874D01*
X280676D01*
X281201Y104350D01*
Y103300D01*
X280676Y102775D01*
X279102D01*
X280151D02*
X281201Y101726D01*
X282250Y104350D02*
X282775Y104874D01*
X283825D01*
X284349Y104350D01*
Y103825D01*
X283825Y103300D01*
X283300D01*
X283825D01*
X284349Y102775D01*
Y102251D01*
X283825Y101726D01*
X282775D01*
X282250Y102251D01*
X285399Y104350D02*
X285924Y104874D01*
X286973D01*
X287498Y104350D01*
Y103825D01*
X286973Y103300D01*
X286449D01*
X286973D01*
X287498Y102775D01*
Y102251D01*
X286973Y101726D01*
X285924D01*
X285399Y102251D01*
X192402Y104626D02*
Y107774D01*
X193976D01*
X194501Y107249D01*
Y106200D01*
X193976Y105675D01*
X192402D01*
X193451D02*
X194501Y104626D01*
X195551Y107249D02*
X196075Y107774D01*
X197125D01*
X197650Y107249D01*
Y106725D01*
X197125Y106200D01*
X196600D01*
X197125D01*
X197650Y105675D01*
Y105150D01*
X197125Y104626D01*
X196075D01*
X195551Y105150D01*
X200273Y104626D02*
Y107774D01*
X198699Y106200D01*
X200798D01*
X278602Y170026D02*
Y173174D01*
X280176D01*
X280701Y172650D01*
Y171600D01*
X280176Y171075D01*
X278602D01*
X279651D02*
X280701Y170026D01*
X283850D02*
X281750D01*
X283850Y172125D01*
Y172650D01*
X283325Y173174D01*
X282275D01*
X281750Y172650D01*
X284899Y170551D02*
X285424Y170026D01*
X286473D01*
X286998Y170551D01*
Y172650D01*
X286473Y173174D01*
X285424D01*
X284899Y172650D01*
Y172125D01*
X285424Y171600D01*
X286998D01*
X292701Y119650D02*
X292176Y120174D01*
X291127D01*
X290602Y119650D01*
Y117551D01*
X291127Y117026D01*
X292176D01*
X292701Y117551D01*
X295849Y117026D02*
X293751D01*
X295849Y119125D01*
Y119650D01*
X295325Y120174D01*
X294275D01*
X293751Y119650D01*
X296899D02*
X297424Y120174D01*
X298473D01*
X298998Y119650D01*
Y117551D01*
X298473Y117026D01*
X297424D01*
X296899Y117551D01*
Y119650D01*
X195363Y176349D02*
X194839Y176874D01*
X193789D01*
X193264Y176349D01*
Y174250D01*
X193789Y173726D01*
X194839D01*
X195363Y174250D01*
X196413Y173726D02*
X197462D01*
X196938D01*
Y176874D01*
X196413Y176349D01*
X199037Y174250D02*
X199561Y173726D01*
X200611D01*
X201136Y174250D01*
Y176349D01*
X200611Y176874D01*
X199561D01*
X199037Y176349D01*
Y175825D01*
X199561Y175300D01*
X201136D01*
X125158Y158770D02*
X124634Y159295D01*
X123584D01*
X123059Y158770D01*
Y158245D01*
X123584Y157720D01*
X124634D01*
X125158Y157196D01*
Y156671D01*
X124634Y156146D01*
X123584D01*
X123059Y156671D01*
X126208Y156146D02*
X127257D01*
X126733D01*
Y159295D01*
X126208Y158770D01*
X133627Y111026D02*
Y114174D01*
X135201D01*
X135726Y113649D01*
Y112600D01*
X135201Y112075D01*
X133627D01*
X134676D02*
X135726Y111026D01*
X138874D02*
X136775D01*
X138874Y113125D01*
Y113649D01*
X138349Y114174D01*
X137300D01*
X136775Y113649D01*
X139924Y111026D02*
X140973D01*
X140449D01*
Y114174D01*
X139924Y113649D01*
X133102Y101526D02*
Y104674D01*
X134676D01*
X135201Y104149D01*
Y103100D01*
X134676Y102575D01*
X133102D01*
X134151D02*
X135201Y101526D01*
X138349D02*
X136250D01*
X138349Y103625D01*
Y104149D01*
X137825Y104674D01*
X136775D01*
X136250Y104149D01*
X139399D02*
X139924Y104674D01*
X140973D01*
X141498Y104149D01*
Y102050D01*
X140973Y101526D01*
X139924D01*
X139399Y102050D01*
Y104149D01*
X133300Y22624D02*
X132775Y23149D01*
X131726D01*
X131201Y22624D01*
Y20525D01*
X131726Y20001D01*
X132775D01*
X133300Y20525D01*
X134350Y20001D02*
X135399D01*
X134875D01*
Y23149D01*
X134350Y22624D01*
X139073Y20001D02*
X136974D01*
X139073Y22100D01*
Y22624D01*
X138548Y23149D01*
X137498D01*
X136974Y22624D01*
X133360Y13133D02*
X132836Y13658D01*
X131786D01*
X131261Y13133D01*
Y11034D01*
X131786Y10509D01*
X132836D01*
X133360Y11034D01*
X134410Y10509D02*
X135459D01*
X134935D01*
Y13658D01*
X134410Y13133D01*
X137034D02*
X137558Y13658D01*
X138608D01*
X139133Y13133D01*
Y12608D01*
X138608Y12084D01*
X138083D01*
X138608D01*
X139133Y11559D01*
Y11034D01*
X138608Y10509D01*
X137558D01*
X137034Y11034D01*
X30500Y91374D02*
X29451D01*
X29975D01*
Y88750D01*
X29451Y88226D01*
X28926D01*
X28401Y88750D01*
X31550Y88226D02*
X32599D01*
X32074D01*
Y91374D01*
X31550Y90850D01*
X17788Y178392D02*
Y181541D01*
X19362D01*
X19887Y181016D01*
Y179967D01*
X19362Y179442D01*
X17788D01*
X18837D02*
X19887Y178392D01*
X23035D02*
X20936D01*
X23035Y180491D01*
Y181016D01*
X22511Y181541D01*
X21461D01*
X20936Y181016D01*
X57376Y178226D02*
Y181374D01*
X58951D01*
X59475Y180850D01*
Y179800D01*
X58951Y179275D01*
X57376D01*
X58426D02*
X59475Y178226D01*
X60525Y181374D02*
X62624D01*
Y180850D01*
X60525Y178751D01*
Y178226D01*
X47276Y178326D02*
Y181474D01*
X48851D01*
X49375Y180949D01*
Y179900D01*
X48851Y179375D01*
X47276D01*
X48326D02*
X49375Y178326D01*
X52524Y181474D02*
X51474Y180949D01*
X50425Y179900D01*
Y178850D01*
X50950Y178326D01*
X51999D01*
X52524Y178850D01*
Y179375D01*
X51999Y179900D01*
X50425D01*
X75279Y178341D02*
Y181490D01*
X76853D01*
X77377Y180965D01*
Y179916D01*
X76853Y179391D01*
X75279D01*
X76328D02*
X77377Y178341D01*
X78427D02*
X79477D01*
X78952D01*
Y181490D01*
X78427Y180965D01*
X81051Y178341D02*
X82100D01*
X81576D01*
Y181490D01*
X81051Y180965D01*
X95757Y178521D02*
Y181670D01*
X97332D01*
X97856Y181145D01*
Y180095D01*
X97332Y179571D01*
X95757D01*
X96807D02*
X97856Y178521D01*
X98906D02*
X99955D01*
X99431D01*
Y181670D01*
X98906Y181145D01*
X103104Y178521D02*
Y181670D01*
X101530Y180095D01*
X103629D01*
X66876Y178426D02*
Y181574D01*
X68450D01*
X68975Y181050D01*
Y180000D01*
X68450Y179475D01*
X66876D01*
X67926D02*
X68975Y178426D01*
X70025Y178951D02*
X70549Y178426D01*
X71599D01*
X72124Y178951D01*
Y181050D01*
X71599Y181574D01*
X70549D01*
X70025Y181050D01*
Y180525D01*
X70549Y180000D01*
X72124D01*
X85177Y178364D02*
Y181512D01*
X86751D01*
X87276Y180988D01*
Y179938D01*
X86751Y179413D01*
X85177D01*
X86226D02*
X87276Y178364D01*
X88326D02*
X89375D01*
X88850D01*
Y181512D01*
X88326Y180988D01*
X90949D02*
X91474Y181512D01*
X92524D01*
X93048Y180988D01*
Y180463D01*
X92524Y179938D01*
X91999D01*
X92524D01*
X93048Y179413D01*
Y178889D01*
X92524Y178364D01*
X91474D01*
X90949Y178889D01*
X7901Y178434D02*
Y181583D01*
X9475D01*
X10000Y181058D01*
Y180009D01*
X9475Y179484D01*
X7901D01*
X8951D02*
X10000Y178434D01*
X11050D02*
X12099D01*
X11574D01*
Y181583D01*
X11050Y181058D01*
X37572Y178280D02*
Y181429D01*
X39147D01*
X39671Y180904D01*
Y179855D01*
X39147Y179330D01*
X37572D01*
X38622D02*
X39671Y178280D01*
X42820Y181429D02*
X40721D01*
Y179855D01*
X41770Y180379D01*
X42295D01*
X42820Y179855D01*
Y178805D01*
X42295Y178280D01*
X41245D01*
X40721Y178805D01*
X27910Y178401D02*
Y181550D01*
X29485D01*
X30009Y181025D01*
Y179975D01*
X29485Y179451D01*
X27910D01*
X28960D02*
X30009Y178401D01*
X31059Y181025D02*
X31584Y181550D01*
X32633D01*
X33158Y181025D01*
Y180500D01*
X32633Y179975D01*
X32109D01*
X32633D01*
X33158Y179451D01*
Y178926D01*
X32633Y178401D01*
X31584D01*
X31059Y178926D01*
X49352Y139774D02*
Y136626D01*
X51451D01*
X54600Y139774D02*
X52501D01*
Y136626D01*
X54600D01*
X52501Y138200D02*
X53550D01*
X55650Y139774D02*
Y136626D01*
X57224D01*
X57749Y137151D01*
Y139250D01*
X57224Y139774D01*
X55650D01*
X58798Y136626D02*
X59848D01*
X59323D01*
Y139774D01*
X58798Y139250D01*
X358975Y159150D02*
X358451Y159674D01*
X357401D01*
X356876Y159150D01*
Y157051D01*
X357401Y156526D01*
X358451D01*
X358975Y157051D01*
X360025D02*
X360549Y156526D01*
X361599D01*
X362124Y157051D01*
Y159150D01*
X361599Y159674D01*
X360549D01*
X360025Y159150D01*
Y158625D01*
X360549Y158100D01*
X362124D01*
X391476Y109674D02*
Y107051D01*
X392001Y106526D01*
X393051D01*
X393575Y107051D01*
Y109674D01*
X396724Y106526D02*
X394625D01*
X396724Y108625D01*
Y109150D01*
X396199Y109674D01*
X395149D01*
X394625Y109150D01*
X210101Y65674D02*
Y63051D01*
X210626Y62526D01*
X211675D01*
X212200Y63051D01*
Y65674D01*
X213249Y62526D02*
X214299D01*
X213774D01*
Y65674D01*
X213249Y65149D01*
X415202Y171474D02*
X417301D01*
X416251D01*
Y168326D01*
X418351D02*
Y171474D01*
X419925D01*
X420449Y170949D01*
Y169900D01*
X419925Y169375D01*
X418351D01*
X423598Y171474D02*
X422549Y170949D01*
X421499Y169900D01*
Y168851D01*
X422024Y168326D01*
X423073D01*
X423598Y168851D01*
Y169375D01*
X423073Y169900D01*
X421499D01*
X349902Y173074D02*
X352001D01*
X350951D01*
Y169926D01*
X353050D02*
Y173074D01*
X354625D01*
X355150Y172549D01*
Y171500D01*
X354625Y170975D01*
X353050D01*
X358298Y173074D02*
X356199D01*
Y171500D01*
X357249Y172025D01*
X357773D01*
X358298Y171500D01*
Y170450D01*
X357773Y169926D01*
X356724D01*
X356199Y170450D01*
X203902Y87874D02*
X206001D01*
X204951D01*
Y84726D01*
X207050D02*
Y87874D01*
X208625D01*
X209150Y87349D01*
Y86300D01*
X208625Y85775D01*
X207050D01*
X212298Y84726D02*
X210199D01*
X212298Y86825D01*
Y87349D01*
X211773Y87874D01*
X210724D01*
X210199Y87349D01*
X164527Y87974D02*
X166626D01*
X165576D01*
Y84826D01*
X167675D02*
Y87974D01*
X169249D01*
X169774Y87450D01*
Y86400D01*
X169249Y85875D01*
X167675D01*
X170824Y84826D02*
X171873D01*
X171349D01*
Y87974D01*
X170824Y87450D01*
X219164Y75226D02*
Y78374D01*
X220739D01*
X221263Y77850D01*
Y76800D01*
X220739Y76275D01*
X219164D01*
X220214D02*
X221263Y75226D01*
X222313D02*
X223362D01*
X222838D01*
Y78374D01*
X222313Y77850D01*
X224937D02*
X225462Y78374D01*
X226511D01*
X227036Y77850D01*
Y75750D01*
X226511Y75226D01*
X225462D01*
X224937Y75750D01*
Y77850D01*
X320164Y102626D02*
Y105774D01*
X321739D01*
X322263Y105250D01*
Y104200D01*
X321739Y103675D01*
X320164D01*
X321214D02*
X322263Y102626D01*
X323313D02*
X324362D01*
X323838D01*
Y105774D01*
X323313Y105250D01*
X328036Y105774D02*
X326986Y105250D01*
X325937Y104200D01*
Y103150D01*
X326462Y102626D01*
X327511D01*
X328036Y103150D01*
Y103675D01*
X327511Y104200D01*
X325937D01*
X417564Y116626D02*
Y119774D01*
X419139D01*
X419663Y119249D01*
Y118200D01*
X419139Y117675D01*
X417564D01*
X418614D02*
X419663Y116626D01*
X420713D02*
X421762D01*
X421238D01*
Y119774D01*
X420713Y119249D01*
X423337Y119774D02*
X425436D01*
Y119249D01*
X423337Y117150D01*
Y116626D01*
X151974Y25376D02*
X148826D01*
Y26950D01*
X149351Y27475D01*
X150400D01*
X150925Y26950D01*
Y25376D01*
Y26426D02*
X151974Y27475D01*
X149351Y28525D02*
X148826Y29050D01*
Y30099D01*
X149351Y30624D01*
X149875D01*
X150400Y30099D01*
X150925Y30624D01*
X151450D01*
X151974Y30099D01*
Y29050D01*
X151450Y28525D01*
X150925D01*
X150400Y29050D01*
X149875Y28525D01*
X149351D01*
X150400Y29050D02*
Y30099D01*
X332864Y168626D02*
Y171774D01*
X334439D01*
X334963Y171249D01*
Y170200D01*
X334439Y169675D01*
X332864D01*
X333914D02*
X334963Y168626D01*
X336013D02*
X337062D01*
X336538D01*
Y171774D01*
X336013Y171249D01*
X338637Y169150D02*
X339161Y168626D01*
X340211D01*
X340736Y169150D01*
Y171249D01*
X340211Y171774D01*
X339161D01*
X338637Y171249D01*
Y170725D01*
X339161Y170200D01*
X340736D01*
X321064Y168626D02*
Y171774D01*
X322639D01*
X323163Y171249D01*
Y170200D01*
X322639Y169675D01*
X321064D01*
X322114D02*
X323163Y168626D01*
X324213D02*
X325262D01*
X324738D01*
Y171774D01*
X324213Y171249D01*
X328936Y171774D02*
X326837D01*
Y170200D01*
X327886Y170725D01*
X328411D01*
X328936Y170200D01*
Y169150D01*
X328411Y168626D01*
X327361D01*
X326837Y169150D01*
X212585Y12814D02*
Y15962D01*
X214159D01*
X214684Y15438D01*
Y14388D01*
X214159Y13863D01*
X212585D01*
X213634D02*
X214684Y12814D01*
X217308D02*
Y15962D01*
X215734Y14388D01*
X217833D01*
X152374Y55264D02*
X149226D01*
Y56839D01*
X149750Y57363D01*
X150800D01*
X151325Y56839D01*
Y55264D01*
Y56314D02*
X152374Y57363D01*
Y58413D02*
Y59462D01*
Y58938D01*
X149226D01*
X149750Y58413D01*
X152374Y63136D02*
Y61037D01*
X150275Y63136D01*
X149750D01*
X149226Y62611D01*
Y61562D01*
X149750Y61037D01*
X332064Y102726D02*
Y105874D01*
X333639D01*
X334163Y105350D01*
Y104300D01*
X333639Y103775D01*
X332064D01*
X333114D02*
X334163Y102726D01*
X335213D02*
X336262D01*
X335738D01*
Y105874D01*
X335213Y105350D01*
X337837D02*
X338362Y105874D01*
X339411D01*
X339936Y105350D01*
Y104825D01*
X339411Y104300D01*
X339936Y103775D01*
Y103251D01*
X339411Y102726D01*
X338362D01*
X337837Y103251D01*
Y103775D01*
X338362Y104300D01*
X337837Y104825D01*
Y105350D01*
X338362Y104300D02*
X339411D01*
X165302Y107626D02*
Y110774D01*
X166876D01*
X167401Y110249D01*
Y109200D01*
X166876Y108675D01*
X165302D01*
X166351D02*
X167401Y107626D01*
X168450Y110249D02*
X168975Y110774D01*
X170025D01*
X170549Y110249D01*
Y109725D01*
X170025Y109200D01*
X169500D01*
X170025D01*
X170549Y108675D01*
Y108150D01*
X170025Y107626D01*
X168975D01*
X168450Y108150D01*
X171599Y110249D02*
X172124Y110774D01*
X173173D01*
X173698Y110249D01*
Y109725D01*
X173173Y109200D01*
X173698Y108675D01*
Y108150D01*
X173173Y107626D01*
X172124D01*
X171599Y108150D01*
Y108675D01*
X172124Y109200D01*
X171599Y109725D01*
Y110249D01*
X172124Y109200D02*
X173173D01*
X346302Y85626D02*
Y88774D01*
X347876D01*
X348401Y88249D01*
Y87200D01*
X347876Y86675D01*
X346302D01*
X347351D02*
X348401Y85626D01*
X351550D02*
X349450D01*
X351550Y87725D01*
Y88249D01*
X351025Y88774D01*
X349975D01*
X349450Y88249D01*
X352599D02*
X353124Y88774D01*
X354173D01*
X354698Y88249D01*
Y87725D01*
X354173Y87200D01*
X354698Y86675D01*
Y86150D01*
X354173Y85626D01*
X353124D01*
X352599Y86150D01*
Y86675D01*
X353124Y87200D01*
X352599Y87725D01*
Y88249D01*
X353124Y87200D02*
X354173D01*
X272902Y11626D02*
Y14774D01*
X274476D01*
X275001Y14250D01*
Y13200D01*
X274476Y12675D01*
X272902D01*
X273951D02*
X275001Y11626D01*
X278150D02*
X276050D01*
X278150Y13725D01*
Y14250D01*
X277625Y14774D01*
X276575D01*
X276050Y14250D01*
X279199Y14774D02*
X281298D01*
Y14250D01*
X279199Y12150D01*
Y11626D01*
X286502Y79026D02*
Y82174D01*
X288076D01*
X288601Y81650D01*
Y80600D01*
X288076Y80075D01*
X286502D01*
X287551D02*
X288601Y79026D01*
X291750D02*
X289651D01*
X291750Y81125D01*
Y81650D01*
X291225Y82174D01*
X290175D01*
X289651Y81650D01*
X294898Y82174D02*
X293849Y81650D01*
X292799Y80600D01*
Y79550D01*
X293324Y79026D01*
X294373D01*
X294898Y79550D01*
Y80075D01*
X294373Y80600D01*
X292799D01*
X346302Y37848D02*
Y40996D01*
X347876D01*
X348401Y40472D01*
Y39422D01*
X347876Y38897D01*
X346302D01*
X347351D02*
X348401Y37848D01*
X351550D02*
X349450D01*
X351550Y39947D01*
Y40472D01*
X351025Y40996D01*
X349975D01*
X349450Y40472D01*
X354173Y37848D02*
Y40996D01*
X352599Y39422D01*
X354698D01*
X285444Y11309D02*
Y14457D01*
X287018D01*
X287543Y13933D01*
Y12883D01*
X287018Y12359D01*
X285444D01*
X286494D02*
X287543Y11309D01*
X290692D02*
X288593D01*
X290692Y13408D01*
Y13933D01*
X290167Y14457D01*
X289118D01*
X288593Y13933D01*
X291741D02*
X292266Y14457D01*
X293316D01*
X293840Y13933D01*
Y13408D01*
X293316Y12883D01*
X292791D01*
X293316D01*
X293840Y12359D01*
Y11834D01*
X293316Y11309D01*
X292266D01*
X291741Y11834D01*
X274102Y78826D02*
Y81974D01*
X275676D01*
X276201Y81450D01*
Y80400D01*
X275676Y79875D01*
X274102D01*
X275151D02*
X276201Y78826D01*
X279349D02*
X277251D01*
X279349Y80925D01*
Y81450D01*
X278825Y81974D01*
X277775D01*
X277251Y81450D01*
X282498Y78826D02*
X280399D01*
X282498Y80925D01*
Y81450D01*
X281973Y81974D01*
X280924D01*
X280399Y81450D01*
X300664Y7574D02*
X301714D01*
X301189D01*
Y4426D01*
X300664D01*
X301714D01*
X305387Y7050D02*
X304862Y7574D01*
X303813D01*
X303288Y7050D01*
Y4950D01*
X303813Y4426D01*
X304862D01*
X305387Y4950D01*
X306437Y7050D02*
X306961Y7574D01*
X308011D01*
X308536Y7050D01*
Y6525D01*
X308011Y6000D01*
X307486D01*
X308011D01*
X308536Y5475D01*
Y4950D01*
X308011Y4426D01*
X306961D01*
X306437Y4950D01*
X53264Y27274D02*
X54314D01*
X53789D01*
Y24126D01*
X53264D01*
X54314D01*
X57987Y26750D02*
X57462Y27274D01*
X56413D01*
X55888Y26750D01*
Y24651D01*
X56413Y24126D01*
X57462D01*
X57987Y24651D01*
X61136Y24126D02*
X59037D01*
X61136Y26225D01*
Y26750D01*
X60611Y27274D01*
X59562D01*
X59037Y26750D01*
X88889Y82474D02*
X89939D01*
X89414D01*
Y79326D01*
X88889D01*
X89939D01*
X93612Y81950D02*
X93087Y82474D01*
X92038D01*
X91513Y81950D01*
Y79851D01*
X92038Y79326D01*
X93087D01*
X93612Y79851D01*
X94661Y79326D02*
X95711D01*
X95186D01*
Y82474D01*
X94661Y81950D01*
X186701Y79074D02*
Y75926D01*
X188275D01*
X188800Y76451D01*
Y78549D01*
X188275Y79074D01*
X186701D01*
X189849Y75926D02*
X190899D01*
X190374D01*
Y79074D01*
X189849Y78549D01*
X386776Y168674D02*
Y165526D01*
X388351D01*
X388875Y166051D01*
Y168149D01*
X388351Y168674D01*
X386776D01*
X389925Y168149D02*
X390450Y168674D01*
X391499D01*
X392024Y168149D01*
Y167625D01*
X391499Y167100D01*
X390974D01*
X391499D01*
X392024Y166575D01*
Y166051D01*
X391499Y165526D01*
X390450D01*
X389925Y166051D01*
X372976Y58574D02*
Y55426D01*
X374551D01*
X375075Y55950D01*
Y58049D01*
X374551Y58574D01*
X372976D01*
X378224D02*
X377174Y58049D01*
X376125Y57000D01*
Y55950D01*
X376649Y55426D01*
X377699D01*
X378224Y55950D01*
Y56475D01*
X377699Y57000D01*
X376125D01*
X387576Y58374D02*
Y55226D01*
X389151D01*
X389675Y55751D01*
Y57850D01*
X389151Y58374D01*
X387576D01*
X392299Y55226D02*
Y58374D01*
X390725Y56800D01*
X392824D01*
X94276Y11574D02*
Y8426D01*
X95850D01*
X96375Y8951D01*
Y11050D01*
X95850Y11574D01*
X94276D01*
X99524Y8426D02*
X97425D01*
X99524Y10525D01*
Y11050D01*
X98999Y11574D01*
X97949D01*
X97425Y11050D01*
X314875Y155749D02*
X314351Y156274D01*
X313301D01*
X312776Y155749D01*
Y153650D01*
X313301Y153126D01*
X314351D01*
X314875Y153650D01*
X318024Y156274D02*
X315925D01*
Y154700D01*
X316974Y155225D01*
X317499D01*
X318024Y154700D01*
Y153650D01*
X317499Y153126D01*
X316449D01*
X315925Y153650D01*
X347975Y159049D02*
X347450Y159574D01*
X346401D01*
X345876Y159049D01*
Y156950D01*
X346401Y156426D01*
X347450D01*
X347975Y156950D01*
X350599Y156426D02*
Y159574D01*
X349025Y158000D01*
X351124D01*
X235875Y78149D02*
X235350Y78674D01*
X234301D01*
X233776Y78149D01*
Y76051D01*
X234301Y75526D01*
X235350D01*
X235875Y76051D01*
X239024Y75526D02*
X236925D01*
X239024Y77625D01*
Y78149D01*
X238499Y78674D01*
X237450D01*
X236925Y78149D01*
X409875Y118850D02*
X409350Y119374D01*
X408301D01*
X407776Y118850D01*
Y116751D01*
X408301Y116226D01*
X409350D01*
X409875Y116751D01*
X410925Y118850D02*
X411449Y119374D01*
X412499D01*
X413024Y118850D01*
Y118325D01*
X412499Y117800D01*
X413024Y117275D01*
Y116751D01*
X412499Y116226D01*
X411449D01*
X410925Y116751D01*
Y117275D01*
X411449Y117800D01*
X410925Y118325D01*
Y118850D01*
X411449Y117800D02*
X412499D01*
X260863Y22986D02*
X260339Y23511D01*
X259289D01*
X258764Y22986D01*
Y20888D01*
X259289Y20363D01*
X260339D01*
X260863Y20888D01*
X261913Y20363D02*
X262962D01*
X262438D01*
Y23511D01*
X261913Y22986D01*
X264537D02*
X265061Y23511D01*
X266111D01*
X266636Y22986D01*
Y22462D01*
X266111Y21937D01*
X266636Y21412D01*
Y20888D01*
X266111Y20363D01*
X265061D01*
X264537Y20888D01*
Y21412D01*
X265061Y21937D01*
X264537Y22462D01*
Y22986D01*
X265061Y21937D02*
X266111D01*
X260763Y71649D02*
X260239Y72174D01*
X259189D01*
X258664Y71649D01*
Y69551D01*
X259189Y69026D01*
X260239D01*
X260763Y69551D01*
X261813Y69026D02*
X262862D01*
X262338D01*
Y72174D01*
X261813Y71649D01*
X266536Y72174D02*
X264437D01*
Y70600D01*
X265486Y71125D01*
X266011D01*
X266536Y70600D01*
Y69551D01*
X266011Y69026D01*
X264962D01*
X264437Y69551D01*
X133640Y31972D02*
X133115Y32497D01*
X132065D01*
X131541Y31972D01*
Y29873D01*
X132065Y29348D01*
X133115D01*
X133640Y29873D01*
X134689Y29348D02*
X135739D01*
X135214D01*
Y32497D01*
X134689Y31972D01*
X137313Y29348D02*
X138363D01*
X137838D01*
Y32497D01*
X137313Y31972D01*
X133605Y41451D02*
X133080Y41976D01*
X132030D01*
X131506Y41451D01*
Y39352D01*
X132030Y38827D01*
X133080D01*
X133605Y39352D01*
X134654Y38827D02*
X135704D01*
X135179D01*
Y41976D01*
X134654Y41451D01*
X137278D02*
X137803Y41976D01*
X138852D01*
X139377Y41451D01*
Y39352D01*
X138852Y38827D01*
X137803D01*
X137278Y39352D01*
Y41451D01*
X84575Y36050D02*
X84051Y36574D01*
X83001D01*
X82476Y36050D01*
Y33950D01*
X83001Y33426D01*
X84051D01*
X84575Y33950D01*
X85625Y36574D02*
X87724D01*
Y36050D01*
X85625Y33950D01*
Y33426D01*
X28675Y36250D02*
X28150Y36774D01*
X27101D01*
X26576Y36250D01*
Y34150D01*
X27101Y33626D01*
X28150D01*
X28675Y34150D01*
X31824Y36774D02*
X30774Y36250D01*
X29725Y35200D01*
Y34150D01*
X30250Y33626D01*
X31299D01*
X31824Y34150D01*
Y34675D01*
X31299Y35200D01*
X29725D01*
X240575Y22749D02*
X240051Y23274D01*
X239001D01*
X238476Y22749D01*
Y20651D01*
X239001Y20126D01*
X240051D01*
X240575Y20651D01*
X241625Y22749D02*
X242149Y23274D01*
X243199D01*
X243724Y22749D01*
Y22225D01*
X243199Y21700D01*
X242674D01*
X243199D01*
X243724Y21175D01*
Y20651D01*
X243199Y20126D01*
X242149D01*
X241625Y20651D01*
X170100Y20449D02*
X169575Y20974D01*
X168526D01*
X168001Y20449D01*
Y18350D01*
X168526Y17826D01*
X169575D01*
X170100Y18350D01*
X171150Y17826D02*
X172199D01*
X171674D01*
Y20974D01*
X171150Y20449D01*
D19*
X101106Y18546D02*
D03*
D20*
X91844Y18546D02*
D03*
M02*
